<svg width="26" height="25" viewBox="0 0 26 25" fill="none" xmlns="http://www.w3.org/2000/svg">
<path d="M22.0665 16.9129C22.3853 16.9129 22.6642 16.6965 22.7462 16.3883L24.9766 7.98872C25.0306 7.78511 24.9905 7.5674 24.8673 7.39656C24.744 7.22554 24.5507 7.1186 24.3403 7.1056L5.09683 5.91688L4.57498 2.70448C4.53909 2.48384 4.4003 2.29323 4.20108 2.19124L2.02359 1.07722C1.67789 0.900525 1.25418 1.0373 1.0773 1.38301C0.900422 1.72871 1.03739 2.15223 1.38309 2.32911L3.24399 3.28126L5.34366 16.207L4.99063 18.4345C3.66898 18.6607 2.6597 19.8144 2.6597 21.2003C2.6597 22.7481 3.91818 24.015 5.46506 24.015C6.89749 24.015 8.082 22.9129 8.24918 21.5535H17.849C18.0162 22.9129 19.2007 24.015 20.6331 24.015C22.18 24.015 23.4385 22.752 23.4385 21.2042C23.4385 19.6566 22.18 18.4032 20.6331 18.4032C19.4644 18.4032 18.4608 19.116 18.0396 20.1473H8.05857C7.75498 19.3973 7.14853 18.8286 6.39578 18.5627L6.65634 16.9129H22.0665ZM20.6331 19.7998C21.4046 19.7998 22.0323 20.428 22.0323 21.2003C22.0323 21.9727 21.4046 22.6011 20.6331 22.6011C19.8619 22.6011 19.2342 21.9727 19.2342 21.2003C19.2342 20.428 19.8619 19.7998 20.6331 19.7998ZM6.86398 21.2003C6.86398 21.9727 6.23648 22.6011 5.46506 22.6011C4.69364 22.6011 4.06595 21.9727 4.06595 21.2003C4.06595 20.428 4.69364 19.7998 5.46506 19.7998C6.23648 19.7998 6.86398 20.428 6.86398 21.2003ZM5.32791 7.34199L23.3971 8.45912L21.5258 15.5067H6.65378L5.32791 7.34199Z" fill="#652EFE" stroke="#652EFE"/>
</svg>
