<svg width="19" height="24" viewBox="0 0 19 24" fill="none" xmlns="http://www.w3.org/2000/svg">
<path d="M9.5 0C4.25335 0 0 4.36199 0 9.74265C0 14.6238 5.91899 21.0458 8.41331 23.5356C9.02425 24.1442 9.9902 24.1569 10.613 23.5605C13.1223 21.1617 19 14.982 19 9.74212C18.9995 4.36199 14.7466 0 9.5 0ZM9.5 12.9082C7.33075 12.9082 5.57327 11.1058 5.57327 8.88168C5.57327 6.65756 7.33075 4.85465 9.5 4.85465C11.6687 4.85465 13.4257 6.65703 13.4257 8.88168C13.4257 11.1063 11.6687 12.9082 9.5 12.9082Z" fill="#272262"/>
</svg>
