<svg width="25" height="25" viewBox="0 0 25 25" fill="none" xmlns="http://www.w3.org/2000/svg">
<path d="M20.6318 15.8682C19.3792 14.6157 17.8883 13.6885 16.2617 13.1272C18.0039 11.9273 19.1484 9.91915 19.1484 7.64844C19.1484 3.9825 16.1659 1 12.5 1C8.83406 1 5.85156 3.9825 5.85156 7.64844C5.85156 9.91915 6.99613 11.9273 8.73833 13.1272C7.11171 13.6885 5.62084 14.6157 4.36829 15.8682C2.40917 17.8274 1.24393 20.3689 1.03428 23.1024C0.99634 23.5971 1.40224 24 1.89844 24C2.39463 24 2.79251 23.5965 2.83804 23.1024C3.29244 18.1712 7.45228 14.2969 12.5 14.2969C17.5477 14.2969 21.7076 18.1712 22.162 23.1024C22.2075 23.5965 22.6054 24 23.1016 24C23.5978 24 24.0037 23.5971 23.9657 23.1024C23.7561 20.3689 22.5908 17.8274 20.6318 15.8682ZM12.5 12.5C9.82486 12.5 7.64844 10.3236 7.64844 7.64844C7.64844 4.97325 9.82486 2.79688 12.5 2.79688C15.1751 2.79688 17.3516 4.97325 17.3516 7.64844C17.3516 10.3236 15.1751 12.5 12.5 12.5Z" fill="#652EFE" stroke="#652EFE" stroke-width="0.5"/>
</svg>
