<svg width="115" height="104" viewBox="0 0 115 104" fill="none" xmlns="http://www.w3.org/2000/svg">
<path fill-rule="evenodd" clip-rule="evenodd" d="M27.2 9.4H78.3V42.6L7.79999 42.4L27.2 9.4Z" fill="#ECF3FF"/>
<path fill-rule="evenodd" clip-rule="evenodd" d="M60.6 88.7C77.5 83.9 84.6 69.2 84.6 69.2L84.1 101.8L37.7 102.1C37.7 102.1 37.9 93.7 32.4 83.6C32.1 82.8 41.2 94.1 60.6 88.7Z" fill="#ECF3FF"/>
<path fill-rule="evenodd" clip-rule="evenodd" d="M7.79999 51.6H21V58.9H7.79999V51.6Z" fill="#F7941D"/>
<path d="M84.4 69.2L84.5 102.5H37.8C37.8 102.5 36.9 67.4 0.799988 65.9V41.2L23.9 0.800003H84.5V59.2" stroke="#272262" stroke-width="1.62" stroke-miterlimit="4.32" stroke-linecap="round" stroke-linejoin="round"/>
<path d="M27.2 9.4H78.3V42.6L7.79999 42.4L27.2 9.4Z" stroke="#272262" stroke-width="1.62" stroke-miterlimit="4.32" stroke-linecap="round" stroke-linejoin="round"/>
<path d="M41.3 9.7L54.8 20.4L42.6 28.7L48.1 37.1" stroke="#272262" stroke-width="1.62" stroke-miterlimit="4.32" stroke-linecap="round" stroke-linejoin="round"/>
<path d="M84.4 68.7L60.5 61.5L43.1 74" stroke="#272262" stroke-width="1.62" stroke-miterlimit="4.32" stroke-linecap="round" stroke-linejoin="round"/>
<path d="M84.4 59.2L57 55.4L43.1 74" stroke="#272262" stroke-width="1.62" stroke-miterlimit="4.32" stroke-linecap="round" stroke-linejoin="round"/>
<path d="M7.79999 51.6H21V58.9H7.79999V51.6Z" stroke="#272262" stroke-width="1.62" stroke-miterlimit="4.32" stroke-linecap="round" stroke-linejoin="round"/>
<path d="M94.3 51.7L111.2 41.6" stroke="#272262" stroke-width="1.62" stroke-miterlimit="4.32" stroke-linecap="round" stroke-linejoin="round"/>
<path d="M95.6 63.4H112.9" stroke="#272262" stroke-width="1.62" stroke-miterlimit="4.32" stroke-linecap="round" stroke-linejoin="round"/>
<path d="M95.7 75.1L113.3 83.5" stroke="#272262" stroke-width="1.62" stroke-miterlimit="4.32" stroke-linecap="round" stroke-linejoin="round"/>
</svg>
