<svg width="118" height="115" viewBox="0 0 118 115" fill="none" xmlns="http://www.w3.org/2000/svg">
<path fill-rule="evenodd" clip-rule="evenodd" d="M0.799988 46.1C0.799988 46.1 18 65.2 48.5 60.4C79 55.5 97.5 30.1 97.5 30.1L89.8 52.5C89.8 52.5 87.2 59 75.3 64L41.7 81C41.7 81 23.7 94.8 17.6 82.5C11.3 69.7 0.999988 49.8 0.999988 49.8L0.799988 46.1Z" fill="#ECF3FF"/>
<path fill-rule="evenodd" clip-rule="evenodd" d="M59.2 82.3L59.5 51.6L75.6 52L75.3 82.4L85.7 82.8L67 113.4L49.5 83.2L59.2 82.3Z" fill="#F7941D"/>
<path d="M49 77.1L29.7 87.5C25.4 89.7 20.2 87.9 18.1 83.7L1.69997 51.5C-0.500029 47.2 1.29997 42 5.49997 39.8L59.1 12.7C61.7 11.4 66.1 11 68.9 11.9L91.6 19.1C96.4 20.6 99 25.7 97.3 30.4L89.7 52.6C88.7 55.6 85.6 59.2 82.7 60.6" stroke="#272262" stroke-width="1.62" stroke-miterlimit="4.32" stroke-linecap="round" stroke-linejoin="round"/>
<path d="M70.3 25.4C75.4 22.8 81.7 24.9 84.3 30C86.9 35.1 84.8 41.4 79.7 44C74.6 46.6 68.3 44.5 65.7 39.4C63.2 34.2 65.2 28 70.3 25.4Z" stroke="#272262" stroke-width="1.62" stroke-miterlimit="4.32" stroke-linecap="round" stroke-linejoin="round"/>
<path d="M75.0999 77L75.5 51.9H59.0999V82.3H49.2L58.2999 98L67.4 113.7L76.4 98L85.4 82.3H75.5" stroke="#272262" stroke-width="1.62" stroke-miterlimit="4.32" stroke-linecap="round" stroke-linejoin="round"/>
<path d="M87.5 14.9C88.9 13.4 90.5 11.9 92.2 10.5C101.9 2.3 112.3 -1.3 115.4 2.4C118.6 6.1 113.3 15.8 103.6 24C94 32.1 83.6 35.7 80.4 32C79.3 30.6 79.2 28.5 80.1 25.9" stroke="#272262" stroke-width="1.62" stroke-miterlimit="4.32" stroke-linecap="round" stroke-linejoin="round"/>
</svg>
