<svg width="88" height="116" viewBox="0 0 88 116" fill="none" xmlns="http://www.w3.org/2000/svg">
<path fill-rule="evenodd" clip-rule="evenodd" d="M1.09998 114.8C1.09998 114.8 51.2 84.8 83.6 1.2L82.5 115L1.09998 114.8Z" fill="#ECF3FF"/>
<path d="M82.8 104.9V115.2H0.799988V0.800003V8.1C0.799988 4.1 0.799988 0.800003 0.799988 0.800003C0.799988 0.800003 3.79999 0.800003 7.59999 0.800003H82.8V36.4V80.9" stroke="#272262" stroke-width="1.62" stroke-miterlimit="4.32" stroke-linecap="round" stroke-linejoin="round"/>
<path d="M17.3 10.3H71" stroke="#272262" stroke-width="1.62" stroke-miterlimit="4.32" stroke-linecap="round" stroke-linejoin="round"/>
<path d="M54.9 48.8H66.7" stroke="#272262" stroke-width="1.62" stroke-miterlimit="4.32" stroke-linecap="round" stroke-linejoin="round"/>
<path d="M13 48.8H39.5" stroke="#272262" stroke-width="1.62" stroke-miterlimit="4.32" stroke-linecap="round" stroke-linejoin="round"/>
<path d="M32.3 61.6H62.3" stroke="#272262" stroke-width="1.62" stroke-miterlimit="4.32" stroke-linecap="round" stroke-linejoin="round"/>
<path d="M13 61.6H25.3" stroke="#272262" stroke-width="1.62" stroke-miterlimit="4.32" stroke-linecap="round" stroke-linejoin="round"/>
<path d="M13 74.4H58.3" stroke="#272262" stroke-width="1.62" stroke-miterlimit="4.32" stroke-linecap="round" stroke-linejoin="round"/>
<path d="M13 36.9H58.3" stroke="#272262" stroke-width="1.62" stroke-miterlimit="4.32" stroke-linecap="round" stroke-linejoin="round"/>
<path d="M13 87.2H33.3" stroke="#272262" stroke-width="1.62" stroke-miterlimit="4.32" stroke-linecap="round" stroke-linejoin="round"/>
<path d="M27.3 21.4H59.4" stroke="#272262" stroke-width="1.62" stroke-miterlimit="4.32" stroke-linecap="round" stroke-linejoin="round"/>
<path d="M48.6 94.6C48.6 87 54.7 80.9 62.3 80.9C69.8 80.9 76 87 76 94.6C76 102.2 69.9 108.3 62.3 108.3C54.7 108.3 48.6 102.2 48.6 94.6Z" stroke="#652EFE" stroke-width="1.62" stroke-miterlimit="4.32" stroke-linecap="round" stroke-linejoin="round"/>
<path d="M52 94.6C52 88.9 56.6 84.3 62.3 84.3C68 84.3 72.6 88.9 72.6 94.6C72.6 100.3 68 104.9 62.3 104.9C56.6 104.9 52 100.3 52 94.6Z" stroke="#652EFE" stroke-width="1.62" stroke-miterlimit="4.32" stroke-linecap="round" stroke-linejoin="round"/>
<path d="M54.5 91.9H70V97.4H54.5V91.9Z" stroke="#652EFE" stroke-width="1.62" stroke-miterlimit="4.32" stroke-linecap="round" stroke-linejoin="round"/>
<path d="M41.6 84L46.5 87.5" stroke="#F7941D" stroke-width="1.62" stroke-miterlimit="4.32" stroke-linecap="round" stroke-linejoin="round"/>
<path d="M84.1 84L79.2 87.5" stroke="#F7941D" stroke-width="1.62" stroke-miterlimit="4.32" stroke-linecap="round" stroke-linejoin="round"/>
<path d="M45.6 94.1L39.3 93.8" stroke="#F7941D" stroke-width="1.62" stroke-miterlimit="4.32" stroke-linecap="round" stroke-linejoin="round"/>
<path d="M80.1 94.1L86.4 93.8" stroke="#F7941D" stroke-width="1.62" stroke-miterlimit="4.32" stroke-linecap="round" stroke-linejoin="round"/>
<path d="M46.5 100.3L40.3 103.2" stroke="#F7941D" stroke-width="1.62" stroke-miterlimit="4.32" stroke-linecap="round" stroke-linejoin="round"/>
<path d="M79.3 100.3L85.5 103.2" stroke="#F7941D" stroke-width="1.62" stroke-miterlimit="4.32" stroke-linecap="round" stroke-linejoin="round"/>
</svg>
