<svg width="118" height="115" viewBox="0 0 118 115" fill="none" xmlns="http://www.w3.org/2000/svg">
<path fill-rule="evenodd" clip-rule="evenodd" d="M94.4 55.1L94.2 50L103.5 50.1V55.2L94.4 55.1Z" fill="#F7941D"/>
<path fill-rule="evenodd" clip-rule="evenodd" d="M56.3 55.3L56.7 50L65.9 49.9L66.1 55.1L56.3 55.3Z" fill="#F7941D" stroke="#272262" stroke-width="1.62" stroke-miterlimit="4.32" stroke-linecap="round" stroke-linejoin="round"/>
<path fill-rule="evenodd" clip-rule="evenodd" d="M1.10001 40.8C1.10001 40.8 9.7 61.3 28.4 64.6C28.4 64.6 38.9 67.3 45.9 63.3L46.1 55.6L56.2 55.4L56.6 49.6C56.6 49.6 71.5 44.1 76.9 29.5C76.9 29.5 81.2 40 79.7 47.2L70.2 49.8L72.9 55.4L66.3 55.5L65.6 50.2L56.4 50V55.8H45.9V63.3L53 63.6L52.5 74.8C52.5 74.8 42.8 82.4 37.4 81.2L32.5 73.8L25.3 79.3C25.3 79.3 12.7 73.2 10.4 68.6L12.6 59.9L3.80001 58C3.80001 58 1.30001 44.7 1.10001 40.8Z" fill="#ECF3FF"/>
<path fill-rule="evenodd" clip-rule="evenodd" d="M52.9 81.8C52.9 81.8 59.5 94 68.4 95C84.4 96.8 91 76 96.3 70.6C101.6 65.2 110.1 63.2 110.1 63.2L109.8 103.8L116.9 105.5L117 111.8L45.8 112.2L46.2 104.4L53.1 104.3L52.9 81.8Z" fill="#ECF3FF"/>
<path fill-rule="evenodd" clip-rule="evenodd" d="M68.4 83.7C68.4 76.5 74.3 70.6 81.5 70.6C88.7 70.6 94.6 76.5 94.6 83.7C94.6 90.9 88.7 96.8 81.5 96.8C74.2 96.8 68.4 91 68.4 83.7Z" fill="#F7941D"/>
<path fill-rule="evenodd" clip-rule="evenodd" d="M25.8 90.5C25.8 90.5 15.3 81.3 14.1 80.6C12.9 79.9 8.99999 80.9 8.79999 82.3L5.69999 82.5L4.39999 83.6L5.29999 86.5C5.29999 86.5 2.99999 89.3 3.49999 90.9C3.49999 90.9 2.99999 91.8 7.59999 95.6C12.2 99.4 16.2 102.4 16.2 102.4L25.8 90.5Z" fill="#F7941D"/>
<path d="M72 53.5L70.7 50L79.6 47.3C80.2 41.2 79.5 35.1 77.3 29.4L67.9 27.5L70.9 18.2C69 15.8 66.8 13.6 64.2 11.7C61.8 9.9 59.3 8.6 56.8 7.4L48.4 12.9L43.8 4C37.8 3.5 31.9 4.3 26.3 6.5L24.3 16.3L14.8 13.3C12.6 15.1 10.7 17.2 8.89999 19.5C6.79999 22 5.29999 24.7 3.99999 27.5L9.39999 35.7L0.899991 40.2C0.499991 46.3 1.39999 52.3 3.69999 58L12.9 59.9L10.1 68.7C12 70.9 14 73 16.5 74.9C19.1 76.9 21.9 78.4 24.8 79.6L32.4 74.6L36.9 80.8C36.9 80.8 43.8 81.9 50.1 76" stroke="#272262" stroke-width="1.62" stroke-miterlimit="4.32" stroke-linecap="round" stroke-linejoin="round"/>
<path d="M21 28.7C26.3 21.7 34.6 18.4 42.8 19.2" stroke="#272262" stroke-width="1.62" stroke-miterlimit="4.32" stroke-linecap="round" stroke-linejoin="round"/>
<path d="M40.8 62.8C36.6 62.9 32.2 61.6 28.6 58.9C20 52.4 18.3 40.2 24.8 31.6C31.3 23 43.5 21.3 52.1 27.8C57.9 32.2 60.6 39.2 59.7 46" stroke="#272262" stroke-width="1.62" stroke-miterlimit="4.32" stroke-linecap="round" stroke-linejoin="round"/>
<path d="M109.7 69.3V104.5H52.8V63" stroke="#272262" stroke-width="1.62" stroke-miterlimit="4.32" stroke-linecap="round" stroke-linejoin="round"/>
<path d="M94.2 55.7H117V63H46V55.7H87.4" stroke="#272262" stroke-width="1.62" stroke-miterlimit="4.32" stroke-linecap="round" stroke-linejoin="round"/>
<path d="M45.9 104.5H116.9V111.8H45.9V104.5V104.5Z" stroke="#272262" stroke-width="1.62" stroke-miterlimit="4.32" stroke-linecap="round" stroke-linejoin="round"/>
<path d="M94.2 55.5V49.8H103.7V55" stroke="#272262" stroke-width="1.62" stroke-miterlimit="4.32" stroke-linecap="round" stroke-linejoin="round"/>
<path d="M56.4 55.5V49.8H65.9V55" stroke="#272262" stroke-width="1.62" stroke-miterlimit="4.32" stroke-linecap="round" stroke-linejoin="round"/>
<path d="M68.2 83.7C68.2 76.5 74.1 70.6 81.3 70.6C88.5 70.6 94.4 76.5 94.4 83.7C94.4 90.9 88.5 96.8 81.3 96.8C74 96.8 68.2 91 68.2 83.7Z" stroke="#272262" stroke-width="1.62" stroke-miterlimit="4.32" stroke-linecap="round" stroke-linejoin="round"/>
<path d="M81.4 76L76.1 83.2L86.3 83.8L80.3 91.4" stroke="#272262" stroke-width="1.62" stroke-miterlimit="4.32" stroke-linecap="round" stroke-linejoin="round"/>
<path fill-rule="evenodd" clip-rule="evenodd" d="M16.9 105.3C16.9 105.3 29.3 103 35.1 96.6L38.3 99.4L36.7 101.4L33.7 99.2L31 102.3L34.6 105.8L32.6 109.1L28.9 105.9L25.7 108.2L28.4 111.4L26.4 113.8L20.6 108.3L17.8 109.6L15.6 107.4L16.9 105.3Z" fill="#ECF3FF"/>
<path d="M5.49999 86.5L4.59999 83.6L5.59999 82.4L8.59999 82.8L9.39999 81.9C10.8 80.2 13.2 79.9 14.8 81.2L26 90.7L16 102.6L4.69999 93C3.19999 91.7 3.09999 89.3 4.49999 87.7L5.49999 86.5Z" stroke="#272262" stroke-width="1.62" stroke-miterlimit="4.32" stroke-linecap="round" stroke-linejoin="round"/>
<path d="M17.8 100.4L6.29999 90.7L12.6 83.2L22.5 91.6" stroke="#272262" stroke-width="1.62" stroke-miterlimit="4.32" stroke-linecap="round" stroke-linejoin="round"/>
<path d="M19.7 98.1L13.3 92.7C13.3 92.7 14.8 92.7 15.4 92C16 91.3 15.8 89.8 15.8 89.8L22.2 95.2" stroke="#272262" stroke-width="1.62" stroke-miterlimit="4.32" stroke-linecap="round" stroke-linejoin="round"/>
<path d="M26 90.7L29.1 91.6L17.5 105.5L16 102.6" stroke="#272262" stroke-width="1.62" stroke-miterlimit="4.32" stroke-linecap="round" stroke-linejoin="round"/>
<path d="M15.8 107.4L30.7 89.6L33.1 91.6L18.2 109.4L15.8 107.4Z" stroke="#272262" stroke-width="1.62" stroke-miterlimit="4.32" stroke-linecap="round" stroke-linejoin="round"/>
<path d="M19.9 107.5L31.5 93.6L35.6 97L24 110.9L19.9 107.5Z" stroke="#272262" stroke-width="1.62" stroke-miterlimit="4.32" stroke-linecap="round" stroke-linejoin="round"/>
<path d="M22 109.2L32.2 97.1" stroke="#272262" stroke-width="1.62" stroke-miterlimit="4.32" stroke-linecap="round" stroke-linejoin="round"/>
<path d="M28.5 105.4L30.9 102.5L34.9 105.9L32.5 108.8L28.5 105.4Z" stroke="#272262" stroke-width="1.62" stroke-miterlimit="4.32" stroke-linecap="round" stroke-linejoin="round"/>
<path d="M33.8 99.1L35.6 97L38.5 99.4L36.7 101.5L33.8 99.1Z" stroke="#272262" stroke-width="1.62" stroke-miterlimit="4.32" stroke-linecap="round" stroke-linejoin="round"/>
<path d="M23.9 110.9L25.7 108.8L28.6 111.2L26.8 113.3L23.9 110.9Z" stroke="#272262" stroke-width="1.62" stroke-miterlimit="4.32" stroke-linecap="round" stroke-linejoin="round"/>
<path fill-rule="evenodd" clip-rule="evenodd" d="M75.4 5.5C75.4 5.5 77.1 14.9 84.8 15.6C92.6 16.4 104.5 36.3 114.5 39.6C114.5 39.6 114.5 44.7 110.7 45.4C110.7 45.4 107 44 101.7 37.1C96.4 30.2 87.3 20.3 87.3 20.3C87.3 20.3 75.4 22.8 73.9 11C73.9 11 73.7 7.1 75.4 5.5Z" fill="#ECF3FF"/>
<path d="M93 15L113.9 39C114.9 40.2 114.8 41.9 113.6 42.9L111.6 44.7C110.6 45.6 109.1 45.5 108.2 44.5L87 20.2" stroke="#272262" stroke-width="1.62" stroke-miterlimit="4.32" stroke-linecap="round" stroke-linejoin="round"/>
<path d="M87 20.2C83.4 21.3 79.2 20.3 76.5 17.3C73.6 13.9 73.3 9.1 75.5 5.5" stroke="#272262" stroke-width="1.62" stroke-miterlimit="4.32" stroke-linecap="round" stroke-linejoin="round"/>
<path d="M80.1 1.6C84 -1.72853e-06 88.6 0.899998 91.5 4.2C94.2 7.3 94.6 11.5 93 15" stroke="#272262" stroke-width="1.62" stroke-miterlimit="4.32" stroke-linecap="round" stroke-linejoin="round"/>
<path d="M75.5 5.5C75.5 5.5 79.4 13.4 83.4 10C87.4 6.7 80 1.6 80 1.6" stroke="#272262" stroke-width="1.62" stroke-miterlimit="4.32" stroke-linecap="round" stroke-linejoin="round"/>
<path d="M108.4 40.8C107.9 40.2 107.9 39.3 108.5 38.8C109.1 38.3 110 38.3 110.5 38.9C111 39.5 111 40.4 110.4 40.9C109.8 41.4 108.9 41.4 108.4 40.8Z" stroke="#272262" stroke-width="1.62" stroke-miterlimit="4.32" stroke-linecap="round" stroke-linejoin="round"/>
<path d="M91.7 17.5L101.1 28.3" stroke="#272262" stroke-width="1.62" stroke-miterlimit="4.32" stroke-linecap="round" stroke-linejoin="round"/>
</svg>
