<svg width="18" height="20" viewBox="0 0 18 20" fill="none" xmlns="http://www.w3.org/2000/svg">
<g clip-path="url(#clip0)">
<path d="M17.9824 5.94713C17.9402 4.94364 17.7855 4.25374 17.564 3.65594C17.3354 3.02138 16.9838 2.45327 16.5231 1.98099C16.073 1.50136 15.5279 1.12867 14.9302 0.892605C14.3571 0.660142 13.703 0.497864 12.7466 0.45362C11.7831 0.405628 11.4772 0.394531 9.03336 0.394531C6.58953 0.394531 6.28364 0.405628 5.32366 0.449873C4.36725 0.494117 3.70973 0.656539 3.14011 0.888858C2.5352 1.12867 1.99374 1.49762 1.54363 1.98099C1.08651 2.45327 0.731444 3.02513 0.506318 3.65233C0.284763 4.25374 0.1301 4.93989 0.087932 5.94339C0.0421926 6.95438 0.0316162 7.27533 0.0316162 9.83949C0.0316162 12.4036 0.0421926 12.7246 0.0843608 13.7318C0.126529 14.7353 0.281329 15.4252 0.502884 16.023C0.731443 16.6576 1.08651 17.2257 1.54363 17.698C1.99374 18.1776 2.53877 18.5503 3.13654 18.7864C3.70973 19.0188 4.36368 19.1811 5.32022 19.2254C6.28006 19.2697 6.58609 19.2807 9.02993 19.2807C11.4738 19.2807 11.7796 19.2697 12.7396 19.2254C13.696 19.1811 14.3536 19.0188 14.9232 18.7864C16.1329 18.2957 17.0893 17.2922 17.557 16.023C17.7784 15.4216 17.9332 14.7353 17.9754 13.7318C18.0175 12.7246 18.0281 12.4036 18.0281 9.83949C18.0281 7.27533 18.0245 6.95438 17.9824 5.94713Z" fill="#652EFE"/>
<path d="M9.03337 4.98787C6.48061 4.98787 4.40942 7.16089 4.40942 9.83948C4.40942 12.5181 6.48061 14.6911 9.03337 14.6911C11.5863 14.6911 13.6573 12.5181 13.6573 9.83948C13.6573 7.16089 11.5863 4.98787 9.03337 4.98787ZM9.03337 12.9866C7.37727 12.9866 6.03393 11.5773 6.03393 9.83948C6.03393 8.1017 7.37727 6.69236 9.03337 6.69236C10.6896 6.69236 12.0328 8.1017 12.0328 9.83948C12.0328 11.5773 10.6896 12.9866 9.03337 12.9866Z" fill="white"/>
<path d="M14.9198 4.79606C14.9198 5.42154 14.4364 5.92869 13.8402 5.92869C13.244 5.92869 12.7607 5.42154 12.7607 4.79606C12.7607 4.17044 13.244 3.66343 13.8402 3.66343C14.4364 3.66343 14.9198 4.17044 14.9198 4.79606Z" fill="white"/>
</g>
<defs>
<clipPath id="clip0">
<rect width="18" height="18.8862" fill="white" transform="translate(0 0.394531)"/>
</clipPath>
</defs>
</svg>
