<svg width="20" height="13" viewBox="0 0 20 13" fill="none" xmlns="http://www.w3.org/2000/svg">
<path d="M16.5964 7.61105C16.2731 7.18259 16.3656 6.99197 16.5964 6.60898C16.6006 6.60461 19.2698 2.73448 19.5448 1.422L19.5465 1.42112C19.6832 0.94282 19.5465 0.591309 18.8857 0.591309H16.6989C16.1422 0.591309 15.8856 0.892979 15.748 1.2305C15.748 1.2305 14.6347 4.02685 13.0596 5.8395C12.5513 6.36327 12.3163 6.53116 12.0388 6.53116C11.9021 6.53116 11.6896 6.36327 11.6896 5.88497V1.42112C11.6896 0.84751 11.5337 0.591309 11.0729 0.591309H7.63443C7.28525 0.591309 7.07775 0.858877 7.07775 1.10808C7.07775 1.65196 7.86527 1.777 7.94694 3.30722V6.62734C7.94694 7.35485 7.8211 7.48863 7.54193 7.48863C6.79857 7.48863 4.99434 4.68091 3.92514 1.46746C3.7093 0.844012 3.49845 0.592183 2.9376 0.592183H0.750026C0.125838 0.592183 0 0.893853 0 1.23137C0 1.82772 0.743359 4.79283 3.45679 8.71018C5.26518 11.3841 7.81194 12.833 10.1287 12.833C11.5212 12.833 11.6912 12.5112 11.6912 11.9577C11.6912 9.40271 11.5654 9.16137 12.2629 9.16137C12.5863 9.16137 13.143 9.32926 14.443 10.619C15.9289 12.1483 16.1731 12.833 17.0048 12.833H19.1915C19.8149 12.833 20.1307 12.5112 19.949 11.8764C19.5332 10.5412 16.7231 7.79467 16.5964 7.61105Z" fill="white"/>
</svg>
