<svg width="104" height="107" viewBox="0 0 104 107" fill="none" xmlns="http://www.w3.org/2000/svg">
<path d="M55.3004 29.1C56.9004 29.1 58.3004 29.7 59.5004 30.8C60.6004 31.9 61.2004 33.3 61.2004 35C61.2004 36.7 60.6004 38 59.5004 39.2C58.4004 40.3 57.0004 40.9 55.3004 40.9C53.7004 40.9 52.3004 40.3 51.2004 39.2C50.1004 38.1 49.5004 36.7 49.5004 35C49.5004 33.3 50.1004 32 51.2004 30.8C52.3004 29.6 53.7004 29.1 55.3004 29.1ZM57.8004 47.4L49.6004 75.8C49.2004 77.4 49.0004 78.5 49.0004 79C49.0004 79.3 49.1004 79.6 49.4004 79.8C49.6004 80.1 49.9004 80.2 50.2004 80.2C50.7004 80.2 51.1004 80 51.6004 79.6C52.8004 78.6 54.2004 76.8 55.9004 74.3L57.3004 75.1C53.3004 82.1 49.0004 85.6 44.5004 85.6C42.8004 85.6 41.4004 85.1 40.4004 84.1C39.4004 83.1 38.9004 81.9 38.9004 80.4C38.9004 79.4 39.1004 78.2 39.6004 76.6L45.1004 57.5C45.6004 55.7 45.9004 54.3 45.9004 53.3C45.9004 52.7 45.6004 52.2 45.1004 51.7C44.6004 51.2 43.9004 51 43.0004 51C42.6004 51 42.1004 51 41.6004 51L42.1004 49.4L55.6004 47.2H57.8004V47.4Z" stroke="#F7941D" stroke-width="2.4" stroke-miterlimit="4.32" stroke-linecap="round" stroke-linejoin="round"/>
<path d="M65.1016 20.5C65.1016 10.2 73.5016 1.79999 83.8016 1.79999C94.1016 1.79999 102.502 10.2 102.502 20.5C102.502 30.8 94.0016 39.1 83.7016 39.1C73.4016 39.1 65.1016 30.8 65.1016 20.5Z" stroke="#652EFE" stroke-width="2.4" stroke-miterlimit="4.32" stroke-linecap="round" stroke-linejoin="round"/>
<path d="M62.2008 10.8C58.3008 9.79998 54.2008 9.19998 50.0008 9.19998C23.4008 9.19998 1.80078 30.7 1.80078 57.3C1.80078 68.2 5.60078 78.2 11.7008 86.2L7.80078 105.4L26.6008 99.1C33.5008 103 41.4008 105.4 49.9008 105.4C76.5008 105.4 98.0008 83.9 98.0008 57.3C98.0008 51.7 97.0008 46.3 95.3008 41.3" stroke="#652EFE" stroke-width="2.4" stroke-miterlimit="4.32" stroke-linecap="round" stroke-linejoin="round"/>
<path fill-rule="evenodd" clip-rule="evenodd" d="M81.7012 29.1C81.7012 29.7 81.9012 30.1 82.3012 30.5C82.7012 30.9 83.2012 31.1 83.7012 31.1C84.3012 31.1 84.7012 30.9 85.1012 30.5C85.5012 30.1 85.7012 29.6 85.7012 29.1C85.7012 28.5 85.5012 28.1 85.1012 27.7C84.7012 27.3 84.2012 27.1 83.7012 27.1C83.1012 27.1 82.7012 27.3 82.3012 27.7C81.9012 28 81.7012 28.5 81.7012 29.1ZM76.7012 14.3H79.7012C79.7012 13.7 79.8012 13.2 79.9012 12.7C80.1012 12.2 80.3012 11.8 80.6012 11.4C80.9012 11 81.4012 10.7 81.9012 10.5C82.4012 10.3 83.0012 10.2 83.7012 10.2C84.4012 10.2 85.0012 10.3 85.6012 10.6C86.2012 10.8 86.7012 11.2 87.0012 11.7C87.4012 12.2 87.6012 12.9 87.6012 13.7C87.6012 14.6 87.4012 15.3 86.9012 15.8C86.4012 16.3 85.8012 16.9 85.0012 17.6C84.4012 18 83.9012 18.5 83.4012 19C82.9012 19.5 82.5012 20 82.2012 20.7C81.9012 21.3 81.8012 22 81.8012 22.9V24.3H84.8012V23.3C84.8012 22.6 84.9012 22.1 85.1012 21.7C85.3012 21.3 85.6012 20.9 86.0012 20.5C86.4012 20.1 86.9012 19.7 87.6012 19.2C88.1012 18.8 88.7012 18.3 89.2012 17.8C89.7012 17.3 90.1012 16.7 90.5012 16.1C90.8012 15.4 91.0012 14.6 91.0012 13.7C91.0012 12.4 90.7012 11.3 90.0012 10.4C89.3012 9.49999 88.5012 8.89999 87.4012 8.49999C86.3012 8.09999 85.2012 7.89999 84.0012 7.89999C83.2012 7.89999 82.3012 7.99999 81.5012 8.19999C80.5012 8.09999 79.7012 8.49999 79.0012 8.99999C78.3012 9.49999 77.7012 10.2 77.3012 11.1C76.9012 11.9 76.7012 13 76.7012 14.3Z" fill="#F7941D"/>
</svg>
