<svg width="14" height="14" viewBox="0 0 14 14" fill="none" xmlns="http://www.w3.org/2000/svg">
<path d="M5.78854 7.69262L3.95402 5.91193H8.51469C10.0746 5.91193 11.3362 7.14288 11.3362 8.64628C11.3362 10.1497 10.0746 11.3806 8.51469 11.3806H7.60437C7.10771 11.3806 6.69748 11.7725 6.69748 12.2653C6.69748 12.7581 7.10771 13.15 7.60437 13.15H8.51469C11.0665 13.15 13.15 11.1339 13.15 8.64628C13.15 6.15865 11.0665 4.14256 8.51477 4.14256H3.9541L5.78862 2.36187C6.14493 2.01601 6.14493 1.45345 5.78862 1.1076C5.43472 0.764075 4.86306 0.764198 4.50919 1.10758L4.50918 1.1076L1.11723 4.40019C1.11723 4.40019 1.11723 4.40019 1.11723 4.40019C0.760923 4.74605 0.760924 5.30861 1.11723 5.65446L4.50918 8.94689C4.68659 9.1191 4.91843 9.20444 5.14886 9.20444C5.37933 9.20444 5.61113 9.11899 5.78851 8.94692L5.78854 8.94689C6.14484 8.60104 6.14484 8.03848 5.78854 7.69262Z" fill="#EF4136" stroke="white" stroke-width="0.3"/>
</svg>
