<svg width="12" height="12" viewBox="0 0 12 12" fill="none" xmlns="http://www.w3.org/2000/svg">
<path d="M11.9686 4.6027C11.8896 4.35972 11.6741 4.18769 11.4201 4.16471L7.95608 3.85022L6.58706 0.645087C6.48599 0.409609 6.256 0.257629 6.00002 0.257629C5.74403 0.257629 5.51396 0.409609 5.41352 0.645087L4.04451 3.85022L0.579912 4.16471C0.325941 4.18814 0.11088 4.36017 0.0314104 4.6027C-0.047601 4.84569 0.0253678 5.1122 0.217449 5.28066L2.83599 7.57675L2.06392 10.9773C2.00743 11.2273 2.10447 11.4858 2.31194 11.6358C2.42345 11.7168 2.55446 11.7573 2.68594 11.7573C2.79891 11.7573 2.91198 11.7273 3.01297 11.6668L6.00002 9.8808L8.98652 11.6668C9.20561 11.7978 9.4811 11.7858 9.6881 11.6358C9.89556 11.4858 9.99261 11.2273 9.93612 10.9773L9.16404 7.57675L11.7826 5.28066C11.9746 5.1122 12.0476 4.84624 11.9686 4.6027Z" fill="#3BA336"/>
</svg>
