<svg width="382" height="360" viewBox="0 0 382 360" fill="none" xmlns="http://www.w3.org/2000/svg">
<path fill-rule="evenodd" clip-rule="evenodd" d="M339.2 221.7C339.2 221.7 349.4 235.6 379.8 233.4L381.6 195.4L339.2 221.7Z" fill="#CBDEFF"/>
<path fill-rule="evenodd" clip-rule="evenodd" d="M186.3 279.9C186.3 279.9 211.2 288.1 230.1 274.9C249 261.7 283.7 233.7 333.7 265.5C333.7 265.5 362.4 277.3 377.6 278.3V315.2L347.7 315C347.7 315 346.3 294.6 332.1 275.8C326.5 268.3 299.7 252.9 277.6 259.4C262.7 263.8 248.5 274.9 241.1 285.6C234.5 295.2 233.5 315.2 233.5 315.2C233.5 315.2 201.5 317.3 193.8 310.4C193.7 310.4 180.5 303.1 186.3 279.9Z" fill="#ECF3FF"/>
<path fill-rule="evenodd" clip-rule="evenodd" d="M323.9 38.1C311.3 37.5 300.3 45.7 296.8 57.2C295.6 56.8 294.3 56.6 293 56.5C284 56 276.4 62.9 275.9 71.9C275.4 80.9 282.3 90.7 291.2 91.2C296 91.4 350 92 356 92.3C365 92.8 372.6 85.9 373.1 76.9C373.6 67.9 366.7 60.3 357.7 59.8C354.7 59.6 351.8 60.4 349.3 61.7C347.8 49 337.2 38.8 323.9 38.1Z" fill="#ECF3FF"/>
<path fill-rule="evenodd" clip-rule="evenodd" d="M189.5 259.3C189.5 259.3 206 262.7 218.6 258.6C231.2 254.5 237.9 236.7 237.9 236.7C237.9 236.7 211.2 239.6 205.2 242.4C199.2 245.2 191.9 251.8 189.5 259.3Z" fill="#F7941D"/>
<path fill-rule="evenodd" clip-rule="evenodd" d="M333.6 315.2C333.6 291.5 314.3 272.2 290.6 272.2C266.9 272.2 247.6 291.5 247.6 315.2C247.6 338.9 266.8 358.2 290.6 358.2C314.4 358.2 333.6 338.9 333.6 315.2Z" fill="#272262"/>
<path fill-rule="evenodd" clip-rule="evenodd" d="M94 358.1L94.2 205L109.9 205.6L108.6 357.3L94 358.1Z" fill="#CBDEFF"/>
<path fill-rule="evenodd" clip-rule="evenodd" d="M129.5 205.5L167.4 167.1L168.1 114.1L130.7 73.3L75.7 73.5L38.5 112.7L38 167.6L75.2 204.4L129.5 205.5Z" fill="#CBDEFF"/>
<path fill-rule="evenodd" clip-rule="evenodd" d="M48.6 115.6L78.9 84.4L124.9 84.6L158.7 116.2L158.9 161.7L124.3 194.4L79.4 195.5L47.2 162.8C47.3 162.8 48.2 117.5 48.6 115.6Z" fill="#FF6258"/>
<path d="M75.4 205L37.3 166.6L37.5 112.5L75.9 74.4L130 74.6L168.1 113L167.9 167.1L129.5 205.2L75.4 205Z" stroke="#272262" stroke-width="2.16" stroke-miterlimit="4.32" stroke-linecap="round" stroke-linejoin="round"/>
<path d="M132.2 91.5L158.2 117.1L158 163.1L125.3 195.5L79.3 195.3L47 162.6L47.2 116.6L79.9 84.2L124.6 85.2" stroke="white" stroke-width="2.16" stroke-miterlimit="4.32" stroke-linecap="round" stroke-linejoin="round"/>
<path d="M109 276.1V357.4H94.6V210.7" stroke="#272262" stroke-width="2.16" stroke-miterlimit="4.32" stroke-linecap="round" stroke-linejoin="round"/>
<path d="M109 218.7V257.7" stroke="#272262" stroke-width="2.16" stroke-miterlimit="4.32" stroke-linecap="round" stroke-linejoin="round"/>
<path d="M199.6 358.1L231.4 358.3" stroke="#272262" stroke-width="2.16" stroke-miterlimit="4.32" stroke-linecap="round" stroke-linejoin="round"/>
<path d="M24.1 356.7L184.3 358" stroke="#272262" stroke-width="2.16" stroke-miterlimit="4.32" stroke-linecap="round" stroke-linejoin="round"/>
<path fill-rule="evenodd" clip-rule="evenodd" d="M88 148.5H84.5V155.2H78.5V148.5H66.1V143.1L77.6 124.1H84.5V143.7H88V148.5ZM78.5 143.7V130.2L70.7 143.7H78.5Z" fill="#FDFDFD"/>
<path fill-rule="evenodd" clip-rule="evenodd" d="M101.7 151C103.5 151 104.7 150 105.3 148.1C105.9 146.2 106.2 143.4 106.2 139.8C106.2 136 105.9 133.2 105.3 131.4C104.7 129.6 103.5 128.7 101.7 128.7C99.9 128.7 98.7 129.6 98.1 131.4C97.5 133.2 97.2 136 97.2 139.8C97.2 143.4 97.5 146.2 98.1 148.1C98.7 150 99.9 151 101.7 151ZM112.5 139.9C112.5 145.1 111.7 149.1 110.1 151.9C108.5 154.7 105.7 156.1 101.7 156.1C97.7 156.1 94.9 154.7 93.3 151.9C91.7 149.1 90.9 145.1 90.9 139.9C90.9 134.7 91.7 130.7 93.3 127.9C94.9 125.1 97.7 123.7 101.7 123.7C105.7 123.7 108.5 125.1 110.1 127.9C111.7 130.7 112.5 134.7 112.5 139.9Z" fill="white"/>
<path fill-rule="evenodd" clip-rule="evenodd" d="M137.3 148.5H133.8V155.2H127.8V148.5H115.4V143.1L126.9 124.1H133.8V143.7H137.3V148.5ZM127.7 143.7V130.2L119.9 143.7H127.7Z" fill="white"/>
<path d="M94.3 356.3C94.3 356.3 89.1 341.5 81.5 329.6" stroke="#272262" stroke-width="2.16" stroke-miterlimit="4.32" stroke-linecap="round" stroke-linejoin="round"/>
<path d="M94.6 356.1L84.5 310.4L78.4 317.7" stroke="#272262" stroke-width="2.16" stroke-miterlimit="4.32" stroke-linecap="round" stroke-linejoin="round"/>
<path d="M110 356.4C110 356.4 117.5 339.8 123.7 335.4" stroke="#272262" stroke-width="2.16" stroke-miterlimit="4.32" stroke-linecap="round" stroke-linejoin="round"/>
<path d="M110.1 356.6C110.1 356.6 119.7 347.5 127.9 348.5" stroke="#272262" stroke-width="2.16" stroke-miterlimit="4.32" stroke-linecap="round" stroke-linejoin="round"/>
<path d="M109 356.3L118.5 325.5L123.5 328.1" stroke="#272262" stroke-width="2.16" stroke-miterlimit="4.32" stroke-linecap="round" stroke-linejoin="round"/>
<path d="M347.8 315.2H373.4" stroke="#272262" stroke-width="2.16" stroke-miterlimit="4.32" stroke-linecap="round" stroke-linejoin="round"/>
<path d="M373.5 200.5L342.5 219.7C338.4 222 331.3 224.2 326.6 224.5L212.9 240.3C200.8 242 189.8 253.1 188.3 265.2L185.3 288.8C183.4 303.4 193.9 315.3 208.6 315.3H233.5" stroke="#272262" stroke-width="2.16" stroke-miterlimit="4.32" stroke-linecap="round" stroke-linejoin="round"/>
<path d="M333.6 315.2C333.6 291.5 314.3 272.2 290.6 272.2C266.9 272.2 247.6 291.5 247.6 315.2C247.6 338.9 266.8 358.2 290.6 358.2C314.4 358.2 333.6 338.9 333.6 315.2Z" stroke="#272262" stroke-width="2.16" stroke-miterlimit="4.32" stroke-linecap="round" stroke-linejoin="round"/>
<path d="M347.8 315.2C347.8 283.6 322.2 258 290.6 258C259 258 233.4 283.6 233.4 315.2" stroke="#272262" stroke-width="2.16" stroke-miterlimit="4.32" stroke-linecap="round" stroke-linejoin="round"/>
<path d="M232.8 221.7C232.8 221.7 199.6 191.2 224.8 151.3C250.1 111.4 248.6 86.3 228.7 65.3" stroke="#272262" stroke-width="2.16" stroke-miterlimit="4.32" stroke-linecap="round" stroke-linejoin="round"/>
<path d="M276.2 150.5C276.2 150.5 256.5 128.6 281.8 85.5C307 42.3 265.2 18 265.2 18" stroke="#272262" stroke-width="2.16" stroke-miterlimit="4.32" stroke-linecap="round" stroke-linejoin="round"/>
<path d="M191.4 265.5H230.8L241.1 249.8" stroke="#272262" stroke-width="2.16" stroke-miterlimit="4.32" stroke-linecap="round" stroke-linejoin="round"/>
<path fill-rule="evenodd" clip-rule="evenodd" d="M310.6 315.2C310.6 304.2 301.7 295.2 290.6 295.2C279.6 295.2 270.6 304.1 270.6 315.2C270.6 326.2 279.5 335.2 290.6 335.2C301.6 335.2 310.6 326.2 310.6 315.2Z" fill="white"/>
<path d="M243.8 358.3L371.2 358.6" stroke="#272262" stroke-width="2.16" stroke-miterlimit="4.32" stroke-linecap="round" stroke-linejoin="round"/>
<path fill-rule="evenodd" clip-rule="evenodd" d="M53.5 -1.16602e-06C45.3 0.399999 38.8 6.8 38 14.8C33.8 11.9 28.6 10.3 23.1 10.6C9.6 11.3 -0.699996 22.8 3.80725e-06 36.2C0.700004 49.6 12.7 58.6 26.1 57.9C32.5 57.6 88.1 57.8 94.3 57.4C100.5 57.1 105.3 51.7 105 45.5C104.7 39.3 99.3 34.5 93.1 34.8C92.7 34.8 92.4 35 92 35.1C92.6 33.2 92.9 31.2 92.8 29C92.3 19.9 84.5 12.8 75.4 13.3C73.7 13.4 72.2 13.8 70.7 14.3C69.6 5.9 62.2 -0.400001 53.5 -1.16602e-06Z" fill="#ECF3FF"/>
</svg>
