<svg width="19" height="19" viewBox="0 0 19 19" fill="none" xmlns="http://www.w3.org/2000/svg">
<path d="M13.8343 14.9178H5.06552L3.91306 17.7401C3.58736 18.496 2.86081 19 2.03404 19C0.555882 19 -0.421207 17.4881 0.180078 16.1273L6.694 1.41114C7.0698 0.554377 7.92163 0 8.84861 0H10.1013C11.0283 0 11.8801 0.554377 12.2559 1.41114L18.8199 16.1021C19.4212 17.4629 18.4441 18.9748 16.966 18.9748H16.8657C16.039 18.9748 15.3124 18.4708 14.9867 17.7149L13.8343 14.9178ZM12.2058 10.9867L9.85075 5.26658C9.70043 4.91379 9.19936 4.91379 9.07409 5.26658L6.71906 10.9867C6.59379 11.2639 6.81927 11.5915 7.11991 11.5915H11.8049C12.1056 11.5663 12.3311 11.2639 12.2058 10.9867Z" fill="url(#paint0_linear)"/>
<defs>
<linearGradient id="paint0_linear" x1="9.49406" y1="18.9856" x2="9.49406" y2="-0.00997829" gradientUnits="userSpaceOnUse">
<stop stop-color="#F7941D"/>
<stop offset="1" stop-color="#EF4136"/>
</linearGradient>
</defs>
</svg>
