<svg width="80" height="78" viewBox="0 0 80 78" fill="none" xmlns="http://www.w3.org/2000/svg">
<path d="M56.1519 57.6694H15.8267C13.4418 57.6694 11.057 55.9349 10.1898 53.5501L1.51771 26.233C0.216901 21.897 2.60173 18.4282 7.15457 18.4282H56.5855" stroke="#652EFE" stroke-width="2" stroke-miterlimit="4.32" stroke-linecap="round" stroke-linejoin="round"/>
<path d="M24.0651 57.6693L19.2954 18.645" stroke="#652EFE" stroke-width="2" stroke-miterlimit="4.32" stroke-linecap="round" stroke-linejoin="round"/>
<path d="M38.5908 57.6694L43.1437 18.4282" stroke="#652EFE" stroke-width="2" stroke-miterlimit="4.32" stroke-linecap="round" stroke-linejoin="round"/>
<path d="M78.6994 1.08398H73.4961C71.7617 1.08398 70.0273 2.3848 69.5937 4.11921L55.0679 62.6558C54.6343 64.3902 52.8999 65.691 51.1655 65.691H12.5747" stroke="#652EFE" stroke-width="2" stroke-miterlimit="4.32" stroke-linecap="round" stroke-linejoin="round"/>
<path d="M14.5259 71.5447C14.5259 68.943 16.6939 66.775 19.2955 66.775C21.8972 66.775 24.0652 68.943 24.0652 71.5447C24.0652 74.1463 21.8972 76.3143 19.2955 76.3143C16.6939 76.3143 14.5259 74.1463 14.5259 71.5447Z" stroke="#F7941D" stroke-width="2" stroke-miterlimit="4.32" stroke-linecap="round" stroke-linejoin="round"/>
<path d="M42.4932 71.5447C42.4932 68.943 44.6612 66.775 47.2628 66.775C49.8644 66.775 52.0325 68.943 52.0325 71.5447C52.0325 74.1463 49.8644 76.3143 47.2628 76.3143C44.6612 76.3143 42.4932 74.1463 42.4932 71.5447Z" stroke="#F7941D" stroke-width="2" stroke-miterlimit="4.32" stroke-linecap="round" stroke-linejoin="round"/>
<path d="M6.07056 38.1572H54.2006" stroke="#652EFE" stroke-width="2" stroke-miterlimit="4.32" stroke-linecap="round" stroke-linejoin="round"/>
</svg>
