<svg width="80" height="76" viewBox="0 0 80 76" fill="none" xmlns="http://www.w3.org/2000/svg">
<path d="M8.70005 43.3C-1.19995 34.1 -1.89995 18.7 7.30005 8.70001C16.4 -1.19999 31.9001 -1.89999 41.9001 7.20001C51.8001 16.3 52.5001 31.8 43.4001 41.8C34.1001 51.8 18.7 52.4 8.70005 43.3Z" stroke="#652EFE" stroke-width="1.62" stroke-miterlimit="4.32" stroke-linecap="round" stroke-linejoin="round"/>
<path d="M11.5001 40.3C3.20007 32.7 2.60007 19.7 10.3001 11.4C17.9001 3.10001 30.9001 2.50001 39.2001 10.2C47.5001 17.8 48.1001 30.8 40.4001 39.1C32.7001 47.4 19.8001 47.9 11.5001 40.3Z" stroke="#652EFE" stroke-width="1.62" stroke-miterlimit="4.32" stroke-linecap="round" stroke-linejoin="round"/>
<path d="M46.4001 41.7L49.1 44.2L46.1 47.4L43.3 45.1" stroke="#652EFE" stroke-width="1.62" stroke-miterlimit="4.32" stroke-linecap="round" stroke-linejoin="round"/>
<path d="M44.8 48.8L50.4001 42.7L77 67.2C78.9 68.9 79.2001 71.6 77.8001 73.1L77.3001 73.6C75.9001 75.1 73.3 75 71.5 73.3L44.8 48.8Z" stroke="#F7941D" stroke-width="1.62" stroke-miterlimit="4.32" stroke-linecap="round" stroke-linejoin="round"/>
<path fill-rule="evenodd" clip-rule="evenodd" d="M23.1 35.6C23.1 36.2 23.3001 36.7 23.7001 37.1C24.1001 37.5 24.6001 37.7 25.2001 37.7C25.8001 37.7 26.3001 37.5 26.7001 37.1C27.1 36.7 27.3 36.2 27.3 35.6C27.3 35 27.1 34.5 26.7001 34.1C26.3001 33.7 25.8001 33.5 25.2001 33.5C24.6001 33.5 24.1001 33.7 23.7001 34.1C23.3001 34.5 23.1 35 23.1 35.6ZM17.8 19.9H20.9C20.9 19.3 21.0001 18.7 21.2001 18.2C21.4001 17.7 21.6 17.2 22 16.8C22.4 16.4 22.8 16.1 23.3 15.9C23.8 15.7 24.5001 15.6 25.2001 15.6C25.9001 15.6 26.6 15.7 27.2001 16C27.8001 16.2 28.3001 16.6 28.7001 17.2C29.1 17.7 29.3 18.4 29.3 19.3C29.3 20.2 29.1 21 28.6 21.6C28.1 22.2 27.4001 22.8 26.6 23.5C26 24 25.4 24.5 24.9 25C24.4 25.5 23.9001 26.1 23.6 26.8C23.3 27.5 23.1 28.2 23.1 29.1V30.6H26.3V29.5C26.3 28.8 26.4001 28.2 26.6 27.8C26.8 27.4 27.1 26.9 27.5 26.6C27.9 26.2 28.5001 25.7 29.2001 25.2C29.8001 24.7 30.3 24.2 30.9 23.7C31.4 23.2 31.9001 22.6 32.2001 21.9C32.5001 21.2 32.7001 20.3 32.7001 19.3C32.7001 17.9 32.3 16.7 31.6 15.8C30.9001 14.9 30 14.2 28.9 13.7C27.8 13.2 26.6 13 25.3 13C24.4 13 23.5001 13.1 22.6 13.4C21.7 13.6 20.9 14 20.1 14.6C19.4 15.1 18.8 15.9 18.3 16.8C18 17.4 17.8 18.6 17.8 19.9Z" fill="#F7941D"/>
<path d="M27.4 7.30002C31 7.80002 34.6 9.30002 37.5 12C39.5 13.8 40.9 15.9 41.9 18.2" stroke="#652EFE" stroke-width="1.62" stroke-miterlimit="4.32" stroke-linecap="round" stroke-linejoin="round"/>
<path d="M50.1001 49.7L62.7001 61.4" stroke="#F7941D" stroke-width="1.62" stroke-miterlimit="4.32" stroke-linecap="round" stroke-linejoin="round"/>
</svg>
