<?xml version="1.0" encoding="utf-8"?>
<!-- Generator: Adobe Illustrator 23.0.3, SVG Export Plug-In . SVG Version: 6.00 Build 0)  -->
<svg version="1.1" id="Слой_1" xmlns="http://www.w3.org/2000/svg" xmlns:xlink="http://www.w3.org/1999/xlink" x="0px" y="0px"
	 viewBox="0 0 44 56" style="enable-background:new 0 0 44 56;" xml:space="preserve">
<style type="text/css">
	.st0{fill:#652EFE;}
	.st1{fill:#FFFFFF;}
	.st2{fill:url(#SVGID_1_);}
</style>
<path class="st0" d="M22,0C9.8,0,0,10.1,0,22.6c0,11.3,13.7,26.2,19.5,31.9c1.4,1.4,3.7,1.4,5.1,0.1C30.4,49,44,34.7,44,22.6
	C44,10.1,34.2,0,22,0z"/>
<path class="st1" d="M25.5,27.7h-9.3l-1.2,3c-0.3,0.8-1.1,1.3-2,1.3c-1.6,0-2.6-1.6-2-3L18,13.5c0.4-0.9,1.3-1.5,2.3-1.5h1.3
	c1,0,1.9,0.6,2.3,1.5L30.8,29c0.6,1.4-0.4,3-2,3h-0.1c-0.9,0-1.6-0.5-2-1.3L25.5,27.7z M23.8,23.6l-2.5-6c-0.2-0.4-0.7-0.4-0.8,0
	l-2.5,6c-0.1,0.3,0.1,0.6,0.4,0.6h5C23.7,24.2,23.9,23.9,23.8,23.6z"/>
<linearGradient id="SVGID_1_" gradientUnits="userSpaceOnUse" x1="23.0474" y1="25.7776" x2="23.0474" y2="45.77" gradientTransform="matrix(1 0 0 -1 0 56.77)">
	<stop  offset="0" style="stop-color:#F7941D"/>
	<stop  offset="1" style="stop-color:#EF4136"/>
</linearGradient>
<path class="st2" d="M27.6,26.7h-9.3l-1.2,3c-0.3,0.8-1.1,1.3-2,1.3c-1.6,0-2.6-1.6-2-3l6.9-15.5c0.4-0.9,1.3-1.5,2.3-1.5h1.3
	c1,0,1.9,0.6,2.3,1.5l6.9,15.5c0.6,1.4-0.4,3-2,3h-0.1c-0.9,0-1.6-0.5-2-1.3L27.6,26.7z M25.9,22.6l-2.5-6c-0.2-0.4-0.7-0.4-0.8,0
	l-2.5,6c-0.1,0.3,0.1,0.6,0.4,0.6h5C25.8,23.2,26,22.9,25.9,22.6z"/>
</svg>
