<svg width="125" height="84" viewBox="0 0 125 84" fill="none" xmlns="http://www.w3.org/2000/svg">
<path d="M110.8 46.4V75.6C110.8 79.6 107.5 82.9 103.4 82.9H8.5001C4.4001 82.9 1.1001 79.6 1.1001 75.6V21.1C1.1001 17.1 4.4001 13.8 8.5001 13.8H78.8001" stroke="#652EFE" stroke-width="2.16" stroke-miterlimit="4.32" stroke-linecap="round" stroke-linejoin="round"/>
<path d="M1.30029 31.3L72.8003 31.4" stroke="#652EFE" stroke-width="2.16" stroke-miterlimit="4.32" stroke-linecap="round" stroke-linejoin="round"/>
<path d="M7.1001 42.6H72.9001V54.1H7.1001V42.6Z" stroke="#F7941D" stroke-width="2.16" stroke-miterlimit="4.32" stroke-linecap="round" stroke-linejoin="round"/>
<path d="M83.8999 21C83.8999 9.99998 92.7999 1.09998 103.8 1.09998C114.8 1.09998 123.7 9.99998 123.7 21C123.7 32 114.8 40.9 103.8 40.9C92.8999 41 83.8999 32 83.8999 21Z" fill="#EF4136" stroke="#EF4136" stroke-width="2.16" stroke-miterlimit="4.32" stroke-linecap="round" stroke-linejoin="round"/>
<path d="M95.2002 12.6L112.5 29.5" stroke="white" stroke-width="2.16" stroke-miterlimit="4.32" stroke-linecap="round" stroke-linejoin="round"/>
<path d="M112.5 12.6L95.2002 29.5" stroke="white" stroke-width="2.16" stroke-miterlimit="4.32" stroke-linecap="round" stroke-linejoin="round"/>
<path d="M83.3003 60.8H101.3V72.7H83.3003V60.8Z" stroke="#652EFE" stroke-width="2.16" stroke-miterlimit="4.32" stroke-linecap="round" stroke-linejoin="round"/>
<path d="M46.3999 67.7H58.2999" stroke="#652EFE" stroke-width="2.16" stroke-miterlimit="4.32" stroke-linecap="round" stroke-linejoin="round"/>
<path d="M9.6001 67.7H39.3001" stroke="#652EFE" stroke-width="2.16" stroke-miterlimit="4.32" stroke-linecap="round" stroke-linejoin="round"/>
</svg>
