<svg width="125" height="84" viewBox="0 0 125 84" fill="none" xmlns="http://www.w3.org/2000/svg">
<path d="M110.8 46.4V75.6C110.8 79.6 107.5 82.9 103.4 82.9H8.49961C4.39961 82.9 1.09961 79.6 1.09961 75.6V21.1C1.09961 17.1 4.39961 13.8 8.49961 13.8H78.7996" stroke="#652EFE" stroke-width="2.16" stroke-miterlimit="4.32" stroke-linecap="round" stroke-linejoin="round"/>
<path d="M1.2998 31.3L72.7998 31.4" stroke="#652EFE" stroke-width="2.16" stroke-miterlimit="4.32" stroke-linecap="round" stroke-linejoin="round"/>
<path d="M7.09961 42.6H72.8996V54.1H7.09961V42.6Z" stroke="#F7941D" stroke-width="2.16" stroke-miterlimit="4.32" stroke-linecap="round" stroke-linejoin="round"/>
<path d="M83.8994 21C83.8994 9.99998 92.7994 1.09998 103.799 1.09998C114.799 1.09998 123.699 9.99998 123.699 21C123.699 32 114.799 40.9 103.799 40.9C92.8994 41 83.8994 32 83.8994 21Z" fill="#299F34" stroke="#299F34" stroke-width="2.16" stroke-miterlimit="4.32" stroke-linecap="round" stroke-linejoin="round"/>
<path d="M83.2998 60.8H101.3V72.7H83.2998V60.8Z" stroke="#652EFE" stroke-width="2.16" stroke-miterlimit="4.32" stroke-linecap="round" stroke-linejoin="round"/>
<path d="M46.3994 67.7H58.2994" stroke="#652EFE" stroke-width="2.16" stroke-miterlimit="4.32" stroke-linecap="round" stroke-linejoin="round"/>
<path d="M9.59961 67.7H39.2996" stroke="#652EFE" stroke-width="2.16" stroke-miterlimit="4.32" stroke-linecap="round" stroke-linejoin="round"/>
<path d="M94.0996 23L104 31.3L113.6 10.1" stroke="white" stroke-width="2.16" stroke-miterlimit="4.32" stroke-linecap="round" stroke-linejoin="round"/>
</svg>
