<svg width="63" height="63" viewBox="0 0 63 63" fill="none" xmlns="http://www.w3.org/2000/svg">
<path d="M48.7757 11.2703C40.7321 11.2703 34.381 17.7919 34.381 25.8355C34.381 33.8791 40.9871 40.4007 49.0307 40.4007C49.1112 40.4007 49.2326 40.3898 49.313 40.3884C46.1327 42.921 42.1382 44.447 37.7659 44.447C35.7543 44.447 34.1355 46.0781 34.1355 48.0883C34.1355 50.0986 35.4297 51.7296 37.4413 51.7296C51.7188 51.7283 63 40.1129 63 25.8355C63 25.8327 63 25.83 63 25.8259C63 17.7864 56.8166 11.2703 48.7757 11.2703Z" fill="#D2DBE1"/>
<path d="M14.6607 11.2703C6.61708 11.2703 0.255028 17.7919 0.255028 25.8355C0.255028 33.8791 6.85574 40.4007 14.9007 40.4007C14.9812 40.4007 15.0998 40.3898 15.1803 40.3884C11.9999 42.921 8.00405 44.447 3.63176 44.447C1.62018 44.447 0 46.0781 0 48.0883C0 50.0986 1.31469 51.7296 3.32627 51.7296C17.6037 51.7283 28.9054 40.1129 28.9054 25.8355C28.9054 25.8327 28.9054 25.83 28.9054 25.8259C28.9054 17.7864 22.7015 11.2703 14.6607 11.2703Z" fill="#D2DBE1"/>
</svg>
