<svg width="147" height="145" viewBox="0 0 147 145" fill="none" xmlns="http://www.w3.org/2000/svg">
<path d="M34.8999 59.8L71.6999 74.3V143.5L12.3999 119.6V50.5L27.9999 57" stroke="#652EFE" stroke-width="1.62" stroke-miterlimit="4.32" stroke-linecap="round" stroke-linejoin="round"/>
<path d="M39.7998 38.8L12.2998 49.8" stroke="#652EFE" stroke-width="1.62" stroke-miterlimit="4.32" stroke-linecap="round" stroke-linejoin="round"/>
<path d="M99.8997 62.9L71.6997 74.3V143.5L131 119.6V88.6" stroke="#652EFE" stroke-width="1.62" stroke-miterlimit="4.32" stroke-linecap="round" stroke-linejoin="round"/>
<path d="M131 50.5L118.6 55.5" stroke="#652EFE" stroke-width="1.62" stroke-miterlimit="4.32" stroke-linecap="round" stroke-linejoin="round"/>
<path d="M106.9 40.2L131 49.9" stroke="#652EFE" stroke-width="1.62" stroke-miterlimit="4.32" stroke-linecap="round" stroke-linejoin="round"/>
<path d="M135.2 67.8L145.7 63L131 49.9" stroke="#652EFE" stroke-width="1.62" stroke-miterlimit="4.32" stroke-linecap="round" stroke-linejoin="round"/>
<path d="M71.8999 74.2L89.2999 88.7L116.1 76.5" stroke="#652EFE" stroke-width="1.62" stroke-miterlimit="4.32" stroke-linecap="round" stroke-linejoin="round"/>
<path d="M12.2998 50.1L0.799805 63.5L12.2998 59.7" stroke="#652EFE" stroke-width="1.62" stroke-miterlimit="4.32" stroke-linecap="round" stroke-linejoin="round"/>
<path d="M55.3996 55.7C42.0996 45.2 39.7996 25.9 50.1996 12.6C60.7996 -0.799995 80.0996 -3.1 93.3996 7.4C106.7 17.9 109 37.2 98.5996 50.5C88.0996 63.9 68.7996 66.2 55.3996 55.7Z" stroke="#652EFE" stroke-width="1.62" stroke-miterlimit="4.32" stroke-linecap="round" stroke-linejoin="round"/>
<path d="M58.5994 51.7C47.4994 42.9 45.4994 26.8 54.2994 15.7C63.0994 4.6 79.1994 2.6 90.2994 11.4C101.399 20.2 103.399 36.3 94.5994 47.4C85.7994 58.5 69.6994 60.5 58.5994 51.7Z" stroke="#652EFE" stroke-width="1.62" stroke-miterlimit="4.32" stroke-linecap="round" stroke-linejoin="round"/>
<path d="M102.5 50.1L106.1 52.9L102.7 57.2L98.9995 54.6" stroke="#652EFE" stroke-width="1.62" stroke-miterlimit="4.32" stroke-linecap="round" stroke-linejoin="round"/>
<path d="M101.1 59.2L107.6 51L143.2 79C145.7 81 146.4 84.3 144.7 86.4L144.1 87.1C142.5 89.1 139.2 89.2 136.8 87.3L101.1 59.2Z" stroke="#F7941D" stroke-width="1.62" stroke-miterlimit="4.32" stroke-linecap="round" stroke-linejoin="round"/>
<path fill-rule="evenodd" clip-rule="evenodd" d="M71.3997 44.5C71.3997 45.2 71.5997 45.9 72.1997 46.4C72.6997 46.9 73.3997 47.2 74.0997 47.2C74.7997 47.2 75.4997 47 75.9997 46.5C76.4997 46 76.7997 45.4 76.7997 44.6C76.7997 43.9 76.5997 43.2 75.9997 42.7C75.4997 42.2 74.7997 41.9 74.0997 41.9C73.3997 41.9 72.6997 42.1 72.1997 42.6C71.6997 43.2 71.4997 43.8 71.3997 44.5ZM65.1997 24.7L69.1997 24.8C69.1997 24 69.2997 23.3 69.5997 22.7C69.7997 22 70.1997 21.5 70.5997 21C71.0997 20.5 71.5997 20.1 72.2997 19.9C72.9997 19.6 73.7997 19.5 74.6997 19.5C75.5997 19.5 76.3997 19.7 77.1997 20C77.9997 20.3 78.5997 20.8 79.0997 21.5C79.5997 22.2 79.7997 23.1 79.7997 24.2C79.7997 25.4 79.3997 26.3 78.7997 27C78.1997 27.7 77.2997 28.4 76.1997 29.3C75.3997 29.9 74.6997 30.5 73.9997 31.1C73.2997 31.7 72.7997 32.5 72.2997 33.3C71.8997 34.1 71.6997 35.1 71.6997 36.2V38.1L75.6997 38.2V36.8C75.6997 35.9 75.8997 35.2 76.0997 34.7C76.2997 34.2 76.6997 33.6 77.2997 33.2C77.7997 32.7 78.5997 32.1 79.4997 31.4C80.1997 30.8 80.8997 30.2 81.5997 29.6C82.2997 29 82.8997 28.2 83.2997 27.3C83.7997 26.4 83.9997 25.3 83.9997 24.1C83.9997 22.3 83.5997 20.8 82.7997 19.7C81.8997 18.5 80.7997 17.6 79.3997 17C77.9997 16.4 76.4997 16.1 74.8997 16.1C73.7997 16.1 72.6997 16.2 71.4997 16.5C70.3997 16.8 69.2997 17.3 68.3997 17.9C67.3997 18.6 66.6997 19.5 66.0997 20.6C65.4997 21.6 65.1997 23 65.1997 24.7Z" fill="#F7941D"/>
<path d="M75.3994 8.90001C79.9994 9.10001 84.5994 10.7 88.4994 13.8C91.0994 15.9 93.1994 18.4 94.6994 21.2" stroke="#652EFE" stroke-width="1.62" stroke-miterlimit="4.32" stroke-linecap="round" stroke-linejoin="round"/>
<path d="M107.899 59.8L124.799 73.2" stroke="#F7941D" stroke-width="1.62" stroke-miterlimit="4.32" stroke-linecap="round" stroke-linejoin="round"/>
</svg>
