<svg width="24" height="25" viewBox="0 0 24 25" fill="none" xmlns="http://www.w3.org/2000/svg">
<g clip-path="url(#clip0)">
<path d="M12.7531 24.3265H11.2469C10.0286 24.3265 9.03745 23.3288 9.03745 22.1024V21.5894C8.51953 21.4229 8.01633 21.2126 7.53291 20.9608L7.17178 21.3243C6.29714 22.2059 4.89609 22.18 4.04686 21.324L2.98228 20.2523C2.13155 19.3969 2.10708 17.987 2.98256 17.1066L3.34341 16.7433C3.09323 16.2567 2.88441 15.7502 2.71889 15.2288H2.20936C0.991172 15.2288 0 14.231 0 13.0047V11.4883C0 10.262 0.991172 9.26425 2.20941 9.26425H2.71894C2.88445 8.74283 3.09328 8.23632 3.34345 7.74968L2.98233 7.38619C2.10736 6.50633 2.1315 5.09628 2.98261 4.24044L4.04728 3.16871C4.89848 2.31066 6.2992 2.28923 7.17216 3.169L7.53295 3.5322C8.01638 3.28041 8.51958 3.07014 9.0375 2.90352V2.39059C9.0375 1.16424 10.0286 0.166504 11.2469 0.166504H12.7531C13.9714 0.166504 14.9625 1.16424 14.9625 2.39059V2.90357C15.4804 3.07014 15.9836 3.28041 16.467 3.53225L16.8282 3.16871C17.7028 2.28716 19.1039 2.31302 19.9531 3.16904L21.0177 4.24067C21.8684 5.09613 21.8929 6.50605 21.0174 7.38643L20.6565 7.74968C20.9067 8.23632 21.1155 8.74278 21.2811 9.26425H21.7906C23.0088 9.26425 24 10.262 24 11.4883V13.0047C24 14.231 23.0088 15.2288 21.7906 15.2288H21.2811C21.1155 15.7502 20.9067 16.2567 20.6565 16.7433L21.0177 17.1069C21.8926 17.9867 21.8685 19.3968 21.0174 20.2526L19.9527 21.3243C19.1015 22.1824 17.7008 22.2038 16.8278 21.3241L16.467 20.9609C15.9836 21.2126 15.4804 21.4229 14.9625 21.5895V22.1025C14.9625 23.3288 13.9714 24.3265 12.7531 24.3265ZM7.76798 19.4742C8.43956 19.874 9.16238 20.1761 9.91631 20.372C10.2268 20.4526 10.4438 20.7345 10.4438 21.0573V22.1024C10.4438 22.5482 10.8041 22.9109 11.2469 22.9109H12.7531C13.196 22.9109 13.5563 22.5482 13.5563 22.1024V21.0573C13.5563 20.7345 13.7732 20.4526 14.0837 20.372C14.8377 20.1761 15.5605 19.874 16.2321 19.4742C16.5084 19.3097 16.8602 19.3545 17.0872 19.583L17.8226 20.3233C18.1396 20.6429 18.6488 20.6355 18.9581 20.3236L20.0234 19.2513C20.3319 18.941 20.3422 18.4284 20.0237 18.1081L19.288 17.3675C19.061 17.139 19.0166 16.7849 19.1799 16.5067C19.5771 15.8307 19.8771 15.1031 20.0717 14.3441C20.1518 14.0315 20.4319 13.8132 20.7525 13.8132H21.7906C22.2335 13.8132 22.5938 13.4505 22.5938 13.0047V11.4884C22.5938 11.0426 22.2335 10.6799 21.7906 10.6799H20.7525C20.4318 10.6799 20.1518 10.4615 20.0717 10.149C19.8771 9.39001 19.5771 8.66238 19.1799 7.98637C19.0166 7.70825 19.061 7.35406 19.288 7.12558L20.0234 6.38525C20.3413 6.0656 20.333 5.55315 20.0237 5.24213L18.9585 4.1698C18.6497 3.85855 18.1404 3.84944 17.8229 4.16951L17.0872 4.91012C16.8603 5.13865 16.5083 5.18338 16.2321 5.01889C15.5605 4.61907 14.8377 4.31702 14.0838 4.12115C13.7733 4.0405 13.5563 3.75861 13.5563 3.4358V2.39059C13.5563 1.94481 13.196 1.58213 12.7532 1.58213H11.247C10.8041 1.58213 10.4438 1.94481 10.4438 2.39059V3.4357C10.4438 3.75851 10.2269 4.04041 9.91636 4.12105C9.16242 4.31693 8.43961 4.61897 7.76803 5.01879C7.49166 5.18324 7.13986 5.13851 6.91289 4.91003L6.17752 4.1697C5.86045 3.85015 5.35125 3.85756 5.04202 4.16937L3.97669 5.24176C3.66816 5.55197 3.65784 6.06456 3.97641 6.38487L4.71211 7.12548C4.93908 7.35396 4.98352 7.70815 4.82016 7.98627C4.42298 8.66228 4.12298 9.38991 3.92841 10.1489C3.84825 10.4615 3.56822 10.6798 3.24759 10.6798H2.20941C1.76658 10.6799 1.40625 11.0426 1.40625 11.4883V13.0047C1.40625 13.4504 1.76658 13.8131 2.20941 13.8131H3.24755C3.56822 13.8131 3.8482 14.0315 3.92836 14.344C4.12294 15.103 4.42298 15.8307 4.82011 16.5067C4.98347 16.7848 4.93903 17.139 4.71206 17.3675L3.97664 18.1078C3.65873 18.4275 3.66703 18.9399 3.97636 19.2509L5.04159 20.3233C5.35036 20.6345 5.85961 20.6436 6.17714 20.3235L6.9128 19.5829C7.08005 19.4146 7.428 19.2718 7.76798 19.4742Z" fill="#652EFE"/>
<path d="M12 17.5031C9.12056 17.5031 6.77808 15.145 6.77808 12.2464C6.77808 9.34789 9.12056 6.98975 12 6.98975C14.8793 6.98975 17.2218 9.34789 17.2218 12.2464C17.2218 15.145 14.8793 17.5031 12 17.5031ZM12 8.40537C9.89597 8.40537 8.18433 10.1285 8.18433 12.2464C8.18433 14.3644 9.89601 16.0875 12 16.0875C14.1039 16.0875 15.8156 14.3644 15.8156 12.2464C15.8156 10.1285 14.1039 8.40537 12 8.40537Z" fill="#652EFE"/>
</g>
<defs>
<clipPath id="clip0">
<rect width="24" height="24.16" fill="white" transform="translate(0 0.166504)"/>
</clipPath>
</defs>
</svg>
