<svg width="151" height="141" viewBox="0 0 151 141" fill="none" xmlns="http://www.w3.org/2000/svg">
<path d="M100.6 96.8V131C100.6 135.9 96.9 139.9 92.3 139.9H9.10005C4.50005 139.9 0.800049 135.9 0.800049 131V9.7C0.800049 4.8 4.50005 0.800003 9.10005 0.800003H92.3C96.9 0.800003 100.6 4.8 100.6 9.7V35.8" stroke="#652EFE" stroke-width="1.7064" stroke-miterlimit="4.32" stroke-linecap="round" stroke-linejoin="round"/>
<path d="M18.6001 18.6H84.0001" stroke="#F7941D" stroke-width="1.7064" stroke-miterlimit="4.32" stroke-linecap="round" stroke-linejoin="round"/>
<path d="M18 70.4H50.2" stroke="#F7941D" stroke-width="1.7064" stroke-miterlimit="4.32" stroke-linecap="round" stroke-linejoin="round"/>
<path d="M41.5 85.9H61.3" stroke="#F7941D" stroke-width="1.7064" stroke-miterlimit="4.32" stroke-linecap="round" stroke-linejoin="round"/>
<path d="M18 85.9H32.9" stroke="#F7941D" stroke-width="1.7064" stroke-miterlimit="4.32" stroke-linecap="round" stroke-linejoin="round"/>
<path d="M18 101.5H73.1" stroke="#F7941D" stroke-width="1.7064" stroke-miterlimit="4.32" stroke-linecap="round" stroke-linejoin="round"/>
<path d="M18 55.9H57" stroke="#F7941D" stroke-width="1.7064" stroke-miterlimit="4.32" stroke-linecap="round" stroke-linejoin="round"/>
<path d="M57 117H75.7" stroke="#F7941D" stroke-width="1.7064" stroke-miterlimit="4.32" stroke-linecap="round" stroke-linejoin="round"/>
<path d="M18 117H42.7" stroke="#F7941D" stroke-width="1.7064" stroke-miterlimit="4.32" stroke-linecap="round" stroke-linejoin="round"/>
<path d="M30.9001 32.1H69.9001" stroke="#F7941D" stroke-width="1.7064" stroke-miterlimit="4.32" stroke-linecap="round" stroke-linejoin="round"/>
<path d="M71.5001 87.4C60.3001 77.1 59.6001 59.8 69.9001 48.6C80.2001 37.4 97.5001 36.7 108.7 47C119.9 57.3 120.6 74.6 110.3 85.8C100 96.9 82.6001 97.7 71.5001 87.4Z" stroke="#652EFE" stroke-width="1.7064" stroke-miterlimit="4.32" stroke-linecap="round" stroke-linejoin="round"/>
<path d="M74.5001 84.1C65.2001 75.5 64.6001 61.1 73.1001 51.7C81.7001 42.4 96.1001 41.8 105.5 50.3C114.8 58.9 115.4 73.3 106.9 82.7C98.4001 92.1 83.8001 92.6 74.5001 84.1Z" stroke="#652EFE" stroke-width="1.7064" stroke-miterlimit="4.32" stroke-linecap="round" stroke-linejoin="round"/>
<path d="M113.7 85.6L116.7 88.4L113.4 92L110.3 89.4" stroke="#652EFE" stroke-width="1.7064" stroke-miterlimit="4.32" stroke-linecap="round" stroke-linejoin="round"/>
<path d="M111.9 93.6L118.2 86.7L148 114.1C150.1 116 150.5 119 148.9 120.8L148.4 121.4C146.8 123.1 143.9 123 141.9 121.1L111.9 93.6Z" stroke="#F7941D" stroke-width="1.7064" stroke-miterlimit="4.32" stroke-linecap="round" stroke-linejoin="round"/>
<path d="M92.4001 47.1C96.5001 47.6 100.5 49.3 103.7 52.3C105.9 54.3 107.6 56.7 108.7 59.3" stroke="#652EFE" stroke-width="1.7064" stroke-miterlimit="4.32" stroke-linecap="round" stroke-linejoin="round"/>
<path d="M117.9 94.6L132 107.7" stroke="#F7941D" stroke-width="1.7064" stroke-miterlimit="4.32" stroke-linecap="round" stroke-linejoin="round"/>
</svg>
