<svg width="43" height="37" viewBox="0 0 43 37" fill="none" xmlns="http://www.w3.org/2000/svg">
<path d="M12.099 36.7412V34.6973C12.1232 34.3504 11.9964 34.01 11.751 33.7628C11.5056 33.5157 11.1653 33.3857 10.817 33.4062C10.3568 33.3761 9.91659 33.598 9.66827 33.9853C9.44188 33.6095 9.02734 33.3873 8.58793 33.4062C8.20534 33.3869 7.84112 33.5709 7.63067 33.8899V33.4879H6.91956V36.7412H7.6375V34.9391C7.60529 34.7134 7.67654 34.4852 7.83159 34.3175C7.98663 34.1498 8.20908 34.0603 8.4375 34.0738C8.9093 34.0738 9.14862 34.3804 9.14862 34.9323V36.7412H9.86656V34.9391C9.83691 34.7139 9.90905 34.4872 10.0635 34.3201C10.218 34.153 10.4389 34.0628 10.6666 34.0738C11.152 34.0738 11.3845 34.3804 11.3845 34.9323V36.7412H12.099ZM16.099 35.1163V33.4913H15.3811V33.8865C15.1365 33.5719 14.7545 33.3943 14.3555 33.4096C13.4114 33.4096 12.6461 34.1722 12.6461 35.1129C12.6461 36.0536 13.4114 36.8162 14.3555 36.8162C14.7545 36.8314 15.1365 36.6538 15.3811 36.3392V36.7344H16.0922L16.099 35.1163ZM13.4563 35.1163C13.4879 34.5817 13.9426 34.1703 14.4797 34.1904C15.0168 34.2105 15.4392 34.6546 15.4305 35.1901C15.4219 35.7256 14.9852 36.1559 14.4478 36.1587C14.1726 36.1651 13.9075 36.0557 13.7174 35.8573C13.5274 35.6589 13.4301 35.3898 13.4495 35.1163H13.4563ZM31.2922 33.413C31.5263 33.4124 31.7584 33.4563 31.976 33.5424C32.1836 33.6253 32.373 33.748 32.5332 33.9035C32.6914 34.0577 32.817 34.2418 32.9025 34.4452C33.0811 34.8819 33.0811 35.371 32.9025 35.8078C32.817 36.0112 32.6915 36.1954 32.5332 36.3495C32.373 36.505 32.1836 36.6277 31.976 36.7106C31.5252 36.8851 31.0251 36.8851 30.5743 36.7106C30.3675 36.6278 30.1793 36.505 30.0204 36.3495C29.8637 36.1948 29.7394 36.0107 29.6546 35.8078C29.4763 35.371 29.4763 34.882 29.6546 34.4452C29.7394 34.2423 29.8637 34.0582 30.0204 33.9035C30.1793 33.7479 30.3675 33.6252 30.5743 33.5424C30.7997 33.4493 31.0414 33.4018 31.2854 33.4027L31.2922 33.413ZM31.2922 34.0943C31.153 34.0924 31.0147 34.1179 30.8854 34.1692C30.7635 34.2179 30.653 34.291 30.5606 34.3838C30.4663 34.4816 30.393 34.5976 30.3452 34.7245C30.2408 34.9965 30.2408 35.2973 30.3452 35.5693C30.3929 35.6963 30.4662 35.8123 30.5606 35.91C30.6529 36.003 30.7635 36.076 30.8854 36.1246C31.1458 36.2262 31.4352 36.2262 31.6956 36.1246C31.8233 36.0776 31.9398 36.0045 32.0375 35.91C32.132 35.8124 32.2053 35.6964 32.2529 35.5693C32.3573 35.2973 32.3573 34.9965 32.2529 34.7245C32.2053 34.5974 32.132 34.4815 32.0375 34.3838C31.9398 34.2894 31.8233 34.2163 31.6956 34.1692C31.5667 34.1104 31.4272 34.078 31.2854 34.0738L31.2922 34.0943ZM19.9623 35.1163C19.9623 34.0943 19.3264 33.413 18.4136 33.413C17.4695 33.4261 16.7149 34.1994 16.7281 35.1401C16.7413 36.0808 17.5174 36.8327 18.4614 36.8196C18.9482 36.8361 19.424 36.6736 19.7982 36.3631L19.4563 35.8385C19.1863 36.0542 18.8519 36.1741 18.5059 36.1791C18.0171 36.221 17.5837 35.8676 17.5281 35.382H19.952C19.9623 35.2968 19.9623 35.2116 19.9623 35.1163ZM17.5315 34.8301C17.559 34.3807 17.9379 34.0332 18.3896 34.0432C18.6045 34.0386 18.8125 34.1193 18.9676 34.2676C19.1228 34.4158 19.2125 34.6194 19.217 34.8335L17.5315 34.8301ZM22.9537 34.3191C22.6415 34.14 22.2884 34.0438 21.9281 34.0398C21.5384 34.0398 21.3059 34.1829 21.3059 34.4213C21.3059 34.6598 21.552 34.7007 21.8597 34.7415L22.2016 34.7892C22.9127 34.8914 23.3435 35.1912 23.3435 35.7635C23.3435 36.3358 22.7965 36.8264 21.8563 36.8264C21.3524 36.8397 20.8575 36.6917 20.4443 36.404L20.7862 35.8521C21.1 36.084 21.4829 36.204 21.8734 36.1927C22.3589 36.1927 22.6187 36.0497 22.6187 35.7976C22.6187 35.6136 22.4341 35.5114 22.0443 35.4569L21.7025 35.4092C20.9708 35.307 20.5743 34.98 20.5743 34.4486C20.5743 33.8013 21.1076 33.4062 21.9418 33.4062C22.4087 33.3906 22.8702 33.5088 23.2717 33.7468L22.9537 34.3191ZM26.3725 34.1352H25.2136V35.6034C25.2136 35.9441 25.3298 36.1485 25.6854 36.1485C25.9073 36.1411 26.1237 36.0778 26.3144 35.9645L26.5196 36.5709C26.253 36.7366 25.9449 36.824 25.6307 36.823C24.7896 36.823 24.4956 36.3733 24.4956 35.617V34.1352H23.8324V33.4879H24.4956V32.5H25.2136V33.4879H26.3725V34.1352ZM28.8307 33.4062C29.0032 33.4068 29.1743 33.4368 29.3367 33.4947L29.1178 34.176C28.9765 34.1199 28.8255 34.0921 28.6734 34.0943C28.2084 34.0943 27.9896 34.3941 27.9896 34.9323V36.7548H27.2785V33.5015H27.9828V33.8967C28.1606 33.5924 28.4912 33.4094 28.8443 33.4198L28.8307 33.4062ZM33.7469 36.2677C33.7914 36.2672 33.8355 36.2752 33.8768 36.2915C33.9161 36.3075 33.952 36.3306 33.9828 36.3597C34.0128 36.389 34.0372 36.4237 34.0546 36.4619C34.0896 36.5423 34.0896 36.6335 34.0546 36.714C34.0372 36.7521 34.0128 36.7868 33.9828 36.8162C33.952 36.8452 33.9161 36.8683 33.8768 36.8843C33.8359 36.9023 33.7916 36.9116 33.7469 36.9115C33.6146 36.9105 33.4948 36.8336 33.4392 36.714C33.4046 36.6335 33.4046 36.5424 33.4392 36.4619C33.4566 36.4237 33.481 36.389 33.511 36.3597C33.5418 36.3306 33.5777 36.3075 33.617 36.2915C33.653 36.2773 33.6911 36.2692 33.7298 36.2677H33.7469ZM33.7469 36.8434C33.781 36.8436 33.8148 36.8366 33.8461 36.823C33.8755 36.8099 33.9021 36.7914 33.9247 36.7685C33.9836 36.7094 34.0094 36.6252 33.9936 36.5434C33.9779 36.4616 33.9227 36.3929 33.8461 36.3597C33.8148 36.3461 33.781 36.3391 33.7469 36.3392C33.7128 36.3394 33.6791 36.3464 33.6478 36.3597C33.617 36.3722 33.5892 36.3908 33.5657 36.4142C33.4771 36.5106 33.4771 36.6585 33.5657 36.7548C33.6135 36.8031 33.6789 36.8301 33.7469 36.8298V36.8434ZM33.7674 36.438C33.7993 36.4365 33.8308 36.4461 33.8563 36.4653C33.8775 36.4828 33.889 36.5094 33.8871 36.5368C33.8881 36.5597 33.8794 36.5819 33.8631 36.5981C33.8433 36.6161 33.8181 36.6269 33.7914 36.6288L33.8905 36.7412H33.8119L33.7196 36.6288H33.6888V36.7412H33.6238V36.4278L33.7674 36.438ZM33.6922 36.4959V36.5777H33.7674C33.7808 36.5817 33.7951 36.5817 33.8084 36.5777C33.8133 36.5681 33.8133 36.5567 33.8084 36.547C33.8133 36.5374 33.8133 36.526 33.8084 36.5164C33.7951 36.5124 33.7808 36.5124 33.7674 36.5164L33.6922 36.4959Z" fill="white"/>
<ellipse cx="12.5" cy="15.1157" rx="12.5" ry="13.1157" fill="white"/>
<path d="M28.5 29.2314C36.0006 29.2314 42 22.8658 42 15.1157C42 7.36568 36.0006 1 28.5 1C20.9994 1 15 7.36568 15 15.1157C15 22.8658 20.9994 29.2314 28.5 29.2314Z" fill="white" stroke="#652EFE" stroke-width="2"/>
</svg>
