<svg width="46" height="15" viewBox="0 0 46 15" fill="none" xmlns="http://www.w3.org/2000/svg">
<path d="M18.3861 0.148651H22.0828L19.7703 13.3023H16.075L18.3861 0.148651Z" fill="white"/>
<path d="M33.1965 0.573825C32.4641 0.307322 31.3165 0.0213318 29.8833 0.0213318C26.2304 0.0213318 23.6574 1.80555 23.6354 4.36252C23.6149 6.25271 25.4724 7.30709 26.8746 7.93639C28.3136 8.58115 28.7973 8.99239 28.7904 9.56814C28.7813 10.4499 27.6413 10.8527 26.5788 10.8527C25.0992 10.8527 24.3131 10.6534 23.099 10.1622L22.6226 9.95318L22.1038 12.8979C22.9671 13.2651 24.5639 13.5833 26.2217 13.5998C30.1077 13.5998 32.6303 11.836 32.659 9.10549C32.6729 7.60901 31.688 6.47022 29.5553 5.53141C28.2631 4.92288 27.4718 4.51681 27.4801 3.90061C27.4801 3.35383 28.15 2.76915 29.5972 2.76915C30.8061 2.75094 31.6817 3.00662 32.3641 3.27313L32.6953 3.42492L33.1965 0.573825Z" fill="white"/>
<path d="M42.6761 0.262436H39.8196C38.9347 0.262436 38.2724 0.496684 37.8838 1.35331L32.3936 13.4086H36.2755C36.2755 13.4086 36.9102 11.7877 37.0537 11.4318C37.4779 11.4318 41.2491 11.4375 41.7881 11.4375C41.8988 11.898 42.2379 13.4086 42.2379 13.4086H45.6682L42.6761 0.262436ZM38.1176 8.74125C38.4233 7.9833 39.5905 5.06393 39.5905 5.06393C39.5686 5.09894 39.8939 4.30232 40.0806 3.80842L40.3305 4.94257C40.3305 4.94257 41.0383 8.08262 41.1863 8.74108L38.1176 8.74125Z" fill="white"/>
<path d="M12.9936 0.260178L9.37436 9.23063L8.98874 7.40765C8.31497 5.3062 6.21574 3.02936 3.8689 1.8895L7.17827 13.3938L11.0896 13.3895L16.9095 0.260178H12.9936Z" fill="white"/>
<path d="M6.01654 0.252075H0.0554815L0.00830078 0.525768C4.64594 1.61463 7.71463 4.24599 8.98844 7.40768L7.69225 1.36264C7.46847 0.529666 6.81944 0.281104 6.01654 0.252075Z" fill="white"/>
</svg>
