<svg width="29" height="29" viewBox="0 0 29 29" fill="none" xmlns="http://www.w3.org/2000/svg">
<path d="M21.0432 22.5603H7.70512L5.95212 26.8285C5.4567 27.9718 4.35155 28.7339 3.09396 28.7339C0.845547 28.7339 -0.640694 26.4474 0.273915 24.3896L10.1822 2.13409C10.7538 0.838392 12.0495 0 13.4595 0H15.365C16.775 0 18.0707 0.838392 18.6423 2.13409L28.6268 24.3514C29.5414 26.4093 28.0552 28.6958 25.8068 28.6958H25.6543C24.3967 28.6958 23.2916 27.9337 22.7962 26.7904L21.0432 22.5603ZM18.5661 16.6154L14.9839 7.96471C14.7552 7.43119 13.9931 7.43119 13.8025 7.96471L10.2203 16.6154C10.0297 17.0346 10.3727 17.53 10.83 17.53H17.9564C18.4137 17.4919 18.7566 17.0346 18.5661 16.6154Z" fill="white"/>
</svg>
