<svg width="55" height="42" viewBox="0 0 55 42" fill="none" xmlns="http://www.w3.org/2000/svg">
<path d="M16.6364 41.6492V38.88C16.6697 38.4101 16.4954 37.9488 16.1579 37.614C15.8205 37.2791 15.3526 37.1031 14.8736 37.1308C14.2408 37.09 13.6356 37.3907 13.2941 37.9154C12.9828 37.4063 12.4129 37.1053 11.8087 37.1308C11.2826 37.1046 10.7818 37.354 10.4924 37.7861V37.2415H9.51465V41.6492H10.5018V39.2077C10.4575 38.9018 10.5555 38.5926 10.7687 38.3654C10.9819 38.1382 11.2877 38.0171 11.6018 38.0354C12.2505 38.0354 12.5796 38.4508 12.5796 39.1984V41.6492H13.5668V39.2077C13.526 38.9025 13.6252 38.5953 13.8376 38.369C14.05 38.1426 14.3537 38.0204 14.6668 38.0354C15.3343 38.0354 15.654 38.4508 15.654 39.1984V41.6492H16.6364ZM22.1364 39.4477V37.2461H21.1493V37.7815C20.8129 37.3553 20.2877 37.1147 19.739 37.1354C18.4409 37.1354 17.3886 38.1686 17.3886 39.4431C17.3886 40.7176 18.4409 41.7508 19.739 41.7508C20.2877 41.7714 20.8129 41.5308 21.1493 41.1046V41.64H22.127L22.1364 39.4477ZM18.5027 39.4477C18.5462 38.7234 19.1714 38.166 19.9098 38.1933C20.6483 38.2205 21.2292 38.8222 21.2172 39.5477C21.2053 40.2732 20.6049 40.8562 19.8659 40.86C19.4876 40.8687 19.123 40.7204 18.8618 40.4516C18.6005 40.1828 18.4667 39.8183 18.4933 39.4477H18.5027ZM43.027 37.14C43.3489 37.1392 43.668 37.1987 43.9672 37.3154C44.2528 37.4276 44.5131 37.5939 44.7335 37.8046C44.951 38.0134 45.1236 38.263 45.2411 38.5384C45.4867 39.1302 45.4867 39.7928 45.2411 40.3846C45.1237 40.6601 44.951 40.9097 44.7335 41.1184C44.5131 41.3292 44.2528 41.4954 43.9672 41.6077C43.3473 41.8442 42.6597 41.8442 42.0399 41.6077C41.7556 41.4955 41.4968 41.3292 41.2783 41.1184C41.0629 40.9089 40.8919 40.6595 40.7753 40.3846C40.5302 39.7927 40.5302 39.1303 40.7753 38.5384C40.8919 38.2636 41.0629 38.0142 41.2783 37.8046C41.4968 37.5938 41.7556 37.4275 42.0399 37.3154C42.3498 37.1892 42.6822 37.1249 43.0176 37.1261L43.027 37.14ZM43.027 38.0631C42.8356 38.0605 42.6455 38.095 42.4676 38.1646C42.3001 38.2305 42.1481 38.3295 42.0211 38.4554C41.8914 38.5879 41.7907 38.7449 41.7249 38.9169C41.5813 39.2854 41.5813 39.693 41.7249 40.0615C41.7905 40.2336 41.8913 40.3906 42.0211 40.5231C42.148 40.649 42.3 40.748 42.4676 40.8138C42.8258 40.9515 43.2236 40.9515 43.5817 40.8138C43.7573 40.7501 43.9175 40.6511 44.0518 40.5231C44.1818 40.3908 44.2826 40.2337 44.348 40.0615C44.4916 39.693 44.4916 39.2854 44.348 38.9169C44.2826 38.7447 44.1818 38.5876 44.0518 38.4554C43.9175 38.3274 43.7573 38.2283 43.5817 38.1646C43.4044 38.0849 43.2126 38.041 43.0176 38.0354L43.027 38.0631ZM27.4484 39.4477C27.4484 38.0631 26.5741 37.14 25.3189 37.14C24.0208 37.1578 22.9832 38.2055 23.0014 39.48C23.0196 40.7545 24.0866 41.7732 25.3847 41.7554C26.054 41.7778 26.7082 41.5577 27.2228 41.1369L26.7527 40.4261C26.3815 40.7184 25.9216 40.8808 25.4458 40.8877C24.7738 40.9444 24.1778 40.4657 24.1014 39.8077H27.4343C27.4484 39.6923 27.4484 39.5769 27.4484 39.4477ZM24.1061 39.06C24.1438 38.4511 24.6649 37.9803 25.286 37.9938C25.5815 37.9876 25.8674 38.097 26.0808 38.2978C26.2941 38.4986 26.4175 38.7745 26.4236 39.0646L24.1061 39.06ZM31.5617 38.3677C31.1324 38.125 30.6467 37.9947 30.1514 37.9892C29.6155 37.9892 29.2958 38.1831 29.2958 38.5061C29.2958 38.8292 29.6343 38.8846 30.0574 38.94L30.5275 39.0046C31.5052 39.1431 32.0976 39.5492 32.0976 40.3246C32.0976 41.1 31.3454 41.7646 30.0527 41.7646C29.3598 41.7827 28.6793 41.5821 28.1112 41.1923L28.5813 40.4446C29.0127 40.7588 29.5393 40.9214 30.0762 40.9061C30.7437 40.9061 31.101 40.7123 31.101 40.3708C31.101 40.1215 30.8471 39.9831 30.3112 39.9092L29.8411 39.8446C28.8352 39.7061 28.2899 39.2631 28.2899 38.5431C28.2899 37.6661 29.0232 37.1308 30.1702 37.1308C30.8122 37.1096 31.4468 37.2698 31.9988 37.5923L31.5617 38.3677ZM36.2625 38.1184H34.6689V40.1077C34.6689 40.5692 34.8287 40.8461 35.3176 40.8461C35.6228 40.8362 35.9204 40.7505 36.1826 40.5969L36.4646 41.4184C36.0981 41.643 35.6745 41.7614 35.2424 41.76C34.086 41.76 33.6817 41.1508 33.6817 40.1261V38.1184H32.7698V37.2415H33.6817V35.9031H34.6689V37.2415H36.2625V38.1184ZM39.6424 37.1308C39.8796 37.1317 40.1149 37.1722 40.3382 37.2508L40.0373 38.1738C39.843 38.0978 39.6353 38.0601 39.4262 38.0631C38.7869 38.0631 38.486 38.4692 38.486 39.1984V41.6677H37.5082V37.26H38.4766V37.7954C38.721 37.3831 39.1756 37.1352 39.6612 37.1492L39.6424 37.1308ZM46.4023 41.0077C46.4634 41.0069 46.524 41.0179 46.5809 41.04C46.6349 41.0616 46.6843 41.0929 46.7266 41.1323C46.7679 41.1721 46.8014 41.219 46.8253 41.2708C46.8734 41.3797 46.8734 41.5033 46.8253 41.6123C46.8014 41.664 46.7679 41.711 46.7266 41.7508C46.6843 41.7901 46.6349 41.8214 46.5809 41.8431C46.5246 41.8674 46.4638 41.88 46.4023 41.88C46.2204 41.8786 46.0556 41.7744 45.9792 41.6123C45.9316 41.5032 45.9316 41.3798 45.9792 41.2708C46.0031 41.219 46.0366 41.1721 46.0779 41.1323C46.1202 41.0929 46.1696 41.0616 46.2236 41.04C46.2731 41.0207 46.3256 41.0097 46.3787 41.0077H46.4023ZM46.4023 41.7877C46.4492 41.788 46.4956 41.7785 46.5386 41.76C46.579 41.7423 46.6157 41.7172 46.6467 41.6861C46.7276 41.6061 46.7631 41.492 46.7415 41.3812C46.7199 41.2704 46.6439 41.1773 46.5386 41.1323C46.4956 41.1139 46.4492 41.1045 46.4023 41.1046C46.3554 41.1048 46.309 41.1143 46.2659 41.1323C46.2237 41.1493 46.1853 41.1744 46.1531 41.2061C46.0312 41.3367 46.0312 41.5371 46.1531 41.6677C46.2189 41.733 46.3087 41.7696 46.4023 41.7692V41.7877ZM46.4305 41.2384C46.4743 41.2364 46.5176 41.2494 46.5527 41.2754C46.5819 41.2991 46.5976 41.3352 46.595 41.3723C46.5964 41.4033 46.5844 41.4334 46.5621 41.4554C46.5348 41.4797 46.5001 41.4943 46.4634 41.4969L46.5997 41.6492H46.4916L46.3646 41.4969H46.3223V41.6492H46.233V41.2246L46.4305 41.2384ZM46.327 41.3169V41.4277H46.4305C46.4489 41.4331 46.4685 41.4331 46.4869 41.4277C46.4936 41.4146 46.4936 41.3992 46.4869 41.3861C46.4936 41.3731 46.4936 41.3577 46.4869 41.3446C46.4685 41.3392 46.4489 41.3392 46.4305 41.3446L46.327 41.3169Z" fill="black"/>
<path d="M34.8533 3.61368H20.0449V29.741H34.8533V3.61368Z" fill="#7673C0"/>
<path d="M20.9847 16.6801C20.9791 11.5808 23.3628 6.76232 27.4483 3.61392C20.5098 -1.7399 10.5457 -0.960074 4.55866 5.40536C-1.42841 11.7708 -1.42841 21.5847 4.55866 27.9502C10.5457 34.3156 20.5098 35.0954 27.4483 29.7416C23.3641 26.5942 20.9806 21.7778 20.9847 16.6801Z" fill="#EB001B"/>
<path d="M54.826 16.68C54.8245 23.0398 51.1254 28.8408 45.2992 31.6204C39.473 34.4 32.5419 33.6705 27.4482 29.7415C31.5307 26.5915 33.9144 21.7757 33.9144 16.6777C33.9144 11.5797 31.5307 6.76392 27.4482 3.61384C32.5419 -0.317959 39.475 -1.04915 45.3029 1.73081C51.1309 4.51077 54.8307 10.3138 54.8307 16.6754L54.826 16.68Z" fill="#00A1DF"/>
</svg>
