<svg width="54" height="42" viewBox="0 0 54 42" fill="none" xmlns="http://www.w3.org/2000/svg">
<path d="M9.45151 41.6295V38.7865C9.48416 38.3028 9.3125 37.828 8.98033 37.4834C8.64816 37.1387 8.18759 36.9574 7.71613 36.9858C7.09482 36.944 6.50059 37.2527 6.16536 37.7914C5.85973 37.2688 5.3001 36.9597 4.7069 36.9858C4.1904 36.959 3.6987 37.2151 3.41459 37.6587V37.0996H2.45459V41.6295H3.42382V39.1371C3.38208 38.8235 3.47887 38.5071 3.68779 38.2742C3.8967 38.0414 4.19593 37.9165 4.50382 37.9335C5.14074 37.9335 5.46382 38.36 5.46382 39.1276V41.6485H6.43305V39.1371C6.39302 38.8238 6.49041 38.5084 6.69894 38.2761C6.90746 38.0437 7.20565 37.9182 7.51305 37.9335C8.16844 37.9335 8.48228 38.36 8.48228 39.1276V41.6485L9.45151 41.6295ZM23.7915 37.0996H22.2131V35.7254H21.2438V37.0996H20.3669V37.9999H21.2623V40.0848C21.2623 41.1367 21.6592 41.7622 22.7946 41.7622C23.2188 41.7637 23.6347 41.6421 23.9946 41.4116L23.7177 40.5681C23.4602 40.7258 23.168 40.8138 22.8684 40.824C22.4069 40.824 22.2315 40.5207 22.2315 40.0658V37.9999H23.8007L23.7915 37.0996ZM31.9792 36.9858C31.5024 36.9715 31.0561 37.226 30.8161 37.6492V37.0996H29.8654V41.6295H30.8254V39.0897C30.8254 38.341 31.1392 37.9241 31.7484 37.9241C31.9538 37.9212 32.1576 37.9598 32.3484 38.0378L32.6438 37.0901C32.4246 37.0096 32.1936 36.9679 31.9607 36.9669L31.9792 36.9858ZM19.6007 37.4597C19.0573 37.128 18.4326 36.9635 17.8007 36.9858C16.6838 36.9858 15.9546 37.5355 15.9546 38.4358C15.9546 39.175 16.49 39.6299 17.4777 39.7721L17.9392 39.8384C18.4654 39.9142 18.7146 40.0564 18.7146 40.3122C18.7146 40.6629 18.3638 40.8619 17.7084 40.8619C17.1813 40.8776 16.6643 40.7107 16.2407 40.3881L15.7792 41.1557C16.3384 41.5566 17.0082 41.7625 17.69 41.7433C18.9638 41.7433 19.7023 41.1273 19.7023 40.2649C19.7023 39.4025 19.1207 39.0518 18.1607 38.9097L17.6992 38.8433C17.2838 38.7865 16.9515 38.7012 16.9515 38.3979C16.9515 38.0946 17.2654 37.8672 17.7915 37.8672C18.2778 37.873 18.7546 38.0068 19.1761 38.2558L19.6007 37.4597ZM45.3131 36.9858C44.8363 36.9715 44.39 37.226 44.15 37.6492V37.0996H43.1992V41.6295H44.1592V39.0897C44.1592 38.341 44.4731 37.9241 45.0823 37.9241C45.2876 37.9212 45.4915 37.9598 45.6823 38.0378L45.9777 37.0901C45.7584 37.0096 45.5274 36.9679 45.2946 36.9669L45.3131 36.9858ZM32.9438 39.3551C32.9207 39.9988 33.1629 40.6226 33.6109 41.0736C34.0589 41.5245 34.6713 41.7607 35.2977 41.7243C35.8741 41.7544 36.4405 41.5617 36.8854 41.1841L36.4238 40.3881C36.092 40.6479 35.6873 40.7908 35.27 40.7956C34.5341 40.7344 33.9673 40.1035 33.9673 39.3456C33.9673 38.5877 34.5341 37.9568 35.27 37.8956C35.6873 37.9004 36.092 38.0433 36.4238 38.3031L36.8854 37.5071C36.4405 37.1295 35.8741 36.9368 35.2977 36.9669C34.6713 36.9305 34.0589 37.1667 33.6109 37.6176C33.1629 38.0686 32.9207 38.6924 32.9438 39.3361V39.3551ZM41.9346 39.3551V37.0996H40.9746V37.6492C40.6439 37.2123 40.1286 36.9654 39.59 36.9858C38.3155 36.9858 37.2823 38.0466 37.2823 39.3551C37.2823 40.6636 38.3155 41.7243 39.59 41.7243C40.1286 41.7447 40.6439 41.4978 40.9746 41.0609V41.6106H41.9346V39.3551ZM38.3623 39.3551C38.405 38.6115 39.0188 38.0393 39.7439 38.0672C40.4689 38.0951 41.0392 38.713 41.0275 39.4578C41.0158 40.2026 40.4263 40.8012 39.7008 40.805C39.3313 40.8098 38.9767 40.656 38.7225 40.3807C38.4684 40.1054 38.3378 39.7336 38.3623 39.3551ZM26.7777 36.9858C25.5032 37.0042 24.4844 38.0798 24.5023 39.3882C24.5201 40.6967 25.5678 41.7426 26.8423 41.7243C27.5063 41.7593 28.1593 41.5398 28.6746 41.1083L28.2131 40.3786C27.8486 40.6787 27.3971 40.8454 26.93 40.8524C26.2701 40.9107 25.685 40.4192 25.61 39.7436H28.8869C28.8869 39.6204 28.8869 39.4972 28.8869 39.3646C28.8869 37.943 28.0284 36.9953 26.7915 36.9953L26.7777 36.9858ZM26.7777 37.8672C27.0678 37.8608 27.3485 37.9731 27.558 38.1793C27.7674 38.3855 27.8885 38.6687 27.8946 38.9665H25.5869C25.6217 38.3339 26.1424 37.8456 26.7592 37.8672H26.7777ZM50.8284 39.3646V35.28H49.9054V37.6492C49.5746 37.2123 49.0594 36.9654 48.5208 36.9858C47.2462 36.9858 46.2131 38.0466 46.2131 39.3551C46.2131 40.6636 47.2462 41.7243 48.5208 41.7243C49.0594 41.7447 49.5746 41.4978 49.9054 41.0609V41.6106H50.8284V39.3646ZM52.43 40.9709C52.49 40.9701 52.5496 40.9814 52.6054 41.0041C52.6584 41.0263 52.7069 41.0584 52.7484 41.0988C52.789 41.1397 52.8219 41.1879 52.8454 41.241C52.8926 41.3528 52.8926 41.4798 52.8454 41.5916C52.8219 41.6447 52.789 41.6929 52.7484 41.7338C52.7069 41.7742 52.6584 41.8063 52.6054 41.8286C52.5501 41.8536 52.4904 41.8665 52.43 41.8665C52.2514 41.8651 52.0896 41.758 52.0146 41.5916C51.9679 41.4797 51.9679 41.3529 52.0146 41.241C52.0381 41.1879 52.071 41.1397 52.1115 41.0988C52.1531 41.0584 52.2016 41.0263 52.2546 41.0041C52.3147 40.9795 52.3792 40.9682 52.4438 40.9709H52.43ZM52.43 41.7717C52.476 41.772 52.5217 41.7623 52.5638 41.7433C52.6035 41.7251 52.6395 41.6993 52.67 41.6674C52.7897 41.5334 52.7897 41.3277 52.67 41.1936C52.6396 41.1616 52.6036 41.1359 52.5638 41.1178C52.5216 41.0989 52.476 41.0892 52.43 41.0894C52.384 41.0896 52.3385 41.0993 52.2961 41.1178C52.2547 41.1352 52.217 41.161 52.1854 41.1936C52.0657 41.3277 52.0657 41.5334 52.1854 41.6674C52.2171 41.6999 52.2547 41.7257 52.2961 41.7433C52.3427 41.7639 52.3932 41.7736 52.4438 41.7717H52.43ZM52.4577 41.2078C52.5008 41.2057 52.5432 41.2191 52.5777 41.2457C52.6063 41.2701 52.6218 41.3071 52.6192 41.3452C52.6206 41.3771 52.6088 41.408 52.5869 41.4305C52.5602 41.4555 52.526 41.4705 52.49 41.4732L52.6238 41.6295H52.5177L52.3931 41.4732H52.3515V41.6295H52.2638V41.2126L52.4577 41.2078ZM52.3561 41.2884V41.4021H52.4577C52.4757 41.4076 52.495 41.4076 52.5131 41.4021C52.5196 41.3887 52.5196 41.3729 52.5131 41.3594C52.5196 41.346 52.5196 41.3302 52.5131 41.3168C52.495 41.3113 52.4757 41.3113 52.4577 41.3168L52.3561 41.2884ZM47.2792 39.3646C47.3219 38.6209 47.9357 38.0487 48.6608 38.0767C49.3858 38.1046 49.9561 38.7224 49.9444 39.4673C49.9327 40.2121 49.3432 40.8107 48.6177 40.8145C48.2482 40.8193 47.8936 40.6655 47.6395 40.3902C47.3853 40.1148 47.2547 39.743 47.2792 39.3646ZM14.8654 39.3646V37.0996H13.9054V37.6492C13.5746 37.2123 13.0594 36.9654 12.5207 36.9858C11.2462 36.9858 10.2131 38.0466 10.2131 39.3551C10.2131 40.6636 11.2462 41.7243 12.5207 41.7243C13.0594 41.7447 13.5746 41.4978 13.9054 41.0609V41.6106H14.8654V39.3646ZM11.2931 39.3646C11.3357 38.6209 11.9496 38.0487 12.6746 38.0767C13.3997 38.1046 13.97 38.7224 13.9583 39.4673C13.9465 40.2121 13.3571 40.8107 12.6315 40.8145C12.2605 40.822 11.9034 40.6693 11.6472 40.3937C11.391 40.1181 11.2592 39.7447 11.2838 39.3646H11.2931Z" fill="#231F20"/>
<path d="M19.6841 3.71951H34.2232V30.5441H19.6841V3.71951Z" fill="#FF5F00"/>
<path d="M20.6078 17.1343C20.6024 11.899 22.9426 6.9521 26.9539 3.71974C20.1415 -1.77685 10.3587 -0.976225 4.48044 5.55896C-1.39778 12.0941 -1.39778 22.1698 4.48044 28.705C10.3587 35.2401 20.1415 36.0408 26.9539 30.5442C22.9439 27.3128 20.6038 22.368 20.6078 17.1343Z" fill="#EB001B"/>
<path d="M53.8387 17.1343C53.8387 23.6655 50.2061 29.6233 44.4841 32.4774C38.7621 35.3315 31.9551 34.5808 26.9541 30.5441C30.9624 27.31 33.3027 22.3658 33.3027 17.1319C33.3027 11.898 30.9624 6.95377 26.9541 3.71969C31.9551 -0.316951 38.7621 -1.06764 44.4841 1.78645C50.2061 4.64054 53.8387 10.5983 53.8387 17.1295V17.1343Z" fill="#F79E1B"/>
</svg>
