<svg width="43" height="37" viewBox="0 0 43 37" fill="none" xmlns="http://www.w3.org/2000/svg">
<path d="M7.17613 36.7266V34.6281C7.20092 34.2711 7.07058 33.9207 6.81838 33.6663C6.56617 33.4119 6.21648 33.2782 5.85852 33.2991C5.38679 33.2683 4.93561 33.4961 4.68108 33.8937C4.44903 33.5079 4.02413 33.2798 3.57373 33.2991C3.18158 33.2793 2.80825 33.4683 2.59254 33.7958V33.3831H1.86365V36.7266H2.59955V34.887C2.56785 34.6555 2.64134 34.4219 2.79996 34.2501C2.95858 34.0782 3.18578 33.986 3.41955 33.9986C3.90313 33.9986 4.14843 34.3134 4.14843 34.88V36.7406H4.88433V34.887C4.85394 34.6557 4.92788 34.4229 5.08621 34.2514C5.24453 34.0799 5.47093 33.9873 5.70433 33.9986C6.20194 33.9986 6.44023 34.3134 6.44023 34.88V36.7406L7.17613 36.7266ZM18.0639 33.3831H16.8654V32.3688H16.1295V33.3831H15.4637V34.0476H16.1436V35.5864C16.1436 36.3629 16.4449 36.8245 17.307 36.8245C17.629 36.8256 17.9449 36.7359 18.2181 36.5657L18.0078 35.9432C17.8124 36.0595 17.5905 36.1245 17.363 36.132C17.0126 36.132 16.8795 35.9082 16.8795 35.5724V34.0476H18.0709L18.0639 33.3831ZM24.2805 33.2991C23.9185 33.2885 23.5796 33.4764 23.3974 33.7888V33.3831H22.6755V36.7266H23.4044V34.852C23.4044 34.2994 23.6427 33.9916 24.1053 33.9916C24.2612 33.9895 24.416 34.018 24.5608 34.0755L24.7851 33.3761C24.6186 33.3166 24.4433 33.2859 24.2665 33.2851L24.2805 33.2991ZM14.882 33.6489C14.4694 33.404 13.9951 33.2826 13.5154 33.2991C12.6673 33.2991 12.1136 33.7048 12.1136 34.3693C12.1136 34.9149 12.5201 35.2507 13.2701 35.3556L13.6205 35.4046C14.02 35.4605 14.2092 35.5655 14.2092 35.7543C14.2092 36.0131 13.9429 36.16 13.4453 36.16C13.045 36.1716 12.6525 36.0484 12.3309 35.8103L11.9805 36.3769C12.4051 36.6727 12.9136 36.8248 13.4313 36.8105C14.3984 36.8105 14.9591 36.3559 14.9591 35.7193C14.9591 35.0828 14.5176 34.824 13.7887 34.7191L13.4383 34.6701C13.1229 34.6281 12.8706 34.5652 12.8706 34.3414C12.8706 34.1175 13.1089 33.9496 13.5083 33.9496C13.8776 33.9539 14.2395 34.0527 14.5596 34.2364L14.882 33.6489ZM34.4043 33.2991C34.0423 33.2885 33.7035 33.4764 33.5213 33.7888V33.3831H32.7994V36.7266H33.5283V34.852C33.5283 34.2994 33.7666 33.9916 34.2291 33.9916C34.385 33.9895 34.5398 34.018 34.6847 34.0755L34.9089 33.3761C34.7425 33.3166 34.5671 33.2859 34.3903 33.2851L34.4043 33.2991ZM25.0129 35.0478C24.9953 35.5229 25.1792 35.9834 25.5194 36.3163C25.8595 36.6491 26.3245 36.8235 26.8001 36.7966C27.2377 36.8188 27.6678 36.6765 28.0055 36.3978L27.6551 35.8103C27.4031 36.002 27.0959 36.1075 26.779 36.1111C26.2203 36.0659 25.79 35.6003 25.79 35.0408C25.79 34.4814 26.2203 34.0157 26.779 33.9706C27.0959 33.9741 27.4031 34.0796 27.6551 34.2714L28.0055 33.6838C27.6678 33.4052 27.2377 33.2629 26.8001 33.2851C26.3245 33.2582 25.8595 33.4326 25.5194 33.7654C25.1792 34.0983 24.9953 34.5587 25.0129 35.0338V35.0478ZM31.8392 35.0478V33.3831H31.1103V33.7888C30.8592 33.4663 30.468 33.2841 30.059 33.2991C29.0914 33.2991 28.3069 34.082 28.3069 35.0478C28.3069 36.0136 29.0914 36.7966 30.059 36.7966C30.468 36.8116 30.8592 36.6294 31.1103 36.3069V36.7126H31.8392V35.0478ZM29.1269 35.0478C29.1593 34.499 29.6254 34.0766 30.1759 34.0973C30.7264 34.1179 31.1594 34.5739 31.1505 35.1236C31.1416 35.6734 30.694 36.1152 30.1431 36.1181C29.8626 36.1216 29.5934 36.008 29.4004 35.8048C29.2075 35.6016 29.1083 35.3272 29.1269 35.0478ZM20.3312 33.2991C19.3635 33.3126 18.59 34.1065 18.6036 35.0723C18.6171 36.0381 19.4126 36.8101 20.3802 36.7966C20.8844 36.8224 21.3802 36.6603 21.7714 36.3419L21.421 35.8033C21.1443 36.0248 20.8015 36.1478 20.4468 36.153C19.9458 36.196 19.5016 35.8332 19.4446 35.3346H21.9326C21.9326 35.2437 21.9326 35.1528 21.9326 35.0548C21.9326 34.0056 21.2808 33.3061 20.3417 33.3061L20.3312 33.2991ZM20.3312 33.9496C20.5514 33.945 20.7646 34.0278 20.9236 34.18C21.0827 34.3322 21.1746 34.5412 21.1792 34.761H19.4271C19.4535 34.2941 19.8488 33.9337 20.3172 33.9496H20.3312ZM38.5919 35.0548V32.04H37.8911V33.7888C37.64 33.4663 37.2487 33.2841 36.8398 33.2991C35.8721 33.2991 35.0877 34.082 35.0877 35.0478C35.0877 36.0136 35.8721 36.7966 36.8398 36.7966C37.2487 36.8116 37.64 36.6294 37.8911 36.3069V36.7126H38.5919V35.0548ZM39.8079 36.2405C39.8535 36.2399 39.8987 36.2482 39.9411 36.2649C39.9813 36.2813 40.0182 36.3051 40.0497 36.3349C40.0805 36.365 40.1055 36.4006 40.1233 36.4398C40.1592 36.5224 40.1592 36.6161 40.1233 36.6986C40.1055 36.7378 40.0805 36.7734 40.0497 36.8035C40.0182 36.8334 39.9813 36.8571 39.9411 36.8735C39.8991 36.892 39.8538 36.9015 39.8079 36.9015C39.6723 36.9005 39.5495 36.8214 39.4925 36.6986C39.4571 36.616 39.4571 36.5225 39.4925 36.4398C39.5104 36.4006 39.5353 36.365 39.5661 36.3349C39.5977 36.3051 39.6345 36.2813 39.6748 36.2649C39.7204 36.2468 39.7694 36.2385 39.8184 36.2405H39.8079ZM39.8079 36.8315C39.8429 36.8317 39.8775 36.8246 39.9095 36.8105C39.9397 36.7971 39.967 36.7781 39.9901 36.7546C40.081 36.6556 40.081 36.5038 39.9901 36.4048C39.9671 36.3812 39.9397 36.3622 39.9095 36.3489C39.8775 36.3349 39.8429 36.3278 39.8079 36.3279C39.773 36.3281 39.7384 36.3352 39.7063 36.3489C39.6748 36.3618 39.6462 36.3808 39.6222 36.4048C39.5313 36.5038 39.5313 36.6556 39.6222 36.7546C39.6463 36.7786 39.6749 36.7976 39.7063 36.8105C39.7417 36.8258 39.78 36.8329 39.8184 36.8315H39.8079ZM39.8289 36.4153C39.8617 36.4137 39.8939 36.4236 39.9201 36.4433C39.9418 36.4613 39.9536 36.4886 39.9516 36.5168C39.9526 36.5402 39.9437 36.5631 39.9271 36.5797C39.9068 36.5981 39.8808 36.6092 39.8535 36.6112L39.9551 36.7266H39.8745L39.7799 36.6112H39.7483V36.7266H39.6818V36.4188L39.8289 36.4153ZM39.7519 36.4748V36.5587H39.8289C39.8427 36.5628 39.8573 36.5628 39.871 36.5587C39.876 36.5488 39.876 36.5372 39.871 36.5273C39.876 36.5174 39.876 36.5057 39.871 36.4958C39.8573 36.4917 39.8427 36.4917 39.8289 36.4958L39.7519 36.4748ZM35.8972 35.0548C35.9296 34.506 36.3956 34.0836 36.9461 34.1043C37.4966 34.1249 37.9296 34.5809 37.9207 35.1306C37.9118 35.6804 37.4643 36.1222 36.9134 36.125C36.6329 36.1286 36.3637 36.015 36.1707 35.8118C35.9777 35.6086 35.8786 35.3342 35.8972 35.0548ZM11.2866 35.0548V33.3831H10.5578V33.7888C10.3066 33.4663 9.91541 33.2841 9.50647 33.2991C8.53879 33.2991 7.75433 34.082 7.75433 35.0478C7.75433 36.0136 8.53879 36.7966 9.50647 36.7966C9.91541 36.8116 10.3066 36.6294 10.5578 36.3069V36.7126H11.2866V35.0548ZM8.57433 35.0548C8.60674 34.506 9.07279 34.0836 9.6233 34.1043C10.1738 34.1249 10.6068 34.5809 10.5979 35.1306C10.589 35.6804 10.1415 36.1222 9.59057 36.125C9.30886 36.1306 9.03775 36.0179 8.84322 35.8144C8.6487 35.611 8.54862 35.3354 8.56732 35.0548H8.57433Z" fill="white"/>
<ellipse cx="12.5" cy="15.1157" rx="12.5" ry="13.1157" fill="white"/>
<path d="M28.5 29.2314C36.0006 29.2314 42 22.8658 42 15.1157C42 7.36568 36.0006 1 28.5 1C20.9994 1 15 7.36568 15 15.1157C15 22.8658 20.9994 29.2314 28.5 29.2314Z" fill="white" stroke="#652EFE" stroke-width="2"/>
</svg>
