<svg width="60" height="18" viewBox="0 0 60 18" fill="none" xmlns="http://www.w3.org/2000/svg">
<path d="M5.19845 17.6626H0.0759277V1.13377H5.19845C7.49087 1.13377 7.99582 2.8587 8.2565 3.71951L10.3701 10.8578C10.4092 10.9969 10.4532 11.0886 10.5771 11.0952C10.701 11.0886 10.745 10.9969 10.7841 10.8578L12.8977 3.71951C13.1584 2.8587 13.6633 1.13377 15.9557 1.13377H21.0783V17.6626H15.9557V7.93494C15.865 7.67971 15.5025 7.72638 15.4435 7.93569L12.37 17.6626H8.78421L5.7107 7.93569C5.6516 7.72638 5.28923 7.67971 5.19845 7.93494V17.6626ZM28.5457 1.13377H23.4231V17.6626H28.5457C29.4259 17.6626 29.9444 17.245 30.8069 15.3893L34.2287 7.85144C34.2877 7.64222 34.6587 7.59546 34.7495 7.85068V17.6626H39.872V1.13377H34.7495C33.597 1.19427 33.0338 2.51203 32.6179 3.40711L29.0579 10.8607C28.9988 11.0699 28.6364 11.1167 28.5457 10.8615V1.13377ZM42.3662 8.67419H58.462C57.9204 10.2772 56.0564 12.3661 53.1733 12.3661H47.4887V17.6626H42.3662V8.67419Z" fill="white"/>
<path d="M58.6929 7.85068H50.2063C46.1018 7.85068 42.3485 5.58672 41.6973 1.13377H53.1732C56.6704 1.13377 59.3673 4.32651 58.6929 7.85068Z" fill="white"/>
</svg>
