<svg width="63" height="19" viewBox="0 0 63 19" fill="none" xmlns="http://www.w3.org/2000/svg">
<path d="M5.45872 18.6439H0.0800781V1.19675H5.45872C7.86577 1.19675 8.39596 3.0175 8.66968 3.92613L10.889 11.461C10.93 11.6079 10.9762 11.7046 11.1063 11.7116C11.2364 11.7046 11.2826 11.6079 11.3236 11.461L13.5429 3.92613C13.8166 3.0175 14.3468 1.19675 16.7539 1.19675H22.1325V18.6439H16.7539V8.37575C16.6586 8.10635 16.278 8.15561 16.216 8.37655L12.9888 18.6439H9.22378L5.99659 8.37655C5.93454 8.15561 5.55405 8.10635 5.45872 8.37575V18.6439ZM29.9733 1.19675H24.5947V18.6439H29.9733C30.8975 18.6439 31.442 18.203 32.3476 16.2442L35.9405 8.28762C36.0025 8.06678 36.392 8.01742 36.4873 8.28682V18.6439H41.866V1.19675H36.4873C35.2772 1.2606 34.6859 2.65157 34.2491 3.59638L30.5112 11.4641C30.4491 11.6849 30.0686 11.7343 29.9733 11.4649V1.19675ZM44.4849 9.15608H61.3855C60.8167 10.8481 58.8595 13.0531 55.8323 13.0531H49.8635V18.6439H44.4849V9.15608Z" fill="#3BA336"/>
<path d="M61.6282 8.28681H52.7172C48.4075 8.28681 44.4665 5.89708 43.7827 1.19675H55.8325C59.5045 1.19675 62.3363 4.56686 61.6282 8.28681Z" fill="#019AD7"/>
</svg>
