<svg width="33" height="31" viewBox="0 0 33 31" fill="none" xmlns="http://www.w3.org/2000/svg">
<path d="M22.6247 0.24501L9.97861 7.41686L4.34268 4.22076C3.94054 4.65739 3.56284 5.11532 3.21125 5.59251L9.97861 9.43109L24.534 1.17501C23.9305 0.82626 23.3043 0.51626 22.6561 0.24501H22.6247ZM9.97861 11.4438L2.24954 7.05726C1.95725 7.56101 1.69168 8.08259 1.45597 8.62121L9.97861 13.4541L27.5959 3.46436C27.1453 3.03547 26.6699 2.63257 26.1722 2.25769L9.97861 11.443V11.4438ZM9.97861 15.4691L0.832898 10.2805C0.653755 10.8555 0.507612 11.443 0.394469 12.0452L9.97861 17.4826L29.8925 6.18461C29.5645 5.69627 29.2104 5.22544 28.8318 4.77411L9.97861 15.4691ZM9.97861 19.496L0.157183 13.9222C0.139898 14.1702 0.127326 14.4182 0.121826 14.6693V15.342C0.311969 24.0158 7.50204 30.9924 16.3429 30.9924C25.304 30.9924 32.5679 23.8267 32.5679 14.9909C32.5679 12.3606 31.9252 9.87981 30.7867 7.69044L9.97861 19.496Z" fill="white"/>
</svg>
