<svg width="44" height="42" viewBox="0 0 44 42" fill="none" xmlns="http://www.w3.org/2000/svg">
<path d="M30.1659 0.331802L13.3045 10.0485L5.78992 5.7183C5.25373 6.30986 4.75013 6.93028 4.28135 7.5768L13.3045 12.7775L32.7116 1.5918C31.9071 1.1193 31.0721 0.699302 30.2078 0.331802H30.1659ZM13.3045 15.5043L2.99906 9.5613C2.60935 10.2438 2.25525 10.9505 1.94097 11.6802L13.3045 18.228L36.7942 4.6935C36.1933 4.11242 35.5595 3.56656 34.8959 3.05865L13.3045 15.5033V15.5043ZM13.3045 20.958L1.1102 13.9283C0.871347 14.7074 0.67649 15.5033 0.525633 16.3191L13.3045 23.6859L39.8564 8.379C39.419 7.71738 38.9469 7.07949 38.4421 6.468L13.3045 20.958ZM13.3045 26.4138L0.209252 18.8622C0.186205 19.1982 0.169443 19.5342 0.162109 19.8744V20.7858C0.415633 32.5374 10.0024 41.9895 21.7902 41.9895C33.7383 41.9895 43.4235 32.2812 43.4235 20.3102C43.4235 16.7465 42.5666 13.3854 41.0486 10.4192L13.3045 26.4138Z" fill="#299F34"/>
</svg>
