<svg width="63" height="22" viewBox="0 0 63 22" fill="none" xmlns="http://www.w3.org/2000/svg">
<path d="M25.1809 0.218002H30.2438L27.0766 19.51H22.0156L25.1809 0.218002Z" fill="url(#paint0_linear)"/>
<path d="M45.4647 0.84168C44.4616 0.450809 42.8899 0.0313568 40.927 0.0313568C35.9242 0.0313568 32.4003 2.6482 32.3702 6.39844C32.342 9.17071 34.886 10.7171 36.8065 11.6401C38.7773 12.5858 39.4397 13.1889 39.4303 14.0333C39.4178 15.3266 37.8565 15.9174 36.4013 15.9174C34.3748 15.9174 33.2983 15.625 31.6355 14.9047L30.9831 14.5981L30.2725 18.9171C31.4549 19.4556 33.6418 19.9222 35.9123 19.9464C41.2343 19.9464 44.6893 17.3596 44.7286 13.3548C44.7476 11.16 43.3987 9.48973 40.4778 8.11281C38.7081 7.22029 37.6243 6.62472 37.6358 5.72097C37.6358 4.91902 38.5531 4.06149 40.5352 4.06149C42.1909 4.03478 43.3901 4.40979 44.3246 4.80066L44.7783 5.02329L45.4647 0.84168Z" fill="url(#paint1_linear)"/>
<path d="M58.4474 0.385071H54.5352C53.3233 0.385071 52.4163 0.728635 51.8841 1.98502L44.3647 19.6662H49.6813C49.6813 19.6662 50.5505 17.2888 50.7471 16.7669C51.3281 16.7669 56.4929 16.7751 57.2312 16.7751C57.3828 17.4506 57.8472 19.6662 57.8472 19.6662H62.5452L58.4474 0.385071ZM52.2042 12.8207C52.6229 11.709 54.2214 7.42726 54.2214 7.42726C54.1915 7.47861 54.637 6.31023 54.8927 5.58585L55.2348 7.24927C55.2348 7.24927 56.2043 11.8547 56.407 12.8204L52.2042 12.8207Z" fill="url(#paint2_linear)"/>
<path d="M17.7953 0.381714L12.8384 13.5384L12.3103 10.8647C11.3875 7.78254 8.5125 4.44319 5.29834 2.77139L9.83074 19.6444L15.1875 19.6381L23.1583 0.381714H17.7953Z" fill="url(#paint3_linear)"/>
<path d="M8.24088 0.369797H0.0768242L0.012207 0.771213C6.36376 2.36821 10.5665 6.22754 12.3111 10.8647L10.5359 1.99862C10.2294 0.77693 9.34051 0.412373 8.24088 0.369797Z" fill="url(#paint4_linear)"/>
<defs>
<linearGradient id="paint0_linear" x1="21.4716" y1="8.94186" x2="31.4349" y2="8.9244" gradientUnits="userSpaceOnUse">
<stop stop-color="#191E5F"/>
<stop offset="1" stop-color="#142787" stop-opacity="0.818"/>
</linearGradient>
<linearGradient id="paint1_linear" x1="15.3107" y1="7.15967" x2="54.9022" y2="6.93775" gradientUnits="userSpaceOnUse">
<stop stop-color="#191E5F"/>
<stop offset="1" stop-color="#142787" stop-opacity="0.818"/>
</linearGradient>
<linearGradient id="paint2_linear" x1="3.78212" y1="5.66751" x2="64.2689" y2="5.14946" gradientUnits="userSpaceOnUse">
<stop stop-color="#191E5F"/>
<stop offset="1" stop-color="#142787" stop-opacity="0.818"/>
</linearGradient>
<linearGradient id="paint3_linear" x1="3.46773" y1="5.65602" x2="50.5537" y2="5.26621" gradientUnits="userSpaceOnUse">
<stop stop-color="#191E5F"/>
<stop offset="1" stop-color="#142787" stop-opacity="0.818"/>
</linearGradient>
<linearGradient id="paint4_linear" x1="3.94723" y1="5.46983" x2="37.0565" y2="5.03189" gradientUnits="userSpaceOnUse">
<stop stop-color="#191E5F"/>
<stop offset="1" stop-color="#142787" stop-opacity="0.818"/>
</linearGradient>
</defs>
</svg>
