<svg width="60" height="60" viewBox="0 0 60 60" fill="none" xmlns="http://www.w3.org/2000/svg">
<path d="M0.742676 30.0001C0.742676 13.812 13.812 0.742676 30.0001 0.742676C46.1882 0.742676 59.2575 13.812 59.2575 30.0001C59.2575 46.1882 46.1882 59.2575 30.0001 59.2575C13.812 59.2575 0.742676 46.1882 0.742676 30.0001Z" stroke="#652EFE" stroke-width="1.08" stroke-miterlimit="4.32" stroke-linecap="round" stroke-linejoin="round"/>
<path fill-rule="evenodd" clip-rule="evenodd" d="M27.0298 31.6338V36.3862H33.5645V38.614H27.0298V44.406H24.3565V38.614H21.8318V36.5348H24.3565V31.7823H21.8318V29.5546H24.3565V15.7427H32.2278C33.5645 15.7427 34.7526 15.8912 35.9407 16.1882C37.1288 16.4852 38.0199 16.9308 38.7625 17.6734C39.5051 18.2674 40.2476 19.1585 40.6932 20.1981C41.1387 21.2377 41.4357 22.4258 41.4357 23.7625C41.4357 25.0991 41.2872 26.2872 40.8417 27.3268C40.3961 28.3664 39.8021 29.2575 39.0595 29.8516C38.3169 30.5942 37.2773 31.0397 36.2377 31.3367C35.1981 31.6338 33.8615 31.7823 32.5249 31.7823H27.0298V31.6338ZM32.2278 29.406C33.1189 29.406 34.01 29.2575 34.9011 29.109C35.6437 28.9605 36.3862 28.515 36.9803 28.0694C37.5744 27.6239 38.0199 27.0298 38.3169 26.2872C38.614 25.5447 38.7625 24.6536 38.7625 23.614C38.7625 22.5744 38.614 21.6833 38.1684 20.9407C37.8714 20.1981 37.2773 19.6041 36.6833 19.1585C36.0892 18.713 35.3466 18.4159 34.6041 18.1189C33.8615 17.9704 32.9704 17.8219 32.0793 17.8219H26.8813V29.2575H32.2278V29.406Z" fill="#652EFE"/>
<path d="M4.75269 30.0002C4.75269 16.0398 16.0398 4.75269 30.0002 4.75269C43.9606 4.75269 55.2477 16.0398 55.2477 30.0002C55.2477 43.9606 43.9606 55.2477 30.0002 55.2477C16.0398 55.2477 4.75269 43.9606 4.75269 30.0002Z" stroke="#F7941D" stroke-width="1.08" stroke-miterlimit="4.32" stroke-linecap="round" stroke-linejoin="round"/>
</svg>
