<svg width="62" height="60" viewBox="0 0 62 60" fill="none" xmlns="http://www.w3.org/2000/svg">
<path d="M43.5293 44.7058H12.2688C10.4201 44.7058 8.57132 43.3613 7.89905 41.5125L1.17636 20.3361C0.167961 16.9747 2.0167 14.2856 5.54611 14.2856H43.8654" stroke="#652EFE" stroke-width="1.08" stroke-miterlimit="4.32" stroke-linecap="round" stroke-linejoin="round"/>
<path d="M18.6552 44.706L14.9578 14.4539" stroke="#652EFE" stroke-width="1.08" stroke-miterlimit="4.32" stroke-linecap="round" stroke-linejoin="round"/>
<path d="M29.9158 44.7058L33.4452 14.2856" stroke="#652EFE" stroke-width="1.08" stroke-miterlimit="4.32" stroke-linecap="round" stroke-linejoin="round"/>
<path d="M61.0083 0.840332H56.9747C55.6302 0.840332 54.2856 1.84874 53.9495 3.19327L42.689 48.5714C42.3528 49.916 41.0083 50.9244 39.6638 50.9244H9.7478" stroke="#652EFE" stroke-width="1.08" stroke-miterlimit="4.32" stroke-linecap="round" stroke-linejoin="round"/>
<path d="M11.2605 55.4621C11.2605 53.4453 12.9412 51.7646 14.958 51.7646C16.9748 51.7646 18.6555 53.4453 18.6555 55.4621C18.6555 57.4789 16.9748 59.1596 14.958 59.1596C12.9412 59.1596 11.2605 57.4789 11.2605 55.4621Z" stroke="#F7941D" stroke-width="1.08" stroke-miterlimit="4.32" stroke-linecap="round" stroke-linejoin="round"/>
<path d="M32.9412 55.4621C32.9412 53.4453 34.6218 51.7646 36.6386 51.7646C38.6554 51.7646 40.3361 53.4453 40.3361 55.4621C40.3361 57.4789 38.6554 59.1596 36.6386 59.1596C34.6218 59.1596 32.9412 57.4789 32.9412 55.4621Z" stroke="#F7941D" stroke-width="1.08" stroke-miterlimit="4.32" stroke-linecap="round" stroke-linejoin="round"/>
<path d="M4.70581 29.5798H42.0167" stroke="#652EFE" stroke-width="1.08" stroke-miterlimit="4.32" stroke-linecap="round" stroke-linejoin="round"/>
</svg>
