<svg width="60" height="46" viewBox="0 0 60 46" fill="none" xmlns="http://www.w3.org/2000/svg">
<path d="M4.69696 0.757568H55.1515C57.2727 0.757568 59.0909 2.87878 59.0909 5.45454V40C59.0909 42.5758 57.2727 44.697 55.1515 44.697H4.69696C2.57575 44.697 0.757568 42.5758 0.757568 40V5.45454C0.757568 2.87878 2.57575 0.757568 4.69696 0.757568Z" stroke="#652EFE" stroke-width="1.08" stroke-miterlimit="4.32" stroke-linecap="round" stroke-linejoin="round"/>
<path d="M3.33325 9.24243L53.0302 9.39395" stroke="#652EFE" stroke-width="1.08" stroke-miterlimit="4.32" stroke-linecap="round" stroke-linejoin="round"/>
<path d="M13.3334 9.39404L13.1819 40.6062" stroke="#652EFE" stroke-width="1.08" stroke-miterlimit="4.32" stroke-linecap="round" stroke-linejoin="round"/>
<path d="M19.2424 18.4849H53.0303" stroke="#F7941D" stroke-width="1.08" stroke-miterlimit="4.32" stroke-linecap="round" stroke-linejoin="round"/>
<path d="M19.2424 27.8788H53.0303" stroke="#F7941D" stroke-width="1.08" stroke-miterlimit="4.32" stroke-linecap="round" stroke-linejoin="round"/>
<path d="M19.2424 36.3636H53.0303" stroke="#F7941D" stroke-width="1.08" stroke-miterlimit="4.32" stroke-linecap="round" stroke-linejoin="round"/>
<path d="M3.33325 18.4849H9.8484" stroke="#652EFE" stroke-width="1.08" stroke-miterlimit="4.32" stroke-linecap="round" stroke-linejoin="round"/>
<path d="M3.33325 27.7273H9.8484" stroke="#652EFE" stroke-width="1.08" stroke-miterlimit="4.32" stroke-linecap="round" stroke-linejoin="round"/>
<path d="M3.33325 36.3636H9.8484" stroke="#652EFE" stroke-width="1.08" stroke-miterlimit="4.32" stroke-linecap="round" stroke-linejoin="round"/>
<path d="M4.24243 4.99996C4.24243 4.3939 4.84849 3.78784 5.45455 3.78784C6.06061 3.78784 6.66667 4.3939 6.66667 4.99996C6.66667 5.60602 6.06061 6.21208 5.45455 6.21208C4.84849 6.21208 4.24243 5.75754 4.24243 4.99996Z" stroke="#F7941D" stroke-width="1.08" stroke-miterlimit="4.32" stroke-linecap="round" stroke-linejoin="round"/>
<path d="M9.54541 4.99996C9.54541 4.3939 10.1515 3.78784 10.7575 3.78784C11.3636 3.78784 11.9697 4.3939 11.9697 4.99996C11.9697 5.60602 11.3636 6.21208 10.7575 6.21208C10.1515 6.21208 9.54541 5.75754 9.54541 4.99996Z" stroke="#F7941D" stroke-width="1.08" stroke-miterlimit="4.32" stroke-linecap="round" stroke-linejoin="round"/>
<path d="M14.8484 4.99996C14.8484 4.3939 15.4544 3.78784 16.0605 3.78784C16.6666 3.78784 17.2726 4.3939 17.2726 4.99996C17.2726 5.60602 16.6666 6.21208 16.0605 6.21208C15.3029 6.21208 14.8484 5.75754 14.8484 4.99996Z" stroke="#F7941D" stroke-width="1.08" stroke-miterlimit="4.32" stroke-linecap="round" stroke-linejoin="round"/>
</svg>
