<svg width="52" height="60" viewBox="0 0 52 60" fill="none" xmlns="http://www.w3.org/2000/svg">
<path d="M14.6154 31.0769C14.6154 31.0769 18.6154 33.8461 25.2308 33.8461C31.8462 33.8461 35.2308 31.0769 35.2308 31.0769L44.4616 36.7692C47.8462 38.9231 50.6154 43.8461 50.6154 47.6923V59.0769H0.769287V47.0769C0.769287 43.3846 3.23083 38.7692 6.30775 36.6154L14.6154 31.0769Z" stroke="#652EFE" stroke-width="1.08" stroke-miterlimit="4.32" stroke-linecap="round" stroke-linejoin="round"/>
<path d="M10.9231 15.2308C10.9231 7.38463 17.3846 0.923096 25.2308 0.923096C33.0769 0.923096 39.5385 7.38463 39.5385 15.2308C39.5385 23.0769 33.0769 29.5385 25.2308 29.5385C17.3846 29.5385 10.9231 23.0769 10.9231 15.2308Z" stroke="#F7941D" stroke-width="1.08" stroke-miterlimit="4.32" stroke-linecap="round" stroke-linejoin="round"/>
</svg>
