<svg width="39" height="60" viewBox="0 0 39 60" fill="none" xmlns="http://www.w3.org/2000/svg">
<path d="M28.5076 7.01489H35.0747C36.7165 7.01489 38.2091 8.50743 38.2091 10.2985V52.8358" stroke="#652EFE" stroke-width="1.08" stroke-miterlimit="4.32" stroke-linecap="round" stroke-linejoin="round"/>
<path d="M38.209 52.8358V55.6716C38.209 57.4626 36.8657 58.9552 35.0747 58.9552H3.88067C2.23887 58.9552 0.746338 57.4626 0.746338 55.6716V10.2985C0.746338 8.50743 2.08962 7.01489 3.88067 7.01489H11.0448" stroke="#652EFE" stroke-width="1.08" stroke-miterlimit="4.32" stroke-linecap="round" stroke-linejoin="round"/>
<path d="M11.194 20.4477C11.194 22.388 9.7015 23.8806 7.7612 23.8806C5.82091 23.8806 4.32837 22.388 4.32837 20.4477C4.32837 18.5074 5.82091 17.0149 7.7612 17.0149" stroke="#F7941D" stroke-width="1.08" stroke-miterlimit="4.32" stroke-linecap="round" stroke-linejoin="round"/>
<path d="M11.0449 34.6269C11.0449 36.5672 9.55233 38.0598 7.61204 38.0598C5.67174 38.0598 4.1792 36.5672 4.1792 34.6269C4.1792 32.6866 5.67174 31.1941 7.61204 31.1941" stroke="#F7941D" stroke-width="1.08" stroke-miterlimit="4.32" stroke-linecap="round" stroke-linejoin="round"/>
<path d="M11.194 47.9106C11.194 49.8509 9.7015 51.3435 7.7612 51.3435C5.82091 51.3435 4.32837 49.8509 4.32837 47.9106C4.32837 45.9703 5.82091 44.4778 7.7612 44.4778" stroke="#F7941D" stroke-width="1.08" stroke-miterlimit="4.32" stroke-linecap="round" stroke-linejoin="round"/>
<path d="M6.71655 20.4477L8.20909 21.4925L10.8957 17.0149" stroke="#652EFE" stroke-width="1.08" stroke-miterlimit="4.32" stroke-linecap="round" stroke-linejoin="round"/>
<path d="M6.56714 34.6269L8.05968 35.6717L10.7462 31.1941" stroke="#652EFE" stroke-width="1.08" stroke-miterlimit="4.32" stroke-linecap="round" stroke-linejoin="round"/>
<path d="M6.71655 47.9106L8.20909 48.9554L10.8957 44.4778" stroke="#652EFE" stroke-width="1.08" stroke-miterlimit="4.32" stroke-linecap="round" stroke-linejoin="round"/>
<path d="M19.7016 0.746338C18.0598 0.746338 16.7165 2.08962 16.7165 3.73141H11.1941V10.0001H28.3583V3.88067H22.8359C22.8359 2.23887 21.4926 0.746338 19.7016 0.746338Z" stroke="#F7941D" stroke-width="1.08" stroke-miterlimit="4.32" stroke-linecap="round" stroke-linejoin="round"/>
<path d="M14.7761 18.5076H20.8955" stroke="#652EFE" stroke-width="1.08" stroke-miterlimit="4.32" stroke-linecap="round" stroke-linejoin="round"/>
<path d="M14.9255 33.1345H21.0449" stroke="#652EFE" stroke-width="1.08" stroke-miterlimit="4.32" stroke-linecap="round" stroke-linejoin="round"/>
<path d="M14.7761 45.9702H20.8955" stroke="#652EFE" stroke-width="1.08" stroke-miterlimit="4.32" stroke-linecap="round" stroke-linejoin="round"/>
<path d="M14.7761 22.5374H33.2836" stroke="#652EFE" stroke-width="1.08" stroke-miterlimit="4.32" stroke-linecap="round" stroke-linejoin="round"/>
<path d="M14.9255 37.1643H33.433" stroke="#652EFE" stroke-width="1.08" stroke-miterlimit="4.32" stroke-linecap="round" stroke-linejoin="round"/>
<path d="M14.7761 49.8508H33.2836" stroke="#652EFE" stroke-width="1.08" stroke-miterlimit="4.32" stroke-linecap="round" stroke-linejoin="round"/>
</svg>
