<svg width="60" height="43" viewBox="0 0 60 43" fill="none" xmlns="http://www.w3.org/2000/svg">
<path d="M12.6016 35.2267V40.3818C12.6016 41.5274 11.7424 42.3866 10.5968 42.3866H7.16005C6.01446 42.3866 5.15527 41.5274 5.15527 40.3818V31.6467" stroke="#F7941D" stroke-width="1.08" stroke-miterlimit="4.32" stroke-linecap="round" stroke-linejoin="round"/>
<path d="M54.7017 30.9309V39.666C54.7017 40.8116 53.8425 41.6708 52.6969 41.6708H49.2601C48.1146 41.6708 47.2554 40.8116 47.2554 39.666V35.7996" stroke="#F7941D" stroke-width="1.08" stroke-miterlimit="4.32" stroke-linecap="round" stroke-linejoin="round"/>
<path d="M5.15527 17.8998L12.6016 3.15043C13.3176 1.86165 14.8927 0.716064 16.3247 0.716064H43.6756C45.1075 0.716064 46.8259 1.86165 47.5419 3.15043L54.845 17.8998V35.0836H5.15527V17.8998Z" stroke="#652EFE" stroke-width="1.08" stroke-miterlimit="4.32" stroke-linecap="round" stroke-linejoin="round"/>
<path d="M14.4631 6.44409L9.16479 17.1839H50.8354L45.6803 6.58729" stroke="#652EFE" stroke-width="1.08" stroke-miterlimit="4.32" stroke-linecap="round" stroke-linejoin="round"/>
<path d="M12.6016 3.15039H47.3987" stroke="#652EFE" stroke-width="1.08" stroke-miterlimit="4.32" stroke-linecap="round" stroke-linejoin="round"/>
<path d="M8.59204 20.4773H50.6923" stroke="#652EFE" stroke-width="1.08" stroke-miterlimit="4.32" stroke-linecap="round" stroke-linejoin="round"/>
<path d="M27.9236 6.44409H32.9355" stroke="#652EFE" stroke-width="1.08" stroke-miterlimit="4.32" stroke-linecap="round" stroke-linejoin="round"/>
<path d="M53.9858 15.7519L59.2842 12.6016" stroke="#652EFE" stroke-width="1.08" stroke-miterlimit="4.32" stroke-linecap="round" stroke-linejoin="round"/>
<path d="M6.01439 15.7519L0.716064 12.6016" stroke="#652EFE" stroke-width="1.08" stroke-miterlimit="4.32" stroke-linecap="round" stroke-linejoin="round"/>
<path d="M11.3128 22.7686C9.73763 22.7686 8.59204 24.0573 8.59204 25.4893C8.59204 27.0645 9.73763 28.2101 11.3128 28.2101H11.5992H16.4679C17.1839 28.2101 17.7567 27.4941 17.7567 26.4917V26.2053C17.7567 25.3461 17.1839 24.4869 16.4679 24.4869H13.604C13.3176 23.6277 12.4584 22.7686 11.3128 22.7686Z" stroke="#F7941D" stroke-width="1.08" stroke-miterlimit="4.32" stroke-linecap="round" stroke-linejoin="round"/>
<path d="M48.4009 22.7686C49.9761 22.7686 51.1217 24.0573 51.1217 25.4893C51.1217 27.0645 49.9761 28.2101 48.4009 28.2101H48.1146H43.2458C42.5298 28.2101 41.957 27.4941 41.957 26.4917V26.2053C41.957 25.3461 42.5298 24.4869 43.2458 24.4869H46.1098C46.3962 23.6277 47.1122 22.7686 48.4009 22.7686Z" stroke="#F7941D" stroke-width="1.08" stroke-miterlimit="4.32" stroke-linecap="round" stroke-linejoin="round"/>
<path d="M31.6467 32.0764H39.809" stroke="#652EFE" stroke-width="1.08" stroke-miterlimit="4.32" stroke-linecap="round" stroke-linejoin="round"/>
<path d="M21.4797 32.0764H24.9165" stroke="#652EFE" stroke-width="1.08" stroke-miterlimit="4.32" stroke-linecap="round" stroke-linejoin="round"/>
</svg>
