<svg xmlns="http://www.w3.org/2000/svg" viewBox="0 0 51.86 59.57"><title>vin-request</title><path d="M42.62,52.14v3.33a3.59,3.59,0,0,1-3.48,3.77H4.23A3.58,3.58,0,0,1,.76,55.47V4.53A3.58,3.58,0,0,1,4.23.76H39.14a3.59,3.59,0,0,1,3.48,3.77V34" transform="translate(-0.22 -0.22)" fill="#fff" stroke="#652efe" stroke-linecap="round" stroke-linejoin="round" stroke-width="1.08"/><path d="M8.31,8.31H35.82" transform="translate(-0.22 -0.22)" fill="none" stroke="#652efe" stroke-linecap="round" stroke-linejoin="round" stroke-width="1.08"/><path d="M29.47,29.92h6.05" transform="translate(-0.22 -0.22)" fill="none" stroke="#652efe" stroke-linecap="round" stroke-linejoin="round" stroke-width="1.08"/><path d="M8,29.92H21.46" transform="translate(-0.22 -0.22)" fill="none" stroke="#652efe" stroke-linecap="round" stroke-linejoin="round" stroke-width="1.08"/><path d="M17.83,36.57H33.25" transform="translate(-0.22 -0.22)" fill="none" stroke="#652efe" stroke-linecap="round" stroke-linejoin="round" stroke-width="1.08"/><path d="M8,36.57h6.2" transform="translate(-0.22 -0.22)" fill="none" stroke="#652efe" stroke-linecap="round" stroke-linejoin="round" stroke-width="1.08"/><path d="M8,43.07H31.13" transform="translate(-0.22 -0.22)" fill="none" stroke="#652efe" stroke-linecap="round" stroke-linejoin="round" stroke-width="1.08"/><path d="M8,23.88H31.13" transform="translate(-0.22 -0.22)" fill="none" stroke="#652efe" stroke-linecap="round" stroke-linejoin="round" stroke-width="1.08"/><path d="M24.33,49.57h7.86" transform="translate(-0.22 -0.22)" fill="none" stroke="#652efe" stroke-linecap="round" stroke-linejoin="round" stroke-width="1.08"/><path d="M8,49.57H18.44" transform="translate(-0.22 -0.22)" fill="none" stroke="#652efe" stroke-linecap="round" stroke-linejoin="round" stroke-width="1.08"/><path d="M13.45,13.9H29.77" transform="translate(-0.22 -0.22)" fill="none" stroke="#652efe" stroke-linecap="round" stroke-linejoin="round" stroke-width="1.08"/><path d="M33.7,43.07A8.92,8.92,0,1,1,42.62,52,9,9,0,0,1,33.7,43.07Z" transform="translate(-0.22 -0.22)" fill="none" stroke="#f7941d" stroke-linecap="round" stroke-linejoin="round" stroke-width="1.08"/><path d="M38.39,43.07l4.08,4.84L47,38.39" transform="translate(-0.22 -0.22)" fill="none" stroke="#f7941d" stroke-linecap="round" stroke-linejoin="round" stroke-width="1.08"/></svg>