<svg width="40" height="40" viewBox="0 0 40 40" fill="none" xmlns="http://www.w3.org/2000/svg">
<path d="M36.2641 9.25055V36.296C36.2641 38.3386 34.6027 40 32.5609 40H9.60213C7.55955 40 5.89893 38.3386 5.89893 36.296V3.7032C5.89893 1.66141 7.55955 0 9.60213 0H27.0073C27.9962 0 28.9257 0.384297 29.6247 1.08336L35.1775 6.6307C35.8782 7.33062 36.2641 8.26086 36.2641 9.25055Z" fill="#00AB94"/>
<path d="M36.264 9.25055V36.296C36.264 38.3386 34.6026 40 32.5608 40H21.0811V0H27.0072C27.9961 0 28.9256 0.384297 29.6247 1.08336L35.1775 6.6307C35.8782 7.33063 36.264 8.26086 36.264 9.25055Z" fill="#00AB94"/>
<path d="M36.2642 9.25055V9.3982H28.0557C27.4082 9.3982 26.884 8.87406 26.884 8.22656V0H27.0075C27.9964 0 28.9258 0.384297 29.6249 1.08336L35.1777 6.6307C35.8783 7.33063 36.2642 8.26086 36.2642 9.25055Z" fill="#068574"/>
<path d="M27.9855 26.1567V32.6156C27.9855 34.1708 26.7209 35.4354 25.1658 35.4354H6.55536C5.00021 35.4354 3.7356 34.1708 3.7356 32.6156V26.1567C3.7356 24.6023 5.00021 23.3369 6.55536 23.3369H25.1658C26.7209 23.3369 27.9855 24.6023 27.9855 26.1567Z" fill="#652EFE"/>
<path d="M27.9857 26.1567V32.6156C27.9857 34.1708 26.7211 35.4354 25.1659 35.4354H21.0815V23.3369H25.1659C26.7211 23.3369 27.9857 24.6023 27.9857 26.1567Z" fill="#652EFE"/>
<path d="M9.52466 31.5792C9.52466 31.514 9.54724 31.4436 9.59239 31.3684L10.8953 29.3576L9.64513 27.3544C9.59489 27.2742 9.56981 27.1963 9.56981 27.1211C9.56981 26.9704 9.65271 26.8399 9.81833 26.7294C9.98403 26.619 10.1547 26.5637 10.3305 26.5637C10.4962 26.5637 10.6141 26.629 10.6844 26.7596L11.686 28.5068L12.6875 26.7596C12.7578 26.629 12.8758 26.5637 13.0415 26.5637C13.2172 26.5637 13.3879 26.619 13.5536 26.7294C13.7193 26.8399 13.8022 26.9704 13.8022 27.1211C13.8022 27.1964 13.777 27.2743 13.7268 27.3544L12.4767 29.3576L13.7796 31.3684C13.8247 31.4437 13.8473 31.5141 13.8473 31.5792C13.8473 31.7299 13.7608 31.8642 13.5876 31.9821C13.4143 32.1002 13.2399 32.1591 13.0641 32.1591C12.9235 32.1591 12.8308 32.1189 12.7855 32.0386L11.6861 30.171L10.5866 32.0386C10.5363 32.1189 10.4435 32.1591 10.308 32.1591C10.1322 32.1591 9.95786 32.1002 9.78458 31.9821C9.61122 31.8643 9.52466 31.7299 9.52466 31.5792Z" fill="white"/>
<path d="M14.314 31.7525V26.9628C14.314 26.8473 14.3716 26.7595 14.4872 26.6993C14.6027 26.639 14.7407 26.6089 14.9015 26.6089C15.0622 26.6089 15.2001 26.639 15.3157 26.6993C15.4312 26.7595 15.489 26.8474 15.489 26.9628V31.0898H17.206C17.3115 31.0898 17.3943 31.1401 17.4545 31.2405C17.5147 31.341 17.5449 31.4615 17.5449 31.6019C17.5449 31.7426 17.5147 31.8631 17.4545 31.9634C17.3943 32.064 17.3114 32.1141 17.206 32.1141H14.8262C14.6855 32.1141 14.5651 32.0829 14.4647 32.02C14.3642 31.9571 14.314 31.868 14.314 31.7525Z" fill="white"/>
<path d="M17.7559 31.2103C17.7559 31.0697 17.8073 30.9291 17.9103 30.7886C18.0131 30.648 18.1324 30.5777 18.268 30.5777C18.3434 30.5777 18.4273 30.6083 18.5202 30.669C18.6131 30.73 18.6984 30.7975 18.7763 30.8715C18.854 30.9457 18.9633 31.0132 19.1038 31.0739C19.2443 31.1348 19.3924 31.1652 19.5481 31.1652C19.7439 31.1652 19.9145 31.1238 20.0602 31.0409C20.2058 30.958 20.2786 30.8339 20.2786 30.6682C20.2786 30.5025 20.1969 30.357 20.0338 30.2314C19.8706 30.1059 19.6724 29.9917 19.4389 29.8887C19.2055 29.7858 18.9707 29.6703 18.7348 29.5422C18.4988 29.4142 18.2991 29.2323 18.1361 28.9962C17.9728 28.7603 17.8913 28.4792 17.8913 28.1528C17.8913 27.6205 18.0796 27.2227 18.4562 26.9591C18.8327 26.6956 19.287 26.5637 19.8193 26.5637C19.9498 26.5637 20.0866 26.5715 20.2297 26.587C20.3728 26.6025 20.5335 26.6323 20.7117 26.6764C20.8899 26.7204 21.0356 26.7915 21.1485 26.8897C21.2615 26.9881 21.3181 27.1069 21.3181 27.2465C21.3181 27.3793 21.2767 27.5169 21.1938 27.6598C21.1109 27.8026 20.9967 27.874 20.851 27.874C20.7908 27.874 20.6628 27.8264 20.467 27.7309C20.2711 27.6355 20.0552 27.5878 19.8194 27.5878C19.5683 27.5878 19.3799 27.6318 19.2545 27.7197C19.129 27.8075 19.0663 27.9143 19.0663 28.0397C19.0663 28.1553 19.1252 28.2607 19.2433 28.356C19.3613 28.4515 19.5081 28.533 19.6838 28.6008C19.8596 28.6686 20.0516 28.7565 20.26 28.8643C20.4683 28.9724 20.6603 29.0902 20.8362 29.2183C21.0119 29.3463 21.1587 29.5258 21.2768 29.7568C21.3947 29.9877 21.4539 30.2514 21.4539 30.5475C21.4539 31.0653 21.2806 31.4683 20.9342 31.7567C20.5878 32.045 20.1333 32.1892 19.5711 32.1892C19.0841 32.1892 18.6598 32.0888 18.2983 31.888C17.9365 31.6872 17.7559 31.4614 17.7559 31.2103Z" fill="white"/>
</svg>
