<svg width="24" height="17" viewBox="0 0 24 17" fill="none" xmlns="http://www.w3.org/2000/svg">
<path d="M7.84398 1.08591L1.11217 8.11519L1.11145 8.11599L1.10155 8.12636C0.966166 8.2681 0.965963 8.51971 1.10157 8.66173L1.11124 8.67186L1.1119 8.67259L7.84391 15.7021C7.84391 15.7021 7.84392 15.7021 7.84392 15.7021C7.90478 15.7656 7.97229 15.7881 8.03253 15.788C8.09275 15.7878 8.16025 15.765 8.22097 15.701L8.22102 15.701C8.35662 15.558 8.35586 15.3081 8.21999 15.1662C8.21998 15.1662 8.21997 15.1661 8.21996 15.1661L3.69341 10.4395L2.07335 8.74787H4.41563H21.7419C21.8575 8.74787 22.0322 8.6353 22.0322 8.394C22.0322 8.15269 21.8575 8.04013 21.7419 8.04013H4.41557H2.07324L3.69335 6.34846L8.22002 1.62187C8.22004 1.62185 8.22005 1.62184 8.22007 1.62182C8.35592 1.47989 8.35668 1.23 8.22108 1.08705C8.16031 1.02298 8.09277 1.00015 8.03257 1C7.97236 0.999851 7.90486 1.02234 7.84398 1.08591Z" stroke="#652efe" stroke-width="2"/>
</svg>
