<svg width="17" height="20" viewBox="0 0 17 20" fill="none" xmlns="http://www.w3.org/2000/svg">
<path d="M11.088 0H2.69138C1.20739 0 0 1.20739 0 2.69138V17.3086C0 18.7926 1.20739 20 2.69138 20H13.3448C14.8286 20 16.036 18.7929 16.036 17.3086V5.53029L11.088 0ZM11.48 2.56584L13.7404 5.0922H11.48V2.56584ZM13.3444 18.5815H2.69138C1.98946 18.5815 1.41851 18.0105 1.41851 17.3086V2.69138C1.41851 1.98946 1.98946 1.41851 2.69138 1.41851H10.0617V6.51047H14.6175V17.3086C14.6172 18.0105 14.0463 18.5815 13.3444 18.5815Z" fill="#652EFE"/>
<path d="M13.0944 14.3385H2.94092V15.757H13.0944V14.3385Z" fill="#652EFE"/>
<path d="M13.0944 11.2561H2.94092V12.6746H13.0944V11.2561Z" fill="#652EFE"/>
<path d="M13.0944 8.17415H2.94092V9.59266H13.0944V8.17415Z" fill="#652EFE"/>
</svg>
