<svg width="26" height="33" viewBox="0 0 26 33" fill="none" xmlns="http://www.w3.org/2000/svg">
<path d="M13 0C5.82038 0 0 5.99774 0 13.3961C0 20.1077 8.09967 28.938 11.513 32.3615C12.349 33.1982 13.6708 33.2157 14.5231 32.3957C17.9568 29.0974 26 20.6003 26 13.3954C25.9993 5.99774 20.1796 0 13 0Z" fill="#652EFE"/>
<path d="M15.7374 16.4218H10.1993L9.47141 18.2042C9.2657 18.6817 8.80683 19 8.28466 19C7.35108 19 6.73397 18.0451 7.11373 17.1857L11.2278 7.89125C11.4651 7.35013 12.0031 7 12.5886 7H13.3798C13.9652 7 14.5032 7.35013 14.7406 7.89125L18.8863 17.1698C19.266 18.0292 18.6489 18.9841 17.7153 18.9841H17.652C17.1299 18.9841 16.671 18.6658 16.4653 18.1883L15.7374 16.4218ZM14.7089 13.939L13.2215 10.3263C13.1266 10.1034 12.8101 10.1034 12.731 10.3263L11.2436 13.939C11.1645 14.1141 11.3069 14.321 11.4968 14.321H14.4557C14.6456 14.305 14.788 14.1141 14.7089 13.939Z" fill="white"/>
</svg>
