<svg width="226" height="54" viewBox="0 0 226 54" fill="none" xmlns="http://www.w3.org/2000/svg">
<path d="M38.0706 54H15.9294C7.12632 54 0 46.8737 0 38.0706V15.9294C0 7.12632 7.12632 0 15.9294 0H38.0706C46.8737 0 54 7.12632 54 15.9294V38.0706C54 46.8737 46.8737 54 38.0706 54Z" fill="white"/>
<path d="M32.0876 35.9368H18.7495L16.9965 40.205C16.5011 41.3482 15.396 42.1104 14.1384 42.1104C11.89 42.1104 10.4037 39.8239 11.3183 37.766L21.2266 15.5106C21.7982 14.2149 23.0939 13.3765 24.5039 13.3765H26.4094C27.8194 13.3765 29.1151 14.2149 29.6867 15.5106L39.6331 37.766C40.5477 39.8239 39.0615 42.1104 36.813 42.1104H36.6606C35.403 42.1104 34.2979 41.3482 33.8025 40.205L32.0876 35.9368ZM29.6486 29.9919L26.0664 21.3412C25.8378 20.8077 25.0756 20.8077 24.885 21.3412L21.3028 29.9919C21.1123 30.411 21.4553 30.9065 21.9126 30.9065H29.077C29.4962 30.9065 29.8011 30.411 29.6486 29.9919Z" fill="#DFE8F8"/>
<path d="M35.0981 34.4886H21.76L20.007 38.7567C19.5116 39.9 18.4065 40.6622 17.1489 40.6622C14.9005 40.6622 13.4142 38.3756 14.3288 36.3178L24.2371 14.0623C24.8087 12.7666 26.1044 11.9282 27.5145 11.9282H29.4199C30.8299 11.9282 32.1256 12.7666 32.6973 14.0623L42.6817 36.2797C43.5963 38.3375 42.1101 40.6241 39.8617 40.6241H39.7093C38.4517 40.6241 37.3465 39.8619 36.8511 38.7186L35.0981 34.4886ZM32.621 28.5436L29.0388 19.8929C28.8102 19.3594 28.048 19.3594 27.8574 19.8929L24.2752 28.5436C24.0847 28.9628 24.4277 29.4582 24.885 29.4582H32.0113C32.4686 29.4201 32.8116 28.9628 32.621 28.5436Z" fill="url(#paint0_linear)"/>
<g clip-path="url(#clip0)">
<path d="M89.7336 29.2404H76.6046L74.8541 33.4481C74.3618 34.5956 73.2677 35.306 72.0642 35.306C69.8761 35.306 68.3991 33.0656 69.2743 31.0437L79.0663 9.13115C79.6133 7.87432 80.9262 7 82.2938 7H84.1538C85.5761 7 86.8342 7.81967 87.3813 9.0765L97.228 30.9891C98.1032 33.0109 96.6809 35.2514 94.4381 35.2514H94.274C93.0158 35.2514 91.9217 34.4863 91.4841 33.3934L89.7336 29.2404ZM87.3266 23.3934L83.7708 14.8689C83.552 14.3224 82.7862 14.3224 82.5674 14.8689L79.0663 23.3934C78.9022 23.8306 79.1757 24.2678 79.6681 24.2678H86.7248C87.2172 24.2678 87.4907 23.8306 87.3266 23.3934Z" fill="white"/>
<path d="M128.737 32.2459L128.682 18.3661L121.078 31.0437C120.586 31.8087 119.765 32.3005 118.835 32.3005C117.96 32.3005 117.085 31.8087 116.647 31.0437L109.098 18.6939V32.2459C109.098 33.9399 107.73 35.306 106.034 35.306C104.339 35.306 102.971 33.9399 102.971 32.2459V10.0601C102.916 8.36608 104.284 6.99996 105.98 6.99996H106.582C107.676 6.99996 108.66 7.54641 109.207 8.47537L118.945 24.5956L128.518 8.47537C129.065 7.54641 130.104 6.94531 131.144 6.94531H131.745C133.441 6.94531 134.809 8.31143 134.809 10.0054L134.863 32.1912C134.863 33.8852 133.496 35.2513 131.8 35.2513C130.104 35.306 128.737 33.9399 128.737 32.2459Z" fill="white"/>
<path d="M160.903 12.3552H154.502V32.082C154.502 33.8852 153.025 35.306 151.275 35.306C149.469 35.306 148.047 33.8306 148.047 32.082V12.3552H141.701C140.224 12.3552 139.021 11.153 139.021 9.6776C139.021 8.20219 140.224 7 141.701 7H160.903C162.38 7 163.583 8.20219 163.583 9.6776C163.583 11.153 162.38 12.3552 160.903 12.3552Z" fill="white"/>
<path d="M174.031 33.5027C171.734 32.3005 169.983 30.6065 168.67 28.4207C167.358 26.2896 166.756 23.8306 166.756 21.153C166.756 18.4754 167.412 16.071 168.67 13.8852C169.983 11.7541 171.734 10.0601 174.031 8.80324C176.329 7.60105 178.9 6.94531 181.745 6.94531C184.589 6.94531 187.16 7.54641 189.403 8.80324C191.701 10.0054 193.451 11.6994 194.764 13.8852C196.077 16.0164 196.734 18.4754 196.734 21.153C196.734 23.8306 196.077 26.2349 194.764 28.4207C193.451 30.5519 191.646 32.2459 189.403 33.5027C187.106 34.7049 184.589 35.3606 181.745 35.3606C178.9 35.306 176.329 34.7049 174.031 33.5027ZM186.121 28.8032C187.434 28.0382 188.473 27 189.184 25.6885C189.95 24.377 190.279 22.847 190.279 21.153C190.279 19.459 189.896 17.9289 189.184 16.6174C188.419 15.306 187.434 14.2677 186.121 13.5027C184.808 12.7377 183.331 12.4098 181.745 12.4098C180.104 12.4098 178.681 12.7923 177.368 13.5027C176.056 14.2677 175.016 15.306 174.305 16.6174C173.539 17.9289 173.211 19.459 173.211 21.153C173.211 22.847 173.594 24.377 174.305 25.6885C175.071 27 176.056 28.0382 177.368 28.8032C178.681 29.5683 180.158 29.8961 181.745 29.8961C183.386 29.8961 184.808 29.5683 186.121 28.8032Z" fill="white"/>
<path d="M220.256 8.25683C222.116 9.0765 223.538 10.2787 224.523 11.8087C225.508 13.3388 226 15.1421 226 17.2732C226 19.3497 225.508 21.153 224.523 22.7377C223.538 24.2678 222.116 25.4699 220.256 26.2896C218.396 27.1093 216.208 27.5464 213.692 27.5464H208.002V32.082C208.002 33.8852 206.525 35.3607 204.72 35.3607C202.915 35.3607 201.438 33.8852 201.438 32.082V10.2787C201.438 8.47541 202.915 7 204.72 7H213.692C216.208 7 218.396 7.43716 220.256 8.25683ZM217.849 20.8798C218.888 20.0055 219.381 18.8033 219.381 17.2732C219.381 15.6885 218.888 14.4863 217.849 13.612C216.81 12.7377 215.333 12.3552 213.363 12.3552H209.534C208.714 12.3552 208.002 13.0109 208.002 13.8852V20.6612C208.002 21.4809 208.659 22.1913 209.534 22.1913H213.363C215.278 22.1913 216.81 21.7541 217.849 20.8798Z" fill="white"/>
<path d="M71.3523 45.6339H70.3129V41.6448H69V40.7705H72.6652V41.6448H71.3523V45.6339Z" fill="white"/>
<path d="M76.4408 45.6344H73.6499V40.8257H76.4408V41.6454H74.6896V42.6836H76.3313V43.5033H74.6896V44.7601H76.4408V45.6344Z" fill="white"/>
<path d="M80.8706 43.1208L79.2295 40.8257H80.2689L81.8553 43.1754V40.8257H82.7853V43.1754L84.3717 40.8257H85.4111L83.7699 43.1208L85.4658 45.6344H84.3717L82.7853 43.1754V45.6344H81.8553V43.1754L80.2142 45.6344H79.1201L80.8706 43.1208Z" fill="white"/>
<path d="M89.1866 45.6344H86.3958V40.8257H89.1866V41.6454H87.4355V42.6836H89.0772V43.5033H87.4355V44.7601H89.1866V45.6344Z" fill="white"/>
<path d="M97.4459 45.6339L97.1176 44.4863H95.3671L95.0389 45.6339H93.9448L95.6406 40.7705H96.8988L98.5946 45.6339H97.4459ZM96.8441 43.612C96.5159 42.5738 96.3518 41.9727 96.2971 41.8634C96.2424 41.7541 96.2424 41.6448 96.1877 41.5355C96.133 41.8088 95.9142 42.5191 95.5859 43.612H96.8441Z" fill="white"/>
<path d="M99.4153 40.7705H100.892C101.603 40.7705 102.096 40.8798 102.369 41.0437C102.698 41.2623 102.807 41.5355 102.807 41.9727C102.807 42.2459 102.752 42.5191 102.588 42.6831C102.479 42.847 102.26 42.9563 102.041 43.0109V43.0656C102.369 43.1202 102.588 43.2842 102.698 43.4481C102.807 43.612 102.916 43.8853 102.916 44.2131C102.916 44.6503 102.752 44.9782 102.424 45.2514C102.096 45.5246 101.658 45.6339 101.111 45.6339H99.3059V40.7705H99.4153ZM100.455 42.6831H101.056C101.33 42.6831 101.549 42.6284 101.658 42.5738C101.768 42.4645 101.822 42.3552 101.822 42.1366C101.822 41.9727 101.768 41.8088 101.603 41.7541C101.439 41.6995 101.275 41.6448 100.947 41.6448H100.4V42.6831H100.455ZM100.455 43.5027V44.7596H101.111C101.385 44.7596 101.603 44.7049 101.713 44.5956C101.822 44.4864 101.932 44.3224 101.932 44.1038C101.932 43.7213 101.658 43.5027 101.056 43.5027H100.455Z" fill="white"/>
<path d="M106.089 45.6339H105.105V41.6448H103.792V40.7705H107.457V41.6448H106.144V45.6339H106.089Z" fill="white"/>
<path d="M112.818 43.1748C112.818 43.9945 112.599 44.5956 112.216 45.0327C111.833 45.4699 111.231 45.6885 110.52 45.6885C109.754 45.6885 109.207 45.4699 108.824 45.0327C108.441 44.5956 108.223 43.9945 108.223 43.1748C108.223 42.3551 108.441 41.754 108.824 41.3169C109.207 40.8797 109.809 40.6611 110.52 40.6611C111.231 40.6611 111.833 40.8797 112.216 41.3169C112.599 41.8087 112.818 42.4098 112.818 43.1748ZM109.262 43.1748C109.262 43.7213 109.371 44.1038 109.59 44.377C109.809 44.6502 110.083 44.7595 110.52 44.7595C111.341 44.7595 111.724 44.2131 111.724 43.1202C111.724 42.0273 111.341 41.4808 110.52 41.4808C110.137 41.4808 109.809 41.6447 109.59 41.918C109.371 42.2458 109.262 42.683 109.262 43.1748Z" fill="white"/>
<path d="M117.413 41.918C117.413 42.2458 117.304 42.4644 117.085 42.683C116.866 42.9016 116.592 43.0109 116.209 43.0655C116.647 43.1202 116.975 43.2294 117.249 43.448C117.468 43.6666 117.577 43.8852 117.577 44.213C117.577 44.6502 117.413 45.0327 117.03 45.2513C116.647 45.5245 116.155 45.6338 115.553 45.6338C114.842 45.6338 114.295 45.5245 113.857 45.3606V44.4863C114.076 44.5956 114.295 44.6502 114.568 44.7049C114.842 44.7595 115.115 44.8141 115.334 44.8141C116.155 44.8141 116.538 44.5956 116.538 44.1038C116.538 43.8852 116.428 43.7212 116.155 43.612C115.881 43.5027 115.498 43.448 115.006 43.448H114.568V42.6283H114.951C115.444 42.6283 115.827 42.5737 116.045 42.4644C116.264 42.3551 116.374 42.1912 116.374 41.9726C116.374 41.8087 116.319 41.6994 116.155 41.5901C115.991 41.4808 115.772 41.4262 115.498 41.4262C115.061 41.4262 114.623 41.5355 114.185 41.8087L113.748 41.1529C114.021 40.989 114.295 40.8251 114.623 40.7704C114.951 40.6611 115.28 40.6611 115.662 40.6611C116.209 40.6611 116.592 40.7704 116.921 40.989C117.249 41.2622 117.413 41.5901 117.413 41.918Z" fill="white"/>
<path d="M121.68 45.6339L121.352 44.4863H119.601L119.273 45.6339H118.179L119.875 40.7705H121.133L122.829 45.6339H121.68ZM121.078 43.612C120.75 42.5738 120.586 41.9727 120.531 41.8634C120.476 41.7541 120.476 41.6448 120.422 41.5355C120.367 41.8088 120.148 42.5191 119.82 43.612H121.078Z" fill="white"/>
<path d="M127.478 45.6344H126.439V41.6454H124.689V45.6344H123.649V40.8257H127.478V45.6344Z" fill="white"/>
<path d="M132.675 45.6344H131.636V43.7765C131.308 43.8858 131.034 43.9951 130.815 43.9951C130.597 44.0497 130.378 44.0497 130.159 44.0497C129.721 44.0497 129.338 43.9404 129.12 43.7219C128.846 43.5033 128.737 43.1754 128.737 42.7929V40.8257H129.776V42.5197C129.776 42.7383 129.831 42.9022 129.94 43.0661C130.049 43.1754 130.214 43.2301 130.487 43.2301C130.651 43.2301 130.87 43.2301 131.034 43.1754C131.198 43.1208 131.417 43.0661 131.691 43.0115V40.8257H132.73V45.6344H132.675Z" fill="white"/>
<path d="M137.106 45.6339L136.778 44.4863H135.028L134.699 45.6339H133.605L135.301 40.7705H136.559L138.255 45.6339H137.106ZM136.505 43.612C136.176 42.5738 136.012 41.9727 135.958 41.8634C135.903 41.7541 135.903 41.6448 135.848 41.5355C135.793 41.8088 135.575 42.5191 135.246 43.612H136.505Z" fill="white"/>
<path d="M141.154 41.5901C140.772 41.5901 140.498 41.7541 140.279 42.0273C140.06 42.3005 139.951 42.7377 139.951 43.2295C139.951 44.3224 140.334 44.8688 141.154 44.8688C141.483 44.8688 141.92 44.7595 142.413 44.5956V45.4699C142.03 45.6338 141.592 45.7431 141.1 45.7431C140.389 45.7431 139.842 45.5246 139.513 45.0874C139.185 44.6502 138.966 44.0492 138.966 43.2295C138.966 42.7377 139.076 42.3005 139.24 41.918C139.404 41.5355 139.677 41.2623 140.006 41.0437C140.334 40.8251 140.772 40.7158 141.209 40.7158C141.702 40.7158 142.139 40.8251 142.631 41.0437L142.303 41.8634C142.139 41.7541 141.92 41.6994 141.756 41.6448C141.483 41.5901 141.319 41.5901 141.154 41.5901Z" fill="white"/>
<path d="M145.531 45.6339H144.491V41.6448H143.178V40.7705H146.844V41.6448H145.531V45.6339Z" fill="white"/>
<path d="M147.883 40.7705H148.813V43.1202V43.7213L148.758 44.4317L151.001 40.7705H152.204V45.5792H151.274V43.2842C151.274 42.9563 151.274 42.5191 151.329 41.918L149.086 45.6339H147.828V40.7705H147.883Z" fill="white"/>
<path d="M159.59 45.6339H158.55V41.6448H157.237V40.7705H160.902V41.6448H159.59V45.6339Z" fill="white"/>
<path d="M166.318 43.1748C166.318 43.9945 166.099 44.5956 165.716 45.0327C165.333 45.4699 164.732 45.6885 164.02 45.6885C163.255 45.6885 162.708 45.4699 162.325 45.0327C161.942 44.5956 161.723 43.9945 161.723 43.1748C161.723 42.3551 161.942 41.754 162.325 41.3169C162.708 40.8797 163.309 40.6611 164.02 40.6611C164.786 40.6611 165.333 40.8797 165.716 41.3169C166.099 41.8087 166.318 42.4098 166.318 43.1748ZM162.817 43.1748C162.817 43.7213 162.926 44.1038 163.145 44.377C163.364 44.6502 163.638 44.7595 164.075 44.7595C164.896 44.7595 165.279 44.2131 165.279 43.1202C165.279 42.0273 164.896 41.4808 164.075 41.4808C163.692 41.4808 163.364 41.6447 163.145 41.918C162.926 42.2458 162.817 42.683 162.817 43.1748Z" fill="white"/>
<path d="M171.406 45.6344H170.366V41.6454H169.163L169.108 42.0825C168.999 43.23 168.835 43.9951 168.725 44.4322C168.616 44.8694 168.452 45.1973 168.287 45.4158C168.069 45.5798 167.795 45.6891 167.467 45.6891C167.303 45.6891 167.139 45.6891 166.975 45.6344V44.8147C167.084 44.8694 167.248 44.8694 167.358 44.8694C167.467 44.8694 167.576 44.8147 167.631 44.7055C167.686 44.5962 167.74 44.3776 167.85 44.1044C167.905 43.8311 168.014 43.3393 168.069 42.6836C168.178 42.0279 168.233 41.4268 168.342 40.8257H171.406V45.6344Z" fill="white"/>
<path d="M176.274 44.1044C176.274 45.088 175.618 45.6344 174.305 45.6344H172.883V40.8257H173.922V42.6836H174.305C174.961 42.6836 175.399 42.7929 175.782 43.0661C176.11 43.2847 176.274 43.6672 176.274 44.1044ZM173.922 44.7601H174.25C174.578 44.7601 174.852 44.7055 175.016 44.5962C175.18 44.4869 175.235 44.3229 175.235 44.1044C175.235 43.8858 175.18 43.7219 175.016 43.6126C174.852 43.5033 174.578 43.4486 174.195 43.4486H173.922V44.7601Z" fill="white"/>
<path d="M181.416 45.6344H180.268L178.517 43.1754V45.6344H177.478V40.8257H178.517V43.1754L180.268 40.8257H181.362L179.611 43.1208L181.416 45.6344Z" fill="white"/>
<path d="M186.668 43.1748C186.668 43.9945 186.449 44.5956 186.066 45.0327C185.683 45.4699 185.081 45.6885 184.37 45.6885C183.604 45.6885 183.057 45.4699 182.674 45.0327C182.292 44.5956 182.073 43.9945 182.073 43.1748C182.073 42.3551 182.292 41.754 182.674 41.3169C183.057 40.8797 183.659 40.6611 184.37 40.6611C185.136 40.6611 185.683 40.8797 186.066 41.3169C186.504 41.8087 186.668 42.4098 186.668 43.1748ZM183.167 43.1748C183.167 43.7213 183.276 44.1038 183.495 44.377C183.714 44.6502 183.987 44.7595 184.425 44.7595C185.246 44.7595 185.628 44.2131 185.628 43.1202C185.628 42.0273 185.246 41.4808 184.425 41.4808C184.042 41.4808 183.714 41.6447 183.495 41.918C183.276 42.2458 183.167 42.683 183.167 43.1748Z" fill="white"/>
<path d="M191.427 44.7596H191.81C192.138 44.1038 192.357 43.5027 192.576 42.847C192.795 42.1913 192.904 41.5355 193.014 40.7705H195.804V44.7596H196.46V47H195.475V45.5792H192.467V47H191.482V44.7596H191.427ZM193.78 41.6448C193.725 42.1366 193.615 42.6831 193.451 43.2295C193.287 43.776 193.123 44.3224 192.904 44.7596H194.764V41.6448H193.78Z" fill="white"/>
<path d="M200.235 45.6344H197.445V40.8257H200.235V41.6454H198.484V42.6836H200.126V43.5033H198.484V44.7601H200.235V45.6344Z" fill="white"/>
<path d="M205.048 44.7596H206.525V40.7705H207.565V45.5792H201.493V40.7705H202.532V44.7596H204.009V40.7705H205.048V44.7596Z" fill="white"/>
<path d="M211.833 45.6344H209.042V40.8257H211.833V41.6454H210.081V42.6836H211.723V43.5033H210.081V44.7601H211.833V45.6344Z" fill="white"/>
<path d="M213.09 40.7705H214.567C215.278 40.7705 215.77 40.8798 216.044 41.0437C216.372 41.2623 216.482 41.5355 216.482 41.9727C216.482 42.2459 216.427 42.5191 216.263 42.6831C216.153 42.847 215.934 42.9563 215.716 43.0109V43.0656C216.044 43.1202 216.263 43.2842 216.372 43.4481C216.482 43.612 216.591 43.8853 216.591 44.2131C216.591 44.6503 216.427 44.9782 216.099 45.2514C215.77 45.5246 215.333 45.6339 214.786 45.6339H212.98V40.7705H213.09ZM214.129 42.6831H214.731C215.005 42.6831 215.223 42.6284 215.333 42.5738C215.442 42.4645 215.497 42.3552 215.497 42.1366C215.497 41.9727 215.442 41.8088 215.278 41.7541C215.114 41.6995 214.95 41.6448 214.622 41.6448H214.075V42.6831H214.129ZM214.129 43.5027V44.7596H214.786C215.059 44.7596 215.278 44.7049 215.387 44.5956C215.497 44.4864 215.606 44.3224 215.606 44.1038C215.606 43.7213 215.333 43.5027 214.731 43.5027H214.129Z" fill="white"/>
<path d="M221.733 45.6344H220.694V41.6454H219.49L219.435 42.0825C219.326 43.23 219.162 43.9951 219.053 44.4322C218.943 44.8694 218.779 45.1973 218.615 45.4158C218.396 45.5798 218.123 45.6891 217.794 45.6891C217.63 45.6891 217.466 45.6891 217.302 45.6344V44.8147C217.411 44.8694 217.576 44.8694 217.685 44.8694C217.794 44.8694 217.904 44.8147 217.958 44.7055C218.013 44.5962 218.068 44.3776 218.177 44.1044C218.232 43.8311 218.341 43.3393 218.396 42.6836C218.505 42.0279 218.56 41.4268 218.67 40.8257H221.733V45.6344Z" fill="white"/>
<path d="M226.001 45.6344H223.21V40.8257H226.001V41.6454H224.25V42.6836H225.892V43.5033H224.25V44.7601H226.001V45.6344Z" fill="white"/>
</g>
<defs>
<linearGradient id="paint0_linear" x1="28.4963" y1="40.6404" x2="28.4963" y2="11.9131" gradientUnits="userSpaceOnUse">
<stop stop-color="#F7941D"/>
<stop offset="1" stop-color="#EF4136"/>
</linearGradient>
<clipPath id="clip0">
<rect width="157" height="40" fill="white" transform="translate(69 7)"/>
</clipPath>
</defs>
</svg>
