<svg width="226" height="54" viewBox="0 0 226 54" fill="none" xmlns="http://www.w3.org/2000/svg">
<path d="M38.0706 54H15.9294C7.12632 54 0 46.8737 0 38.0706V15.9294C0 7.12632 7.12632 0 15.9294 0H38.0706C46.8737 0 54 7.12632 54 15.9294V38.0706C54 46.8737 46.8737 54 38.0706 54Z" fill="#652EFE"/>
<path d="M32.0876 35.9365H18.7495L16.9965 40.2047C16.5011 41.3479 15.396 42.1101 14.1384 42.1101C11.89 42.1101 10.4037 39.8236 11.3183 37.7657L21.2266 15.5102C21.7982 14.2146 23.0939 13.3762 24.5039 13.3762H26.4094C27.8194 13.3762 29.1151 14.2146 29.6867 15.5102L39.6331 37.7657C40.5477 39.8236 39.0615 42.1101 36.813 42.1101H36.6606C35.403 42.1101 34.2979 41.3479 33.8025 40.2047L32.0876 35.9365ZM29.6486 29.9915L26.0664 21.3409C25.8378 20.8074 25.0756 20.8074 24.885 21.3409L21.3028 29.9915C21.1123 30.4107 21.4553 30.9062 21.9126 30.9062H29.077C29.4962 30.9062 29.8011 30.4107 29.6486 29.9915Z" fill="white"/>
<path d="M35.0981 34.4884H21.76L20.007 38.7565C19.5116 39.8998 18.4065 40.662 17.1489 40.662C14.9005 40.662 13.4142 38.3755 14.3288 36.3176L24.2371 14.0621C24.8087 12.7664 26.1044 11.928 27.5145 11.928H29.4199C30.8299 11.928 32.1256 12.7664 32.6973 14.0621L42.6817 36.2795C43.5963 38.3374 42.1101 40.6239 39.8617 40.6239H39.7093C38.4517 40.6239 37.3465 39.8617 36.8511 38.7184L35.0981 34.4884ZM32.621 28.5434L29.0388 19.8928C28.8102 19.3592 28.048 19.3592 27.8574 19.8928L24.2752 28.5434C24.0847 28.9626 24.4277 29.458 24.885 29.458H32.0113C32.4686 29.4199 32.8116 28.9626 32.621 28.5434Z" fill="url(#paint0_linear)"/>
<g clip-path="url(#clip0)">
<path d="M89.7336 29.2404H76.6046L74.8541 33.4481C74.3618 34.5956 73.2677 35.306 72.0642 35.306C69.8761 35.306 68.3991 33.0656 69.2743 31.0437L79.0663 9.13115C79.6133 7.87432 80.9262 7 82.2938 7H84.1538C85.5761 7 86.8342 7.81967 87.3813 9.0765L97.228 30.9891C98.1032 33.0109 96.6809 35.2514 94.4381 35.2514H94.274C93.0158 35.2514 91.9217 34.4863 91.4841 33.3934L89.7336 29.2404ZM87.3266 23.3934L83.7708 14.8689C83.552 14.3224 82.7862 14.3224 82.5674 14.8689L79.0663 23.3934C78.9022 23.8306 79.1757 24.2678 79.6681 24.2678H86.7248C87.2172 24.2678 87.4907 23.8306 87.3266 23.3934Z" fill="#272262"/>
<path d="M128.737 32.2457L128.682 18.366L121.078 31.0436C120.586 31.8086 119.765 32.3004 118.835 32.3004C117.96 32.3004 117.085 31.8086 116.647 31.0436L109.098 18.6938V32.2457C109.098 33.9397 107.73 35.3059 106.034 35.3059C104.339 35.3059 102.971 33.9397 102.971 32.2457V10.0599C102.916 8.36596 104.284 6.99984 105.98 6.99984H106.582C107.676 6.99984 108.66 7.54628 109.207 8.47525L118.945 24.5955L128.518 8.47525C129.065 7.54628 130.104 6.94519 131.144 6.94519H131.745C133.441 6.94519 134.809 8.31131 134.809 10.0053L134.863 32.1911C134.863 33.8851 133.496 35.2512 131.8 35.2512C130.104 35.3059 128.737 33.9397 128.737 32.2457Z" fill="#272262"/>
<path d="M160.903 12.3552H154.502V32.082C154.502 33.8852 153.025 35.306 151.275 35.306C149.469 35.306 148.047 33.8306 148.047 32.082V12.3552H141.701C140.224 12.3552 139.021 11.153 139.021 9.6776C139.021 8.20219 140.224 7 141.701 7H160.903C162.38 7 163.583 8.20219 163.583 9.6776C163.583 11.153 162.38 12.3552 160.903 12.3552Z" fill="#272262"/>
<path d="M174.031 33.5026C171.734 32.3004 169.983 30.6064 168.67 28.4206C167.358 26.2895 166.756 23.8304 166.756 21.1528C166.756 18.4752 167.412 16.0709 168.67 13.8851C169.983 11.7539 171.734 10.0599 174.031 8.80311C176.329 7.60093 178.9 6.94519 181.745 6.94519C184.589 6.94519 187.16 7.54628 189.403 8.80311C191.701 10.0053 193.451 11.6993 194.764 13.8851C196.077 16.0162 196.734 18.4752 196.734 21.1528C196.734 23.8304 196.077 26.2348 194.764 28.4206C193.451 30.5517 191.646 32.2457 189.403 33.5026C187.106 34.7048 184.589 35.3605 181.745 35.3605C178.9 35.3058 176.329 34.7048 174.031 33.5026ZM186.121 28.8031C187.434 28.0381 188.473 26.9998 189.184 25.6884C189.95 24.3769 190.279 22.8468 190.279 21.1528C190.279 19.4589 189.896 17.9288 189.184 16.6173C188.419 15.3058 187.434 14.2676 186.121 13.5026C184.808 12.7375 183.331 12.4097 181.745 12.4097C180.104 12.4097 178.681 12.7922 177.368 13.5026C176.056 14.2676 175.016 15.3058 174.305 16.6173C173.539 17.9288 173.211 19.4589 173.211 21.1528C173.211 22.8468 173.594 24.3769 174.305 25.6884C175.071 26.9998 176.056 28.0381 177.368 28.8031C178.681 29.5681 180.158 29.896 181.745 29.896C183.386 29.896 184.808 29.5681 186.121 28.8031Z" fill="#272262"/>
<path d="M220.256 8.25683C222.116 9.0765 223.538 10.2787 224.523 11.8087C225.508 13.3388 226 15.1421 226 17.2732C226 19.3497 225.508 21.153 224.523 22.7377C223.538 24.2678 222.116 25.4699 220.256 26.2896C218.396 27.1093 216.208 27.5464 213.692 27.5464H208.002V32.082C208.002 33.8852 206.525 35.3607 204.72 35.3607C202.915 35.3607 201.438 33.8852 201.438 32.082V10.2787C201.438 8.47541 202.915 7 204.72 7H213.692C216.208 7 218.396 7.43716 220.256 8.25683ZM217.849 20.8798C218.888 20.0055 219.381 18.8033 219.381 17.2732C219.381 15.6885 218.888 14.4863 217.849 13.612C216.81 12.7377 215.333 12.3552 213.363 12.3552H209.534C208.714 12.3552 208.002 13.0109 208.002 13.8852V20.6612C208.002 21.4809 208.659 22.1913 209.534 22.1913H213.363C215.278 22.1913 216.81 21.7541 217.849 20.8798Z" fill="#272262"/>
<path d="M71.3523 45.6342H70.3129V41.6451H69V40.7708H72.6652V41.6451H71.3523V45.6342Z" fill="#272262"/>
<path d="M76.4408 45.6343H73.6499V40.8256H76.4408V41.6452H74.6896V42.6835H76.3313V43.5032H74.6896V44.76H76.4408V45.6343Z" fill="#272262"/>
<path d="M80.8706 43.1206L79.2295 40.8256H80.2689L81.8553 43.1753V40.8256H82.7853V43.1753L84.3717 40.8256H85.4111L83.7699 43.1206L85.4658 45.6343H84.3717L82.7853 43.1753V45.6343H81.8553V43.1753L80.2142 45.6343H79.1201L80.8706 43.1206Z" fill="#272262"/>
<path d="M89.1866 45.6343H86.3958V40.8256H89.1866V41.6452H87.4355V42.6835H89.0772V43.5032H87.4355V44.76H89.1866V45.6343Z" fill="#272262"/>
<path d="M97.4459 45.6342L97.1176 44.4867H95.3671L95.0389 45.6342H93.9448L95.6406 40.7708H96.8988L98.5946 45.6342H97.4459ZM96.8441 43.6123C96.5159 42.5741 96.3518 41.973 96.2971 41.8637C96.2424 41.7544 96.2424 41.6451 96.1877 41.5358C96.133 41.8091 95.9142 42.5194 95.5859 43.6123H96.8441Z" fill="#272262"/>
<path d="M99.4153 40.7708H100.892C101.603 40.7708 102.096 40.8801 102.369 41.044C102.698 41.2626 102.807 41.5358 102.807 41.973C102.807 42.2462 102.752 42.5194 102.588 42.6834C102.479 42.8473 102.26 42.9566 102.041 43.0112V43.0659C102.369 43.1205 102.588 43.2845 102.698 43.4484C102.807 43.6123 102.916 43.8856 102.916 44.2134C102.916 44.6506 102.752 44.9785 102.424 45.2517C102.096 45.5249 101.658 45.6342 101.111 45.6342H99.3059V40.7708H99.4153ZM100.455 42.6834H101.056C101.33 42.6834 101.549 42.6287 101.658 42.5741C101.768 42.4648 101.822 42.3555 101.822 42.1369C101.822 41.973 101.768 41.8091 101.603 41.7544C101.439 41.6998 101.275 41.6451 100.947 41.6451H100.4V42.6834H100.455ZM100.455 43.5031V44.7599H101.111C101.385 44.7599 101.603 44.7052 101.713 44.5959C101.822 44.4867 101.932 44.3227 101.932 44.1041C101.932 43.7216 101.658 43.5031 101.056 43.5031H100.455Z" fill="#272262"/>
<path d="M106.089 45.6342H105.105V41.6451H103.792V40.7708H107.457V41.6451H106.144V45.6342H106.089Z" fill="#272262"/>
<path d="M112.818 43.1749C112.818 43.9945 112.599 44.5956 112.216 45.0328C111.833 45.47 111.231 45.6885 110.52 45.6885C109.754 45.6885 109.207 45.47 108.824 45.0328C108.441 44.5956 108.223 43.9945 108.223 43.1749C108.223 42.3552 108.441 41.7541 108.824 41.3169C109.207 40.8798 109.809 40.6612 110.52 40.6612C111.231 40.6612 111.833 40.8798 112.216 41.3169C112.599 41.8087 112.818 42.4098 112.818 43.1749ZM109.262 43.1749C109.262 43.7213 109.371 44.1038 109.59 44.3771C109.809 44.6503 110.083 44.7596 110.52 44.7596C111.341 44.7596 111.724 44.2131 111.724 43.1202C111.724 42.0273 111.341 41.4809 110.52 41.4809C110.137 41.4809 109.809 41.6448 109.59 41.918C109.371 42.2459 109.262 42.6831 109.262 43.1749Z" fill="#272262"/>
<path d="M117.413 41.918C117.413 42.2459 117.304 42.4645 117.085 42.6831C116.866 42.9016 116.592 43.0109 116.209 43.0656C116.647 43.1202 116.975 43.2295 117.249 43.4481C117.468 43.6667 117.577 43.8852 117.577 44.2131C117.577 44.6503 117.413 45.0328 117.03 45.2514C116.647 45.5246 116.155 45.6339 115.553 45.6339C114.842 45.6339 114.295 45.5246 113.857 45.3606V44.4863C114.076 44.5956 114.295 44.6503 114.568 44.7049C114.842 44.7596 115.115 44.8142 115.334 44.8142C116.155 44.8142 116.538 44.5956 116.538 44.1038C116.538 43.8852 116.428 43.7213 116.155 43.612C115.881 43.5027 115.498 43.4481 115.006 43.4481H114.568V42.6284H114.951C115.444 42.6284 115.827 42.5738 116.045 42.4645C116.264 42.3552 116.374 42.1913 116.374 41.9727C116.374 41.8087 116.319 41.6994 116.155 41.5902C115.991 41.4809 115.772 41.4262 115.498 41.4262C115.061 41.4262 114.623 41.5355 114.185 41.8087L113.748 41.153C114.021 40.9891 114.295 40.8251 114.623 40.7705C114.951 40.6612 115.28 40.6612 115.662 40.6612C116.209 40.6612 116.592 40.7705 116.921 40.9891C117.249 41.2623 117.413 41.5902 117.413 41.918Z" fill="#272262"/>
<path d="M121.68 45.6342L121.352 44.4867H119.601L119.273 45.6342H118.179L119.875 40.7708H121.133L122.829 45.6342H121.68ZM121.078 43.6123C120.75 42.5741 120.586 41.973 120.531 41.8637C120.476 41.7544 120.476 41.6451 120.422 41.5358C120.367 41.8091 120.148 42.5194 119.82 43.6123H121.078Z" fill="#272262"/>
<path d="M127.478 45.6343H126.439V41.6452H124.689V45.6343H123.649V40.8256H127.478V45.6343Z" fill="#272262"/>
<path d="M132.675 45.6343H131.636V43.7764C131.308 43.8857 131.034 43.995 130.815 43.995C130.597 44.0496 130.378 44.0496 130.159 44.0496C129.721 44.0496 129.338 43.9403 129.12 43.7217C128.846 43.5032 128.737 43.1753 128.737 42.7928V40.8256H129.776V42.5195C129.776 42.7381 129.831 42.9021 129.94 43.066C130.049 43.1753 130.214 43.2299 130.487 43.2299C130.651 43.2299 130.87 43.2299 131.034 43.1753C131.198 43.1206 131.417 43.066 131.691 43.0114V40.8256H132.73V45.6343H132.675Z" fill="#272262"/>
<path d="M137.106 45.6342L136.778 44.4867H135.028L134.699 45.6342H133.605L135.301 40.7708H136.559L138.255 45.6342H137.106ZM136.505 43.6123C136.176 42.5741 136.012 41.973 135.958 41.8637C135.903 41.7544 135.903 41.6451 135.848 41.5358C135.793 41.8091 135.575 42.5194 135.246 43.6123H136.505Z" fill="#272262"/>
<path d="M141.154 41.5903C140.772 41.5903 140.498 41.7543 140.279 42.0275C140.06 42.3007 139.951 42.7379 139.951 43.2297C139.951 44.3226 140.334 44.869 141.154 44.869C141.483 44.869 141.92 44.7597 142.413 44.5958V45.4701C142.03 45.634 141.592 45.7433 141.1 45.7433C140.389 45.7433 139.842 45.5247 139.513 45.0876C139.185 44.6504 138.966 44.0493 138.966 43.2297C138.966 42.7379 139.076 42.3007 139.24 41.9182C139.404 41.5357 139.677 41.2625 140.006 41.0439C140.334 40.8253 140.772 40.716 141.209 40.716C141.702 40.716 142.139 40.8253 142.631 41.0439L142.303 41.8635C142.139 41.7543 141.92 41.6996 141.756 41.645C141.483 41.5903 141.319 41.5903 141.154 41.5903Z" fill="#272262"/>
<path d="M145.531 45.6342H144.491V41.6451H143.178V40.7708H146.844V41.6451H145.531V45.6342Z" fill="#272262"/>
<path d="M147.883 40.7708H148.813V43.1205V43.7216L148.758 44.432L151.001 40.7708H152.204V45.5795H151.274V43.2845C151.274 42.9566 151.274 42.5194 151.329 41.9184L149.086 45.6342H147.828V40.7708H147.883Z" fill="#272262"/>
<path d="M159.59 45.6342H158.55V41.6451H157.237V40.7708H160.902V41.6451H159.59V45.6342Z" fill="#272262"/>
<path d="M166.318 43.1749C166.318 43.9945 166.099 44.5956 165.716 45.0328C165.333 45.47 164.732 45.6885 164.02 45.6885C163.255 45.6885 162.708 45.47 162.325 45.0328C161.942 44.5956 161.723 43.9945 161.723 43.1749C161.723 42.3552 161.942 41.7541 162.325 41.3169C162.708 40.8798 163.309 40.6612 164.02 40.6612C164.786 40.6612 165.333 40.8798 165.716 41.3169C166.099 41.8087 166.318 42.4098 166.318 43.1749ZM162.817 43.1749C162.817 43.7213 162.926 44.1038 163.145 44.3771C163.364 44.6503 163.638 44.7596 164.075 44.7596C164.896 44.7596 165.279 44.2131 165.279 43.1202C165.279 42.0273 164.896 41.4809 164.075 41.4809C163.692 41.4809 163.364 41.6448 163.145 41.918C162.926 42.2459 162.817 42.6831 162.817 43.1749Z" fill="#272262"/>
<path d="M171.406 45.6343H170.366V41.6452H169.163L169.108 42.0824C168.999 43.2299 168.835 43.995 168.725 44.4321C168.616 44.8693 168.452 45.1971 168.287 45.4157C168.069 45.5797 167.795 45.6889 167.467 45.6889C167.303 45.6889 167.139 45.6889 166.975 45.6343V44.8146C167.084 44.8693 167.248 44.8693 167.358 44.8693C167.467 44.8693 167.576 44.8146 167.631 44.7053C167.686 44.596 167.74 44.3775 167.85 44.1042C167.905 43.831 168.014 43.3392 168.069 42.6835C168.178 42.0277 168.233 41.4267 168.342 40.8256H171.406V45.6343Z" fill="#272262"/>
<path d="M176.274 44.1042C176.274 45.0879 175.618 45.6343 174.305 45.6343H172.883V40.8256H173.922V42.6835H174.305C174.961 42.6835 175.399 42.7928 175.782 43.066C176.11 43.2846 176.274 43.6671 176.274 44.1042ZM173.922 44.76H174.25C174.578 44.76 174.852 44.7053 175.016 44.5961C175.18 44.4868 175.235 44.3228 175.235 44.1042C175.235 43.8857 175.18 43.7217 175.016 43.6124C174.852 43.5032 174.578 43.4485 174.195 43.4485H173.922V44.76Z" fill="#272262"/>
<path d="M181.416 45.6343H180.268L178.517 43.1753V45.6343H177.478V40.8256H178.517V43.1753L180.268 40.8256H181.362L179.611 43.1206L181.416 45.6343Z" fill="#272262"/>
<path d="M186.668 43.1749C186.668 43.9945 186.449 44.5956 186.066 45.0328C185.683 45.47 185.081 45.6885 184.37 45.6885C183.604 45.6885 183.057 45.47 182.674 45.0328C182.292 44.5956 182.073 43.9945 182.073 43.1749C182.073 42.3552 182.292 41.7541 182.674 41.3169C183.057 40.8798 183.659 40.6612 184.37 40.6612C185.136 40.6612 185.683 40.8798 186.066 41.3169C186.504 41.8087 186.668 42.4098 186.668 43.1749ZM183.167 43.1749C183.167 43.7213 183.276 44.1038 183.495 44.3771C183.714 44.6503 183.987 44.7596 184.425 44.7596C185.246 44.7596 185.628 44.2131 185.628 43.1202C185.628 42.0273 185.246 41.4809 184.425 41.4809C184.042 41.4809 183.714 41.6448 183.495 41.918C183.276 42.2459 183.167 42.6831 183.167 43.1749Z" fill="#272262"/>
<path d="M191.427 44.7599H191.81C192.138 44.1041 192.357 43.503 192.576 42.8473C192.795 42.1916 192.904 41.5358 193.014 40.7708H195.804V44.7599H196.46V47.0003H195.475V45.5796H192.467V47.0003H191.482V44.7599H191.427ZM193.78 41.6451C193.725 42.1369 193.615 42.6834 193.451 43.2298C193.287 43.7763 193.123 44.3227 192.904 44.7599H194.764V41.6451H193.78Z" fill="#272262"/>
<path d="M200.235 45.6343H197.445V40.8256H200.235V41.6452H198.484V42.6835H200.126V43.5032H198.484V44.76H200.235V45.6343Z" fill="#272262"/>
<path d="M205.048 44.7599H206.525V40.7708H207.565V45.5795H201.493V40.7708H202.532V44.7599H204.009V40.7708H205.048V44.7599Z" fill="#272262"/>
<path d="M211.833 45.6343H209.042V40.8256H211.833V41.6452H210.081V42.6835H211.723V43.5032H210.081V44.76H211.833V45.6343Z" fill="#272262"/>
<path d="M213.09 40.7708H214.567C215.278 40.7708 215.77 40.8801 216.044 41.044C216.372 41.2626 216.482 41.5358 216.482 41.973C216.482 42.2462 216.427 42.5194 216.263 42.6834C216.153 42.8473 215.934 42.9566 215.716 43.0112V43.0659C216.044 43.1205 216.263 43.2845 216.372 43.4484C216.482 43.6123 216.591 43.8856 216.591 44.2134C216.591 44.6506 216.427 44.9785 216.099 45.2517C215.77 45.5249 215.333 45.6342 214.786 45.6342H212.98V40.7708H213.09ZM214.129 42.6834H214.731C215.005 42.6834 215.223 42.6287 215.333 42.5741C215.442 42.4648 215.497 42.3555 215.497 42.1369C215.497 41.973 215.442 41.8091 215.278 41.7544C215.114 41.6998 214.95 41.6451 214.622 41.6451H214.075V42.6834H214.129ZM214.129 43.5031V44.7599H214.786C215.059 44.7599 215.278 44.7052 215.387 44.5959C215.497 44.4867 215.606 44.3227 215.606 44.1041C215.606 43.7216 215.333 43.5031 214.731 43.5031H214.129Z" fill="#272262"/>
<path d="M221.733 45.6343H220.694V41.6452H219.49L219.435 42.0824C219.326 43.2299 219.162 43.995 219.053 44.4321C218.943 44.8693 218.779 45.1971 218.615 45.4157C218.396 45.5797 218.123 45.6889 217.794 45.6889C217.63 45.6889 217.466 45.6889 217.302 45.6343V44.8146C217.411 44.8693 217.576 44.8693 217.685 44.8693C217.794 44.8693 217.904 44.8146 217.958 44.7053C218.013 44.596 218.068 44.3775 218.177 44.1042C218.232 43.831 218.341 43.3392 218.396 42.6835C218.505 42.0277 218.56 41.4267 218.67 40.8256H221.733V45.6343Z" fill="#272262"/>
<path d="M226.001 45.6343H223.21V40.8256H226.001V41.6452H224.25V42.6835H225.892V43.5032H224.25V44.76H226.001V45.6343Z" fill="#272262"/>
</g>
<defs>
<linearGradient id="paint0_linear" x1="28.4963" y1="40.6402" x2="28.4963" y2="11.9129" gradientUnits="userSpaceOnUse">
<stop stop-color="#F7941D"/>
<stop offset="1" stop-color="#EF4136"/>
</linearGradient>
<clipPath id="clip0">
<rect width="157" height="40" fill="white" transform="translate(69 7)"/>
</clipPath>
</defs>
</svg>
