<svg width="50" height="50" viewBox="0 0 50 50" fill="none" xmlns="http://www.w3.org/2000/svg">
<path d="M38.8125 3.90625V4.15625H39.0625H43.5547C46.9706 4.15625 49.75 6.93563 49.75 10.3516V43.5547C49.75 46.9706 46.9706 49.75 43.5547 49.75H6.44531C3.02938 49.75 0.25 46.9706 0.25 43.5547V10.3516C0.25 6.93563 3.02938 4.15625 6.44531 4.15625H10.9375H11.1875V3.90625V1.5625C11.1875 0.83767 11.7751 0.25 12.5 0.25C13.2249 0.25 13.8125 0.83767 13.8125 1.5625V3.90625V4.15625H14.0625H35.9375H36.1875V3.90625V1.5625C36.1875 0.83767 36.7751 0.25 37.5 0.25C38.2249 0.25 38.8125 0.83767 38.8125 1.5625V3.90625ZM11.1875 7.03125V6.78125H10.9375H6.44531C4.47638 6.78125 2.875 8.38263 2.875 10.3516V14.0625V14.3125H3.125H46.875H47.125V14.0625V10.3516C47.125 8.38263 45.5236 6.78125 43.5547 6.78125H39.0625H38.8125V7.03125V8.59375C38.8125 9.31858 38.2249 9.90625 37.5 9.90625C36.7751 9.90625 36.1875 9.31858 36.1875 8.59375V7.03125V6.78125H35.9375H14.0625H13.8125V7.03125V8.59375C13.8125 9.31858 13.2249 9.90625 12.5 9.90625C11.7751 9.90625 11.1875 9.31858 11.1875 8.59375V7.03125ZM3.125 16.9375H2.875V17.1875V43.5547C2.875 45.5236 4.47638 47.125 6.44531 47.125H43.5547C45.5236 47.125 47.125 45.5236 47.125 43.5547V17.1875V16.9375H46.875H3.125Z" fill="#8494B0" stroke="white" stroke-width="0.5"/>
<path d="M20.552 23.016C20.552 22.368 20.12 22.128 19.568 22.104C19.28 22.08 18.824 22.272 18.584 22.44L15.08 24.384C14.6 24.648 14.408 25.032 14.504 25.44C14.624 25.872 14.96 26.352 15.824 25.92L17.288 25.128C17.696 24.936 18.08 24.744 18.512 24.408V38.496C18.512 39.192 19.016 39.384 19.52 39.384C20.048 39.384 20.552 39.192 20.552 38.496V23.016ZM30.1301 22.008C29.3621 22.008 28.7621 22.392 28.3061 23.088L21.5861 33.432C21.4181 33.696 21.3941 33.912 21.3941 34.176C21.3941 34.608 21.6101 35.064 22.1861 35.064H29.5301V38.328C29.5301 39.048 30.0341 39.24 30.5621 39.24C31.0661 39.24 31.5701 39.048 31.5701 38.328V35.064H33.0101C33.5861 35.064 33.7541 34.608 33.7541 34.2C33.7541 33.792 33.6101 33.36 33.0101 33.36H31.5701V23.064C31.5701 22.152 30.9701 22.008 30.1301 22.008ZM29.5301 33.36H23.5301C24.0101 32.856 24.5381 32.136 24.8501 31.656L28.4501 26.16C28.8341 25.56 29.1941 24.912 29.5301 24.264V33.36Z" fill="#8494B0"/>
</svg>
