<svg width="50" height="50" viewBox="0 0 50 50" fill="none" xmlns="http://www.w3.org/2000/svg">
<path d="M43.4012 28.9883C43.2504 29.0641 43.127 29.1867 43.052 29.3375L38.8895 37.6617C38.7629 37.9148 38.4652 38.0391 38.1957 37.9484C37.9043 37.8516 37.7418 37.5437 37.8262 37.2484L39.0324 33.0266C39.1215 32.7148 39.009 32.3805 38.7488 32.1859C38.4887 31.9922 38.1355 31.9781 37.8621 32.1531L30.9504 36.5516C30.7035 36.7086 30.4129 36.7516 30.1324 36.6734C29.852 36.5953 29.6254 36.4094 29.4949 36.1484C29.2746 35.7086 29.4004 35.1758 29.7941 34.8805L34.8441 31.0937C35.1395 30.8726 35.2395 30.4742 35.084 30.1391C34.9285 29.8039 34.559 29.6242 34.2004 29.707L26.0262 31.593C25.7098 31.6672 25.3832 31.6094 25.1105 31.4336C24.8363 31.2562 24.6512 30.9836 24.5871 30.6641C24.4598 30.0273 24.873 29.3984 25.5082 29.2617L34.5402 27.3258C34.9051 27.2476 35.1637 26.9226 35.1582 26.55C35.152 26.1766 34.8832 25.8601 34.5168 25.7937L28.0121 24.6109C27.6645 24.5476 27.3645 24.3516 27.166 24.0594C26.9676 23.768 26.8965 23.4164 26.966 23.0703C27.0965 22.4195 27.6918 21.9664 28.3535 22.0258L35.8746 22.6523C36.1723 22.6851 36.4684 22.525 36.6191 22.2601C36.7691 21.9953 36.752 21.6672 36.5754 21.4203L33.584 17.2336C33.2762 16.8031 33.3246 16.2187 33.6988 15.8445C34.098 15.4453 34.7449 15.4226 35.1707 15.7953L40.1113 20.1187C40.3324 20.3109 40.6418 20.3641 40.916 20.2562L48.7285 17.1312L48.148 15.6805L40.7801 18.6273L39.6574 17.6453L36.8426 2.44452L36.8355 2.44608C36.8176 2.34686 36.7871 2.24921 36.7301 2.16093C36.5582 1.89608 36.2457 1.76171 35.9324 1.81874L9.81367 6.6539C9.60977 6.69218 9.4293 6.80858 9.31211 6.97968L4.3043 14.2625C4.18711 14.4336 4.1418 14.643 4.18008 14.8469L6.40664 26.8773L1.85273 25.0562L1.27227 26.507L9.08477 29.632C9.35977 29.7414 9.66914 29.6875 9.88945 29.4945L14.8301 25.1711C15.2551 24.7984 15.9027 24.8203 16.302 25.2203C16.6762 25.5945 16.7254 26.1797 16.4168 26.6094L13.4262 30.7961C13.2496 31.043 13.2324 31.3711 13.3824 31.6359C13.5324 31.9008 13.8246 32.0594 14.127 32.0281L21.648 31.4016C22.3129 31.3492 22.9059 31.7961 23.0355 32.4461C23.1043 32.7914 23.034 33.1437 22.8355 33.4351C22.6371 33.7273 22.3371 33.9234 21.9895 33.9867L15.4848 35.1695C15.1176 35.2359 14.8496 35.5523 14.8434 35.9258C14.8379 36.2992 15.0965 36.6242 15.4613 36.7016L24.4934 38.6375C25.1285 38.7742 25.5418 39.4023 25.4145 40.0398C25.3504 40.3594 25.1645 40.6328 24.891 40.8094C24.6176 40.9851 24.2926 41.043 23.9746 40.9687L15.8012 39.0828C15.4434 39.0008 15.073 39.1797 14.9176 39.5148C14.7621 39.85 14.8613 40.2476 15.1566 40.4687L20.2066 44.2562C20.5996 44.5516 20.7262 45.0851 20.5059 45.5242C20.3754 45.7851 20.1488 45.9711 19.8684 46.0492C19.5863 46.1266 19.2965 46.0844 19.0512 45.9273L12.1387 41.5289C11.8441 41.3422 11.4574 41.3726 11.1957 41.6086C10.9355 41.8437 10.8637 42.2234 11.0199 42.5375L12.5824 45.6625C12.8207 46.1383 12.627 46.7203 12.1504 46.9578C11.9207 47.0726 11.659 47.0914 11.4137 47.0101C11.1691 46.9289 10.9707 46.757 10.8551 46.5258L6.94883 38.7133C6.87305 38.5625 6.75039 38.439 6.59961 38.3641L1.91211 36.0203L1.21289 37.418L5.66758 39.6453L9.45742 47.225C9.75977 47.8289 10.2785 48.2797 10.9191 48.493C11.1816 48.5805 11.452 48.6242 11.7207 48.6242C12.1082 48.6242 12.4926 48.5336 12.8496 48.3555C14.0957 47.7312 14.6035 46.2101 13.9801 44.9633L13.6785 44.3609L18.2113 47.2445C18.827 47.6359 19.5824 47.7492 20.2848 47.5539C20.9871 47.3594 21.577 46.8734 21.9027 46.2219C22.4605 45.1055 22.141 43.7531 21.1434 43.0055L19.0496 41.4351L23.623 42.4906C24.3543 42.6594 25.1059 42.5281 25.7379 42.1211C26.3699 41.7133 26.7988 41.0828 26.9465 40.3453C27.2215 38.9687 26.3973 37.6211 25.0887 37.1953L28.0207 36.6523C28.0465 36.7172 28.066 36.7836 28.0973 36.8476C28.423 37.4992 29.0129 37.9851 29.7152 38.1797C30.4168 38.3734 31.173 38.2609 31.7887 37.8703L36.9645 34.5765L36.3238 36.8203C36.009 37.9226 36.6145 39.0703 37.7012 39.432C37.9215 39.5062 38.1473 39.5414 38.3699 39.5414C39.1605 39.5414 39.9184 39.0992 40.2871 38.3617L44.3324 30.2703L48.7871 28.043L48.0879 26.6453L43.4012 28.9883ZM30.6059 9.16015L22.7918 10.607L26.5473 5.1453L34.3613 3.69843L30.6059 9.16015ZM16.6465 11.7445L20.402 6.2828L24.3746 5.54686L20.6191 11.0086L16.6465 11.7445ZM20.4543 12.6281L22.0184 21.0781L17.4098 21.932L15.8449 13.4812L20.4543 12.6281ZM10.416 8.13124L18.2293 6.68436L14.4738 12.1461L6.66055 13.593L10.416 8.13124ZM13.802 23.9945L9.22149 28.0031L8.12305 27.5641L5.8582 15.3305L14.3082 13.7664L16.0152 22.9844C16.0551 23.2 16.1848 23.3703 16.3527 23.4836C15.4949 23.207 14.5215 23.3656 13.802 23.9945ZM21.5191 29.8453L15.6793 30.3312L17.6895 27.5164C18.4426 26.4625 18.3246 25.0312 17.4082 24.1148C17.1887 23.8953 16.9355 23.7289 16.6676 23.6031C16.7066 23.6094 16.7426 23.6234 16.7832 23.6234C16.8301 23.6234 16.8785 23.6195 16.9262 23.6101L23.0715 22.4726C23.2754 22.4344 23.4559 22.318 23.573 22.1469C23.6902 21.9758 23.7355 21.7664 23.6973 21.5625L21.991 12.3437L30.441 10.7797L30.7855 12.6422L32.3223 12.3586L31.8941 10.0461L35.6496 4.58358L37.7605 15.9867L36.1988 14.6203C35.1566 13.7094 33.573 13.7609 32.5926 14.7406C31.6762 15.6578 31.5582 17.0891 32.3113 18.1422L34.3215 20.957L28.4816 20.4711C27.0262 20.3484 25.7184 21.3351 25.4316 22.7656C25.2793 23.5258 25.4355 24.2976 25.8715 24.9391C26.3074 25.5805 26.9676 26.0101 27.7309 26.1492L30.3535 26.6258L25.1793 27.7351C23.9957 27.9891 23.159 28.9875 23.0309 30.1359C22.5762 29.9094 22.0582 29.8008 21.5191 29.8453ZM27.8988 35.0859L21.1832 36.3297L19.6473 36L22.2699 35.5234C23.0332 35.3844 23.6934 34.9547 24.1285 34.3133C24.4137 33.893 24.566 33.4148 24.6035 32.9219C25.1566 33.1789 25.7723 33.2547 26.3762 33.1156L30.9496 32.0601L28.8559 33.6305C28.3629 34.0016 28.0363 34.5211 27.8988 35.0859Z" fill="#8494B0"/>
<path d="M5.46875 7.03125H7.03125C7.03125 4.87734 8.78359 3.125 10.9375 3.125H11.7188V1.5625H10.9375C7.92188 1.5625 5.46875 4.01641 5.46875 7.03125Z" fill="#8494B0"/>
<path d="M39.8438 46.875V48.4375H40.625C43.6406 48.4375 46.0938 45.9836 46.0938 42.9688H44.5312C44.5312 45.1227 42.7789 46.875 40.625 46.875H39.8438Z" fill="#8494B0"/>
<path d="M38.2812 44.5312H37.5V46.0938H38.2812C41.2969 46.0938 43.75 43.6398 43.75 40.625H42.1875C42.1875 42.7789 40.4352 44.5312 38.2812 44.5312Z" fill="#8494B0"/>
</svg>
