<svg width="50" height="50" viewBox="0 0 50 50" fill="none" xmlns="http://www.w3.org/2000/svg">
<path d="M6.45143 38.7097C4.67242 38.7097 3.22559 40.1564 3.22559 41.9355C3.22559 43.7145 4.67233 45.1614 6.45143 45.1614C8.23052 45.1614 9.67727 43.7146 9.67727 41.9355C9.67727 40.1565 8.23052 38.7097 6.45143 38.7097ZM6.45143 43.5484C5.56192 43.5484 4.83855 42.825 4.83855 41.9355C4.83855 41.046 5.56192 40.3226 6.45143 40.3226C7.34093 40.3226 8.06431 41.046 8.06431 41.9355C8.06439 42.825 7.34093 43.5484 6.45143 43.5484Z" fill="#8494B0"/>
<path d="M50 40.417V38.5202L49.9161 38.3508C48.5428 35.5871 45.7935 33.871 42.7419 33.871C42.4742 33.871 42.2137 33.9041 41.9516 33.9298C43.4113 31.1516 44.2209 28.0814 44.329 24.9209C46.1798 24.5564 47.5806 22.9233 47.5806 20.9677C47.5807 9.40645 38.175 0 26.613 0C24.6597 0 23.0283 1.39757 22.6606 3.24435C11.4339 3.62904 2.41936 12.8758 2.41936 24.1936C2.41936 28.2638 3.56694 32.1476 5.74598 35.5243C2.51939 35.8775 0 38.617 0 41.9355C0 45.4928 2.89433 48.3871 6.4516 48.3871C8.75001 48.3871 10.8871 47.1363 12.0323 45.1613H35.3581C36.6315 48.0782 39.5299 50 42.742 50C45.7936 50 48.5428 48.2838 49.9162 45.5201L50.0001 45.3507V43.454L42.4057 44.2975L41.2243 41.9354L42.4057 39.5733L50 40.417ZM7.78948 35.6404C6.53304 33.9323 5.58143 32.0638 4.95075 30.0871C5.74998 27.8791 7.34994 25.3895 10.5266 25.0436C10.7202 27.9928 11.904 30.6686 13.7549 32.7492C12.338 34.438 11.7468 36.4685 12.0339 38.7097H12.0323C11.1145 37.1258 9.55482 36.0218 7.78948 35.6404ZM23.3871 12.9032C29.6129 12.9032 34.6774 17.9677 34.6774 24.1935C34.6774 30.4193 29.6129 35.4838 23.3871 35.4838C17.1613 35.4838 12.0968 30.4194 12.0968 24.1936C12.0968 17.9678 17.1613 12.9032 23.3871 12.9032ZM36.2516 24.9613C38.1065 24.8033 39.6935 24.071 40.9807 22.7654L42.7307 24.5154C42.6815 27.5081 41.946 30.4202 40.5871 33.0541C37.6283 34.442 35.1129 34.3089 33.0887 32.6718C34.9169 30.5839 36.0767 27.9065 36.2516 24.9613ZM13.6686 38.7097C13.3815 36.8767 13.7904 35.258 14.8969 33.8863C16.988 35.7202 19.6711 36.8839 22.6211 37.058C22.6711 37.6339 22.7815 38.1839 22.9445 38.7097H13.6686ZM24.6532 38.7097C24.4428 38.1952 24.2968 37.6444 24.2339 37.054C27.1799 36.8613 29.8541 35.6798 31.9347 33.833C33.3467 35.0169 35.0008 35.6145 36.8096 35.6145C37.1564 35.6145 37.5104 35.5879 37.8677 35.5435C36.7967 36.3613 35.9145 37.4314 35.3572 38.7097H24.6532ZM33.6347 5.40888L35.342 3.70164C35.9009 3.98548 36.4444 4.29523 36.971 4.63066L34.9138 6.68792L36.0541 7.82824L38.3162 5.56535C38.7984 5.93228 39.2629 6.32098 39.708 6.73151L37.333 9.10736L38.4734 10.2477L40.8484 7.87184C41.2581 8.31697 41.6468 8.78152 42.0145 9.26374L39.7525 11.5266L40.8928 12.667L42.9501 10.6097C43.2847 11.1364 43.5952 11.6798 43.8791 12.2395L42.1718 13.9467L43.3122 15.0871L44.5896 13.8096C45.4348 15.925 45.917 18.2217 45.959 20.6249L26.9549 1.6218C29.3589 1.66373 31.6565 2.14603 33.7718 2.99119L32.4944 4.26864L33.6347 5.40888ZM25.1621 2.10885L45.4718 22.4178C45.0895 22.9234 44.5202 23.2807 43.8613 23.3661L24.2137 3.71857C24.3 3.06046 24.6565 2.49113 25.1621 2.10885ZM39.8396 21.625C38.8566 22.6194 37.6525 23.1944 36.2476 23.3452C35.8243 16.8823 30.6315 11.7145 24.1573 11.3291C23.9251 8.69683 22.4848 6.56697 20.0017 5.14114C20.9977 4.96451 22.0195 4.86456 23.0614 4.84681L39.8396 21.625ZM17.4838 5.76207C20.5596 6.87255 22.2475 8.74517 22.5225 11.3338C19.5822 11.5298 16.9144 12.7112 14.8378 14.5548C12.8144 12.8589 10.2927 12.3701 7.53216 13.1129C9.93552 9.68469 13.4178 7.06778 17.4838 5.76207ZM6.18952 15.3315C9.14762 13.9452 11.6629 14.0783 13.6855 15.7138C11.8573 17.8024 10.6976 20.4791 10.5226 23.4235C7.89035 23.6557 5.75965 25.0969 4.33391 27.5807C4.13952 26.4727 4.03232 25.342 4.03232 24.1936C4.03224 21.0009 4.81455 17.9887 6.18952 15.3315ZM39.421 41.9355L41.4653 46.025L48.2121 45.2758C47.0492 47.208 44.9991 48.3871 42.7419 48.3871C40.0186 48.3871 37.5774 46.6581 36.6661 44.0863L36.4758 43.5484H11.0371L10.8185 44.0081C10.0185 45.6888 8.3048 46.7742 6.4516 46.7742C3.78308 46.7742 1.61288 44.604 1.61288 41.9355C1.61288 39.267 3.783 37.0968 6.4516 37.0968C8.3048 37.0968 10.0185 38.1823 10.8178 39.8629L11.0372 40.3226H36.4759L36.6654 39.7847C37.5775 37.213 40.0186 35.4839 42.742 35.4839C44.9992 35.4839 47.0492 36.6629 48.2122 38.5952L41.4654 37.846L39.421 41.9355Z" fill="#8494B0"/>
<path d="M20.1615 24.1936C20.1615 24.7904 20.3349 25.342 20.6188 25.8218L18.785 27.6557L19.9253 28.796L21.7591 26.9621C22.2389 27.246 22.7906 27.4194 23.3874 27.4194C23.9841 27.4194 24.5358 27.2461 25.0156 26.9621L26.8479 28.7944L27.9882 27.6541L26.1559 25.8211C26.4397 25.342 26.6132 24.7904 26.6132 24.1937C26.6132 23.5977 26.4398 23.0453 26.1559 22.5655L27.9898 20.7316L26.8494 19.5913L25.0163 21.4251C24.5357 21.1421 23.9841 20.9678 23.3873 20.9678C22.7904 20.9678 22.2389 21.1412 21.7591 21.4251L19.9235 19.5905L18.7832 20.7308L20.6187 22.5655C20.3349 23.0452 20.1615 23.5968 20.1615 24.1936ZM23.3874 22.5806C24.2769 22.5806 25.0002 23.304 25.0002 24.1935C25.0002 25.083 24.2769 25.8064 23.3874 25.8064C22.4979 25.8064 21.7745 25.083 21.7745 24.1935C21.7745 23.304 22.4979 22.5806 23.3874 22.5806Z" fill="#8494B0"/>
<path d="M23.3874 33.871C28.7237 33.871 33.0648 29.5298 33.0648 24.1935C33.0648 18.8572 28.7237 14.5161 23.3874 14.5161C18.0511 14.5161 13.71 18.8572 13.71 24.1936C13.71 29.53 18.0511 33.871 23.3874 33.871ZM23.3874 16.129C27.8342 16.129 31.452 19.7467 31.452 24.1936C31.452 28.6405 27.8343 32.2582 23.3874 32.2582C18.9405 32.2582 15.3228 28.6405 15.3228 24.1936C15.3228 19.7467 18.9406 16.129 23.3874 16.129Z" fill="#8494B0"/>
</svg>
