<svg xmlns="http://www.w3.org/2000/svg" viewBox="0 0 18 18"><title>medium</title><path d="M0,1.5A1.5,1.5,0,1,1,1.5,3,1.5,1.5,0,0,1,0,1.5ZM6.5,0a1.5,1.5,0,0,0,0,3h10a1.5,1.5,0,0,0,0-3Zm0,5a1.5,1.5,0,0,0,0,3h10a1.5,1.5,0,0,0,0-3ZM5,11.5A1.5,1.5,0,0,1,6.5,10h10a1.5,1.5,0,0,1,0,3H6.5A1.5,1.5,0,0,1,5,11.5ZM6.5,15a1.5,1.5,0,0,0,0,3h10a1.5,1.5,0,0,0,0-3ZM1.5,5A1.5,1.5,0,1,0,3,6.5,1.5,1.5,0,0,0,1.5,5ZM0,11.5A1.5,1.5,0,1,1,1.5,13,1.5,1.5,0,0,1,0,11.5ZM1.5,15A1.5,1.5,0,1,0,3,16.5,1.5,1.5,0,0,0,1.5,15Z" transform="translate(0 0)" fill="#ccd6e9" fill-rule="evenodd"/></svg>