<svg width="18" height="18" viewBox="0 0 18 18" fill="none" xmlns="http://www.w3.org/2000/svg">
<path fill-rule="evenodd" clip-rule="evenodd" d="M1.5 0C0.671631 0 0 0.67157 0 1.5C0 2.32843 0.671631 3 1.5 3H16.5C17.3284 3 18 2.32843 18 1.5C18 0.67157 17.3284 0 16.5 0H1.5ZM1.5 5C0.671631 5 0 5.67157 0 6.5C0 7.32843 0.671631 8 1.5 8H16.5C17.3284 8 18 7.32843 18 6.5C18 5.67157 17.3284 5 16.5 5H1.5ZM0 11.5C0 10.6716 0.671631 10 1.5 10H16.5C17.3284 10 18 10.6716 18 11.5C18 12.3284 17.3284 13 16.5 13H1.5C0.671631 13 0 12.3284 0 11.5ZM1.5 15C0.671631 15 0 15.6716 0 16.5C0 17.3284 0.671631 18 1.5 18H16.5C17.3284 18 18 17.3284 18 16.5C18 15.6716 17.3284 15 16.5 15H1.5Z" fill="#CCD6E9"/>
</svg>
